<svg width="496" height="330" viewBox="0 0 496 330" fill="none" xmlns="http://www.w3.org/2000/svg">
<g clip-path="url(#clip0_83_5111)">
<path d="M218.594 83.0043C202.49 28.5387 129.922 10.9887 88.3321 51.6946C87.7372 52.2785 87.1423 52.8731 86.5367 53.4782C26.919 113.911 55.0813 262.826 179.511 300.569C303.942 338.313 433.365 269.387 440.642 207.776C447.908 146.165 390.511 126.8 301.413 144.031C251.08 153.767 228.612 116.905 218.584 83.0043H218.594Z" fill="#E1ECD8"/>
<path d="M53.3286 194.452C43.2472 180.936 28.024 183.654 24.6777 199.877C23.5729 205.239 23.8172 211.949 26.5368 220.272C36.8838 251.986 57.8648 260.766 68.5411 240.349C75.1276 227.747 63.3357 207.85 53.3393 194.452H53.3286Z" fill="#E1ECD8"/>
<path d="M445.231 210.6C444.615 222.651 455.472 229.615 465.83 223.574C469.25 221.578 472.522 218.181 475.072 212.671C484.803 191.649 476.219 175.957 459.169 180.055C448.641 182.582 445.837 198.667 445.231 210.6Z" fill="#E1ECD8"/>
<path d="M36.5439 115.206C32.114 122.064 23.3923 121.608 20.0884 114.187C18.9942 111.734 18.5481 108.581 19.3236 104.536C22.2981 89.1302 33.2188 83.9066 40.9738 92.8993C45.7542 98.452 40.9313 108.4 36.5439 115.195V115.206Z" fill="#E1ECD8"/>
<path d="M277.554 71.2935L279.158 63.267L271.637 61.7594C271.637 59.7846 271.307 57.7992 270.659 55.8775L276.885 51.7368L272.338 44.9207L266.378 48.8915C264.615 47.0866 262.543 45.7063 260.291 44.772L261.8 37.2445L253.768 35.6414L252.217 43.3918C250.571 43.4768 248.924 43.7847 247.32 44.3261L243.177 38.1045L236.357 42.6486L240.33 48.6048C238.524 50.3672 237.143 52.4376 236.208 54.6884L229.632 53.3719L228.018 61.3984L234.827 62.7574C234.933 64.8596 235.401 66.9617 236.251 68.9577L230.291 72.9285L234.838 79.7447L241.063 75.604C242.837 77.1647 244.866 78.3326 247.033 79.1077L245.514 86.6776L253.545 88.2808L255.192 80.0738C256.955 79.8827 258.708 79.4368 260.397 78.7255L264.37 84.6816L271.191 80.1375L267.047 73.9159C268.163 72.6419 269.076 71.251 269.799 69.7646L277.554 71.3147V71.2935ZM257.38 68.0022C253.938 70.2955 249.264 69.3612 246.969 65.9213C244.675 62.4813 245.61 57.8098 249.052 55.5165C252.494 53.2232 257.168 54.1575 259.462 57.5975C261.757 61.0374 260.822 65.7089 257.38 68.0022Z" fill="#E1ECD8"/>
<path d="M237.366 24.7059L238.227 20.3104L234.115 19.5035C234.115 18.4205 233.924 17.3376 233.574 16.2865L236.962 14.0145L234.466 10.2985L231.215 12.475C230.248 11.4982 229.112 10.7444 227.879 10.2348L228.687 6.11535L224.289 5.25537L223.46 9.49158C222.557 9.54467 221.665 9.71454 220.783 10.0118L218.51 6.62497L214.792 9.11999L216.969 12.3688C215.992 13.335 215.238 14.471 214.728 15.7026L211.127 14.9912L210.266 19.3867L213.995 20.1193C214.059 21.2659 214.314 22.4126 214.781 23.5061L211.53 25.6826L214.027 29.3986L217.416 27.1265C218.393 27.9759 219.498 28.6129 220.688 29.027L219.87 33.1677L224.268 34.0276L225.149 29.5366C226.116 29.4305 227.072 29.1863 227.996 28.7828L230.174 32.0316L233.892 29.5366L231.619 26.1498C232.224 25.4491 232.724 24.6846 233.117 23.8777L237.355 24.7059H237.366ZM226.328 22.9434C224.448 24.2069 221.899 23.7079 220.634 21.8286C219.37 19.9494 219.87 17.4013 221.75 16.1379C223.63 14.8744 226.18 15.3734 227.444 17.2527C228.708 19.1319 228.209 21.68 226.328 22.9434Z" fill="#E1ECD8"/>
<path d="M439.527 125.409L440.387 121.013L436.276 120.206C436.276 119.123 436.085 118.04 435.734 116.989L439.123 114.717L436.627 111.001L433.376 113.178C432.409 112.201 431.272 111.447 430.04 110.938L430.847 106.818L426.449 105.958L425.621 110.194C424.718 110.248 423.826 110.417 422.944 110.715L420.67 107.328L416.952 109.823L419.13 113.072C418.153 114.038 417.398 115.174 416.889 116.405L413.287 115.694L412.427 120.09L416.155 120.822C416.219 121.969 416.474 123.115 416.942 124.209L413.691 126.386L416.187 130.101L419.576 127.829C420.554 128.679 421.658 129.316 422.848 129.73L422.03 133.871L426.428 134.731L427.31 130.24C428.277 130.133 429.233 129.889 430.157 129.486L432.335 132.735L436.053 130.24L433.779 126.853C434.385 126.152 434.884 125.387 435.277 124.581L439.516 125.409H439.527ZM428.489 123.646C426.609 124.91 424.059 124.411 422.795 122.532C421.531 120.652 422.03 118.104 423.91 116.841C425.791 115.577 428.34 116.076 429.605 117.956C430.869 119.835 430.369 122.383 428.489 123.646Z" fill="#E1ECD8"/>
<path d="M333.23 142.333L335.121 145.995L337.522 143.352L321.789 112.87C322.097 109.653 323.011 105.173 325.38 99.7581C329.788 89.64 332.699 78.0887 325.805 79.6175C319.824 80.9447 316.945 94.2266 318.602 106.68L312.515 94.8849C311.251 90.9141 309.445 85.2552 309.116 78.6832C308.34 63.4583 304.802 49.189 297.919 53.9348C291.024 58.6913 297.579 83.1318 310.316 97.932L313.45 104.005C304.346 93.0587 288.39 85.0959 283.11 89.8524C277.862 94.577 288.974 98.9194 299.778 101.191C308 102.922 312.993 105.937 315.362 107.721L330.15 136.376C315.691 119.092 290.482 106.542 282.132 114.07C273.814 121.566 291.428 128.456 308.574 132.055C321.523 134.784 329.427 139.519 333.23 142.343V142.333Z" fill="#497624"/>
<path d="M159.264 166.348L157.288 169.969L154.951 167.272L171.395 137.162C171.162 133.945 170.354 129.443 168.113 123.976C163.938 113.762 161.303 102.136 168.166 103.835C174.115 105.3 176.686 118.646 174.731 131.057L181.095 119.41C182.444 115.471 184.388 109.855 184.876 103.294C186.002 88.0899 189.88 73.9055 196.658 78.8106C203.446 83.7263 196.318 108.008 183.23 122.5L179.958 128.499C189.306 117.775 205.454 110.184 210.617 115.057C215.748 119.909 204.551 123.986 193.694 126.003C185.429 127.543 180.372 130.441 177.961 132.161L162.504 160.467C177.366 143.522 202.851 131.567 211.031 139.285C219.179 146.983 201.396 153.449 184.175 156.655C171.162 159.076 163.152 163.63 159.285 166.37L159.264 166.348Z" fill="#497624"/>
<path d="M393.677 282.924L422.88 287.415C426.619 282.648 429.7 277.69 429.573 274.398C429.265 266.138 422.232 256.466 429.371 251.094C436.51 245.722 443.967 236.039 435.15 225.103C426.333 214.168 433.323 190.778 433.323 190.778C433.323 190.778 417.94 200.557 417.855 218.967C417.77 237.387 413.011 235.646 402.483 243.227C391.956 250.807 385.008 253.876 392.328 273.995C393.411 276.989 393.804 279.994 393.677 282.924Z" fill="#497624"/>
<path d="M410.344 285.483L411.566 285.674C412.002 280.45 411.502 275.492 410.047 271.553C406.902 262.985 410.642 254.237 422.179 243.195C429.594 236.092 427.257 224.53 427.161 224.042C427.097 223.712 426.768 223.5 426.439 223.574C426.109 223.638 425.897 223.967 425.971 224.296C425.992 224.413 428.266 235.689 421.339 242.324C409.41 253.759 405.575 262.9 408.91 271.978C410.27 275.662 410.737 280.461 410.344 285.493V285.483Z" fill="#5F893B"/>
<path d="M439.686 313.82H409.027C409.027 313.82 409.006 313.756 409.006 313.724C408.146 310.666 407.657 307.513 407.551 304.339C407.19 293.615 406.998 266.68 413.946 259.779C422.668 251.104 440.143 247.718 437.838 234.637C435.532 221.557 437.253 203.444 457.948 200.504C478.642 197.563 494.8 165.021 494.8 165.021C494.8 165.021 501.609 191.267 482.987 211.375C464.375 231.495 471.301 234.436 475.062 253.366C478.812 272.296 483.252 282.68 454.846 297.151C447.144 301.079 442.448 307.11 439.686 313.83V313.82Z" fill="#699A41"/>
<path d="M455.462 233.236C456.821 257.772 451.701 271.617 438.847 278.104C430.773 282.181 422.296 291.269 416.708 301.822C414.945 305.156 413.149 309.201 411.758 313.819H409.867C411.322 308.851 413.224 304.519 415.104 300.973C420.936 289.942 429.509 280.79 438.029 276.49C450.15 270.364 454.973 257.061 453.656 233.331C452.806 218.075 467.094 207.872 467.7 207.447C468.103 207.16 468.666 207.256 468.964 207.67C469.251 208.073 469.155 208.636 468.741 208.933C468.592 209.029 454.676 218.998 455.462 233.236Z" fill="#5F893B"/>
<path d="M79.9399 205.727L105.276 190.545C105.106 184.493 104.31 178.717 102.111 176.254C96.5972 170.096 85.0072 167.134 87.0681 158.449C89.129 149.764 88.6828 137.544 74.9151 134.763C61.1473 131.981 51.5758 109.515 51.5758 109.515C51.5758 109.515 45.9773 126.853 57.6842 141.08C69.391 155.307 64.6211 157.005 61.3598 169.555C58.0985 182.104 54.7203 188.899 73.2047 199.718C75.9562 201.332 78.1764 203.391 79.9399 205.727Z" fill="#699A41"/>
<path d="M94.4086 197.064L95.4709 196.427C92.4645 192.127 88.9058 188.634 85.2832 186.531C77.3901 181.955 74.6812 172.835 76.4872 156.963C77.6557 146.76 68.4666 139.36 68.0735 139.041C67.808 138.829 67.4255 138.882 67.2237 139.137C67.0112 139.402 67.0643 139.784 67.3193 139.986C67.4149 140.06 76.3703 147.291 75.2761 156.814C73.3958 173.228 76.2959 182.709 84.6671 187.561C88.0665 189.536 91.4978 192.923 94.398 197.042L94.4086 197.064Z" fill="#5F893B"/>
<path d="M90.9457 252.548L120.616 244.809C120.616 244.809 120.616 244.745 120.616 244.713C120.68 241.539 120.351 238.364 119.65 235.264C117.291 224.795 110.652 198.688 102.196 193.762C91.5619 187.572 73.7998 188.708 72.7162 175.468C71.6433 162.229 65.3862 145.135 44.6177 147.514C23.8705 149.892 0 122.489 0 122.489C0 122.489 0.0531175 149.595 23.1481 164.363C46.243 179.121 40.2834 183.718 41.4307 202.988C42.5886 222.247 40.9208 233.416 72.0576 240.243C80.5031 242.091 86.5689 246.752 90.9351 252.559L90.9457 252.548Z" fill="#497624"/>
<path d="M55.3046 178.569C60.1913 202.659 68.6474 214.752 82.7232 217.778C91.5618 219.689 102.068 226.335 110.142 235.137C112.691 237.918 115.443 241.379 117.961 245.499L119.788 245.021C117.132 240.583 114.189 236.867 111.47 233.916C103.035 224.721 92.4329 218.022 83.095 216.015C69.8159 213.159 61.7848 201.491 57.068 178.208C54.0298 163.227 37.6275 156.963 36.9369 156.708C36.4695 156.538 35.949 156.772 35.779 157.239C35.609 157.706 35.8427 158.226 36.3102 158.396C36.4695 158.449 52.4682 164.575 55.3046 178.558V178.569Z" fill="#5F893B"/>
<path d="M365.016 313.883C365.207 310.794 365.377 307.842 365.536 305.113C366.195 293.955 366.62 286.332 366.62 286.332L362.243 286.141L359.778 286.035L330.044 284.718C330.044 284.718 329.502 293.244 328.865 305.75C328.737 308.309 328.599 311.038 328.461 313.894H365.016V313.883Z" fill="#263238"/>
<path d="M362.243 286.13L366.62 286.321C366.62 286.321 366.195 293.944 365.536 305.103C354.105 306.058 341.634 306.441 328.854 305.729C329.491 293.212 330.033 284.697 330.033 284.697L359.768 286.013L362.232 286.119L362.243 286.13Z" fill="#263238"/>
<path d="M360.681 313.883C361.372 301.96 361.935 291.746 362.243 286.141L359.778 286.034C359.47 291.672 358.897 301.928 358.206 313.894H360.681V313.883Z" fill="#263238"/>
<path d="M374.598 313.883H411.152C411.014 311.027 410.887 308.298 410.749 305.74C410.111 293.222 409.57 284.707 409.57 284.707L379.835 286.024L377.37 286.13L372.994 286.321C372.994 286.321 373.419 293.944 374.077 305.103C374.237 307.831 374.417 310.783 374.598 313.872V313.883Z" fill="#263238"/>
<path d="M377.37 286.13L372.994 286.321C372.994 286.321 373.419 293.944 374.077 305.103C385.508 306.058 397.98 306.441 410.759 305.729C410.122 293.212 409.58 284.697 409.58 284.697L379.846 286.013L377.381 286.119L377.37 286.13Z" fill="#263238"/>
<path d="M381.407 313.883C380.717 301.918 380.143 291.662 379.835 286.024L377.371 286.13C377.679 291.736 378.242 301.95 378.932 313.873H381.407V313.883Z" fill="#263238"/>
<path d="M415.051 296.45C384.318 302.682 354.275 301.631 324.041 295.399C324.063 259.662 323.68 240.838 323.765 231.781C323.776 230.56 323.787 229.35 323.808 228.129C323.808 227.566 323.808 227.004 323.818 226.43C323.829 225.581 323.84 224.732 323.85 223.872C323.85 223.638 323.85 223.394 323.85 223.15C323.85 222.874 323.861 222.597 323.861 222.321C323.861 222.268 323.861 222.205 323.861 222.152C323.861 221.483 323.872 220.803 323.882 220.145C323.882 219.614 323.893 219.094 323.903 218.574C323.903 218.128 323.914 217.682 323.925 217.236C323.925 216.503 323.946 215.76 323.957 215.028C323.957 214.847 323.957 214.656 323.957 214.475C323.978 213.223 323.999 211.991 324.02 210.749V210.632C324.042 209.294 324.063 207.967 324.095 206.64C324.19 201.629 324.296 196.702 324.413 191.957C324.435 190.937 324.466 189.929 324.498 188.941C325.093 167.601 326.049 150.242 327.537 144.838C327.717 144.18 327.908 143.691 328.1 143.405C328.312 143.086 328.567 142.768 328.864 142.428C329.236 142.014 329.651 141.579 330.139 141.143C333.411 138.128 336.641 135.697 342.409 132.374C343.078 131.981 346.159 130.452 346.871 130.155C352.915 127.617 362.53 124.857 362.625 124.793L378.889 125.929C380.844 127.076 396.237 132.299 398.128 133.478C398.68 133.828 399.233 134.178 399.775 134.518C404.205 137.374 407.965 140.209 409.601 142.608C410.823 144.403 411.8 153.618 412.576 166.794C412.608 167.442 412.65 168.1 412.682 168.769C413.277 179.566 413.744 192.753 414.116 206.608C414.148 207.978 414.18 209.337 414.222 210.717C414.222 210.887 414.222 211.067 414.233 211.237C414.254 212.023 414.265 212.809 414.297 213.584C414.297 213.87 414.307 214.157 414.318 214.444C414.35 215.803 414.382 217.183 414.403 218.542C414.435 219.795 414.456 221.047 414.477 222.3C414.488 223.001 414.509 223.691 414.52 224.392C414.53 225.061 414.552 225.74 414.562 226.409C414.615 229.297 414.669 232.185 414.711 235.041C414.807 240.816 414.892 246.497 414.966 251.975C414.966 252.601 414.977 253.217 414.987 253.833C414.998 255.234 415.019 267.593 415.03 296.429L415.051 296.45Z" fill="#73A648"/>
<path d="M412.693 168.801L404.789 166.03C404.311 165.86 404.066 165.34 404.226 164.862C404.396 164.384 404.916 164.14 405.394 164.299L412.586 166.826C412.618 167.474 412.661 168.132 412.693 168.801Z" fill="#5F893B"/>
<path d="M330.862 183.951L324.435 191.946C324.456 190.927 324.488 189.918 324.52 188.931L329.438 182.815C329.757 182.422 330.33 182.359 330.724 182.677C331.117 182.996 331.18 183.569 330.862 183.962V183.951Z" fill="#5F893B"/>
<path d="M398.691 267.763C382.331 267.688 368.362 260.246 359.534 254.024C349.983 247.282 344.194 240.455 344.13 240.392C343.854 240.063 343.896 239.564 344.226 239.288C344.555 239.012 345.054 239.054 345.33 239.383C345.384 239.447 351.067 246.146 360.469 252.771C369.116 258.855 382.756 266.128 398.691 266.202C399.127 266.202 399.477 266.563 399.477 266.988C399.477 267.423 399.127 267.773 398.691 267.773V267.763Z" fill="#5F893B"/>
<path d="M381.641 273.315C367.438 273.315 353.287 265.225 352.639 264.854C352.268 264.631 352.129 264.153 352.353 263.781C352.565 263.41 353.054 263.282 353.426 263.495C353.595 263.59 370.253 273.103 385.019 271.574C385.455 271.521 385.837 271.84 385.88 272.275C385.922 272.71 385.614 273.092 385.178 273.135C383.999 273.252 382.82 273.315 381.63 273.315H381.641Z" fill="#5F893B"/>
<path d="M324.042 210.632V210.738H414.233C414.201 209.369 414.159 207.999 414.127 206.629H324.116C324.084 207.957 324.063 209.284 324.042 210.621V210.632Z" fill="#5F893B"/>
<path d="M323.925 218.563H414.414C414.382 217.193 414.35 215.824 414.329 214.454H323.989C323.989 214.635 323.989 214.826 323.989 215.006C323.989 215.739 323.967 216.482 323.957 217.215C323.957 217.66 323.935 218.106 323.935 218.552L323.925 218.563Z" fill="#5F893B"/>
<path d="M323.818 226.43H414.573C414.562 225.761 414.541 225.082 414.53 224.413C414.52 223.712 414.499 223.022 414.488 222.322H323.861C323.861 222.598 323.861 222.874 323.85 223.15C323.85 223.383 323.85 223.627 323.85 223.872C323.85 224.721 323.829 225.581 323.818 226.43Z" fill="#5F893B"/>
<path d="M374.98 160.148C375.373 160.148 375.734 159.861 375.808 159.458C375.893 159.001 375.596 158.555 375.139 158.47C353.723 154.404 347.264 140.634 347.2 140.496C347.009 140.071 346.51 139.88 346.085 140.071C345.66 140.262 345.468 140.761 345.66 141.186C345.925 141.78 352.544 155.901 374.82 160.116C374.874 160.116 374.927 160.127 374.98 160.127V160.148Z" fill="#5F893B"/>
<path d="M346.574 75.4236C346.574 75.4236 344.98 65.6771 347.349 62.3646C349.718 59.0521 353.574 60.0395 357.707 56.2279C361.839 52.4164 374.396 56.0581 379.899 55.0707C382.926 54.5186 386.145 54.9327 389.109 54.3275C393.348 53.4675 395.611 57.6719 394.591 61.8125C393.943 64.4456 392.615 68.4057 388.801 69.4356C388.801 69.4356 352.236 62.7787 346.574 75.4236Z" fill="#01305A"/>
<path d="M345.745 83.2058C345.745 97.3159 354.434 107.052 368.563 107.052C382.692 107.052 392.529 96.594 392.529 82.4732C392.529 68.3525 384.169 57.6611 370.04 57.6611C353.107 57.6611 345.745 69.0851 345.745 83.2058Z" fill="#01305A"/>
<path d="M348.921 89.2788C348.921 89.2788 345.001 84.0446 342.08 88.3764C339.158 92.6975 343.291 105.47 350.43 102.348L348.921 89.2788Z" fill="#FB9E82"/>
<path d="M348.868 98.4096C348.603 98.4096 348.358 98.2397 348.284 97.9743C347.179 94.0354 343.089 92.4322 343.047 92.4216C342.739 92.3048 342.579 91.9544 342.696 91.6465C342.813 91.3386 343.164 91.1794 343.472 91.2962C343.663 91.3705 348.167 93.1117 349.442 97.6558C349.527 97.9743 349.346 98.3141 349.028 98.399C348.974 98.4096 348.921 98.4202 348.868 98.4202V98.4096Z" fill="#FC7972"/>
<path d="M344.736 96.4241C344.619 96.4241 344.512 96.3922 344.406 96.3285C344.13 96.1481 344.045 95.7765 344.226 95.4898C344.257 95.4473 344.98 94.3431 346.488 93.6637C346.786 93.5256 347.147 93.6637 347.285 93.9716C347.423 94.2794 347.285 94.6298 346.977 94.7678C345.808 95.2881 345.235 96.1374 345.235 96.148C345.118 96.3285 344.927 96.4241 344.725 96.4241H344.736Z" fill="#FC7972"/>
<path d="M389.353 89.2788C389.353 89.2788 393.273 84.0446 396.195 88.3764C399.116 92.6975 394.984 105.47 387.845 102.348L389.353 89.2788Z" fill="#FB9E82"/>
<path d="M389.406 98.4096C389.672 98.4096 389.916 98.2397 389.99 97.9743C391.095 94.0354 395.185 92.4322 395.228 92.4216C395.536 92.3048 395.695 91.9544 395.578 91.6465C395.461 91.3386 395.111 91.1794 394.803 91.2962C394.612 91.3705 390.107 93.1117 388.832 97.6558C388.747 97.9743 388.928 98.3141 389.247 98.399C389.3 98.4096 389.353 98.4202 389.406 98.4202V98.4096Z" fill="#FC7972"/>
<path d="M393.528 96.4241C393.645 96.4241 393.751 96.3922 393.857 96.3285C394.133 96.1481 394.218 95.7765 394.038 95.4898C394.006 95.4473 393.284 94.3431 391.775 93.6637C391.478 93.5256 391.116 93.6637 390.978 93.9716C390.84 94.2794 390.978 94.6298 391.286 94.7678C392.455 95.2881 393.029 96.1374 393.029 96.148C393.146 96.3285 393.337 96.4241 393.539 96.4241H393.528Z" fill="#FC7972"/>
<path d="M378.794 113.188V125.887C378.794 125.887 375.001 132.352 369.881 132.798C364.761 133.244 360.214 127.224 360.214 127.224V114.08L378.794 113.188Z" fill="#FDBEAB"/>
<path d="M378.794 113.188V118.826C375.352 122.638 369.244 123.593 360.214 122.255V114.08L378.794 113.188Z" fill="#FB9E82"/>
<path d="M346.828 89.0453C346.881 89.7779 346.945 90.5211 347.02 91.2749C347.211 93.1647 347.466 95.1076 347.816 97.0399C347.827 97.1143 347.838 97.178 347.848 97.2311C349.559 106.595 353.394 115.8 361.658 118.752C380.387 125.43 387.069 109.388 389.746 100.034C390.044 98.9935 390.309 97.8362 390.543 96.6046C390.543 96.5622 390.564 96.5091 390.575 96.4454C390.83 95.0652 391.064 93.5894 391.255 92.0605C391.393 90.9351 391.52 89.7885 391.627 88.6418C391.903 85.8495 392.073 83.0466 392.19 80.5516C392.466 74.8609 389.056 69.6373 383.723 67.5882C376.042 64.6366 364.378 62.3009 353.33 68.5649C349.25 70.8795 346.69 75.1581 346.595 79.8509C346.552 82.4415 346.595 85.616 346.828 89.0347V89.0453Z" fill="#FDBEAB"/>
<path d="M361.212 90.0326C361.212 91.3916 360.511 92.4852 359.65 92.4852C358.79 92.4852 358.089 91.3916 358.089 90.0326C358.089 88.6736 358.79 87.5801 359.65 87.5801C360.511 87.5801 361.212 88.6736 361.212 90.0326Z" fill="#01305A"/>
<path d="M379.899 90.0326C379.899 91.3916 379.197 92.4852 378.337 92.4852C377.477 92.4852 376.775 91.3916 376.775 90.0326C376.775 88.6736 377.477 87.5801 378.337 87.5801C379.197 87.5801 379.899 88.6736 379.899 90.0326Z" fill="#01305A"/>
<path d="M383.553 81.932C383.553 81.932 378.624 79.9891 374.832 81.6241L375.214 83.7369C375.214 83.7369 380.781 83.2698 383.585 84.4058C383.84 83.5989 383.872 82.7708 383.553 81.9426V81.932Z" fill="#01305A"/>
<path d="M354.339 81.932C354.339 81.932 359.268 79.9891 363.061 81.6241L362.678 83.7369C362.678 83.7369 357.112 83.2698 354.307 84.4058C354.052 83.5989 354.02 82.7708 354.339 81.9426V81.932Z" fill="#01305A"/>
<path d="M369.753 100.671C368.744 100.798 367.692 100.522 367.533 100.48C367.214 100.395 367.023 100.066 367.108 99.7367C367.193 99.4182 367.522 99.2271 367.852 99.3121C368.415 99.4607 369.764 99.6518 370.284 99.2484C370.38 99.174 370.518 99.0254 370.508 98.6538C370.465 96.541 369.042 89.5974 369.02 89.5231C368.957 89.194 369.158 88.8755 369.488 88.8118C369.817 88.7481 370.136 88.9498 370.199 89.2789C370.263 89.5656 371.665 96.403 371.708 98.6326C371.719 99.4713 371.336 99.9491 371.017 100.204C370.667 100.48 370.21 100.618 369.753 100.671Z" fill="#FB9E82"/>
<path d="M361.499 104.292C361.988 106.776 363.634 111.341 369.158 111.341C374.682 111.341 376.244 107.169 376.786 104.292H361.499Z" fill="white"/>
<path d="M391.552 89.385H388.812C389.109 86.6352 388.121 83.3227 387.292 81.1143C385.423 76.1031 389.406 73.8947 386.188 71.3785C382.969 68.8622 374.959 69.9452 369.392 69.7647C363.794 69.5842 354.785 69.6585 352.597 70.1681C350.408 70.6671 351.609 74.3088 352.406 77.1223C353.213 79.9358 349.718 83.0466 349.134 85.9663C348.964 86.8051 348.996 88.0473 349.134 89.3957H346.85C346.584 85.8496 346.542 82.5476 346.584 79.8721C346.68 75.1794 349.229 70.9007 353.319 68.5862C364.367 62.3221 376.032 64.6579 383.712 67.6094C389.045 69.6585 392.455 74.8821 392.179 80.5729C392.052 83.2802 391.85 86.3486 391.542 89.3957L391.552 89.385Z" fill="#01305A"/>
<path d="M328.121 143.405L287.625 200.652L296.495 223.723L324.509 189.048C324.509 189.048 329.831 165.064 328.11 143.405H328.121Z" fill="#73A648"/>
<path d="M460.986 174.407C459.127 177.708 454.569 178.441 448.896 177.74C445.401 177.305 441.471 176.328 437.498 175.075C424.027 170.839 410.058 165.924 410.058 165.924L397.65 133.234C397.65 133.234 411.237 139.498 429.509 147.514C432.027 148.618 434.491 149.679 436.839 150.667C438.39 151.325 439.899 151.951 441.322 152.535C441.928 152.78 442.523 153.024 443.096 153.247C443.096 153.247 443.149 153.024 443.245 152.61C443.765 150.433 445.55 142.959 447.685 133.552C450.448 121.396 452.763 102.646 452.763 102.646L463.025 105.364C463.025 105.364 467.859 162.123 460.986 174.385V174.407Z" fill="#73A648"/>
<path d="M444.562 160.169C444.084 160.318 443.574 160.031 443.425 159.553L441.333 152.535C441.938 152.78 442.533 153.024 443.107 153.247C443.107 153.247 443.16 153.024 443.255 152.61L445.168 159.022C445.306 159.5 445.029 160.01 444.551 160.158L444.562 160.169Z" fill="#5F893B"/>
<path d="M458.33 106.935C455.122 107.53 451.765 106.595 449.46 104.291C448.673 103.506 447.962 102.54 447.547 101.372C446.081 97.2842 441.609 88.8648 445.529 86.4866C446.963 85.616 447.186 90.2663 450.193 92.6551C450.193 92.6551 452.902 87.9305 454.24 84.0765C455.419 80.6791 458.394 74.4362 459.796 71.559C460.178 70.7733 461.379 70.9538 461.432 71.8244C461.528 73.2259 461.103 75.6997 459.212 80.0633C459.212 80.0633 464.311 69.7647 466.393 69.839C468.475 69.9133 461.868 82.6645 461.868 82.6645C461.868 82.6645 467.965 73.4701 469.516 74.2451C470.462 74.7123 465.511 85.2444 465.511 85.2444C465.511 85.2444 471.992 77.0799 471.79 80.042C471.726 80.902 462.516 95.819 463.036 105.374C463.036 105.374 461.06 106.425 458.33 106.935Z" fill="#FDBEAB"/>
<path d="M44.7132 313.883H443.999C448.248 313.883 451.69 317.334 451.69 321.57V322.303C451.69 326.549 448.238 329.989 443.999 329.989H44.7132C40.4639 329.989 37.022 326.539 37.022 322.303V321.57C37.022 317.323 40.4745 313.873 44.7238 313.873L44.7132 313.883Z" fill="#497624"/>
<path d="M451.701 321.57V321.941H37.0112V321.57C37.0112 317.323 40.4532 313.883 44.7025 313.883H443.988C448.238 313.883 451.69 317.323 451.69 321.57H451.701Z" fill="#699A41"/>
<path d="M406.69 17.8367C402.962 17.8367 399.923 14.8002 399.923 11.0736C399.923 7.34703 402.962 4.31055 406.69 4.31055C410.419 4.31055 413.457 7.34703 413.457 11.0736C413.457 14.8002 410.419 17.8367 406.69 17.8367ZM406.69 6.42335C404.13 6.42335 402.048 8.50429 402.048 11.063C402.048 13.6217 404.13 15.7027 406.69 15.7027C409.251 15.7027 411.333 13.6217 411.333 11.063C411.333 8.50429 409.251 6.42335 406.69 6.42335Z" fill="#699A41"/>
<path d="M431.06 41.5764C427.331 41.5764 424.293 38.54 424.293 34.8134C424.293 31.0868 427.331 28.0503 431.06 28.0503C434.789 28.0503 437.827 31.0868 437.827 34.8134C437.827 38.54 434.789 41.5764 431.06 41.5764ZM431.06 30.1631C428.5 30.1631 426.418 32.244 426.418 34.8028C426.418 37.3615 428.5 39.4424 431.06 39.4424C433.62 39.4424 435.702 37.3615 435.702 34.8028C435.702 32.244 433.62 30.1631 431.06 30.1631Z" fill="#263238"/>
<path d="M439.431 63.5643C438.847 63.5643 438.369 63.0866 438.369 62.5026V57.8205C438.369 57.2366 438.847 56.7588 439.431 56.7588C440.015 56.7588 440.493 57.2366 440.493 57.8205V62.5026C440.493 63.0866 440.015 63.5643 439.431 63.5643Z" fill="#699A41"/>
<path d="M439.431 71.7606C438.847 71.7606 438.369 71.2829 438.369 70.6989V66.0168C438.369 65.4328 438.847 64.9551 439.431 64.9551C440.015 64.9551 440.493 65.4328 440.493 66.0168V70.6989C440.493 71.2829 440.015 71.7606 439.431 71.7606Z" fill="#699A41"/>
<path d="M445.996 65.316H441.789C441.205 65.316 440.727 64.8383 440.727 64.2543C440.727 63.6704 441.205 63.1926 441.789 63.1926H445.996C446.58 63.1926 447.059 63.6704 447.059 64.2543C447.059 64.8383 446.58 65.316 445.996 65.316Z" fill="#699A41"/>
<path d="M437.062 65.316H432.855C432.271 65.316 431.793 64.8383 431.793 64.2543C431.793 63.6704 432.271 63.1926 432.855 63.1926H437.062C437.646 63.1926 438.124 63.6704 438.124 64.2543C438.124 64.8383 437.646 65.316 437.062 65.316Z" fill="#699A41"/>
<path d="M402.037 37.3402C401.453 37.3402 400.975 36.8624 400.975 36.2785V31.5964C400.975 31.0124 401.453 30.5347 402.037 30.5347C402.622 30.5347 403.1 31.0124 403.1 31.5964V36.2785C403.1 36.8624 402.622 37.3402 402.037 37.3402Z" fill="#497624"/>
<path d="M402.037 45.526C401.453 45.526 400.975 45.0482 400.975 44.4643V39.7822C400.975 39.1982 401.453 38.7205 402.037 38.7205C402.622 38.7205 403.1 39.1982 403.1 39.7822V44.4643C403.1 45.0482 402.622 45.526 402.037 45.526Z" fill="#497624"/>
<path d="M408.613 39.0919H404.406C403.822 39.0919 403.344 38.6142 403.344 38.0302C403.344 37.4463 403.822 36.9685 404.406 36.9685H408.613C409.197 36.9685 409.675 37.4463 409.675 38.0302C409.675 38.6142 409.197 39.0919 408.613 39.0919Z" fill="#497624"/>
<path d="M399.679 39.0919H395.472C394.888 39.0919 394.41 38.6142 394.41 38.0302C394.41 37.4463 394.888 36.9685 395.472 36.9685H399.679C400.263 36.9685 400.741 37.4463 400.741 38.0302C400.741 38.6142 400.263 39.0919 399.679 39.0919Z" fill="#497624"/>
<path d="M83.6157 7.49574C83.6157 3.76915 86.654 0.732666 90.3827 0.732666C94.1115 0.732666 97.1498 3.76915 97.1498 7.49574C97.1498 11.2223 94.1115 14.2588 90.3827 14.2588C86.654 14.2588 83.6157 11.2223 83.6157 7.49574ZM85.7404 7.49574C85.7404 10.0545 87.8225 12.1354 90.3827 12.1354C92.9429 12.1354 95.0251 10.0545 95.0251 7.49574C95.0251 4.93703 92.9429 2.85608 90.3827 2.85608C87.8225 2.85608 85.7404 4.93703 85.7404 7.49574Z" fill="#699A41"/>
<path d="M56.4307 33.2846C56.4307 29.558 59.4689 26.5215 63.1977 26.5215C66.9264 26.5215 69.9647 29.558 69.9647 33.2846C69.9647 37.0112 66.9264 40.0476 63.1977 40.0476C59.4689 40.0476 56.4307 37.0112 56.4307 33.2846ZM58.5553 33.2846C58.5553 35.8433 60.6375 37.9242 63.1977 37.9242C65.7579 37.9242 67.84 35.8433 67.84 33.2846C67.84 30.7258 65.7579 28.6449 63.1977 28.6449C60.6375 28.6449 58.5553 30.7258 58.5553 33.2846Z" fill="#263238"/>
<path d="M42.3548 42.7867C42.9391 42.7867 43.4171 42.309 43.4171 41.725V37.0429C43.4171 36.459 42.9391 35.9812 42.3548 35.9812C41.7705 35.9812 41.2925 36.459 41.2925 37.0429V41.725C41.2925 42.309 41.7705 42.7867 42.3548 42.7867Z" fill="#699A41"/>
<path d="M42.3548 50.9725C42.9391 50.9725 43.4171 50.4948 43.4171 49.9108V45.2287C43.4171 44.6448 42.9391 44.167 42.3548 44.167C41.7705 44.167 41.2925 44.6448 41.2925 45.2287V49.9108C41.2925 50.4948 41.7705 50.9725 42.3548 50.9725Z" fill="#699A41"/>
<path d="M35.7791 44.5385H39.9859C40.5702 44.5385 41.0483 44.0607 41.0483 43.4767C41.0483 42.8928 40.5702 42.415 39.9859 42.415H35.7791C35.1948 42.415 34.7168 42.8928 34.7168 43.4767C34.7168 44.0607 35.1948 44.5385 35.7791 44.5385Z" fill="#699A41"/>
<path d="M44.7239 44.5385H48.9308C49.515 44.5385 49.9931 44.0607 49.9931 43.4767C49.9931 42.8928 49.515 42.415 48.9308 42.415H44.7239C44.1397 42.415 43.6616 42.8928 43.6616 43.4767C43.6616 44.0607 44.1397 44.5385 44.7239 44.5385Z" fill="#699A41"/>
<path d="M66.8201 6.80555C67.4044 6.80555 67.8825 6.32778 67.8825 5.74384V1.06171C67.8825 0.477768 67.4044 0 66.8201 0C66.2359 0 65.7578 0.477768 65.7578 1.06171V5.74384C65.7578 6.32778 66.2359 6.80555 66.8201 6.80555Z" fill="#699A41"/>
<path d="M66.8201 14.9913C67.4044 14.9913 67.8825 14.5136 67.8825 13.9296V9.2475C67.8825 8.66356 67.4044 8.18579 66.8201 8.18579C66.2359 8.18579 65.7578 8.66356 65.7578 9.2475V13.9296C65.7578 14.5136 66.2359 14.9913 66.8201 14.9913Z" fill="#699A41"/>
<path d="M60.2552 8.55725H64.462C65.0463 8.55725 65.5243 8.07948 65.5243 7.49555C65.5243 6.91161 65.0463 6.43384 64.462 6.43384H60.2552C59.6709 6.43384 59.1929 6.91161 59.1929 7.49555C59.1929 8.07948 59.6709 8.55725 60.2552 8.55725Z" fill="#699A41"/>
<path d="M69.1893 8.55725H73.3961C73.9804 8.55725 74.4584 8.07948 74.4584 7.49555C74.4584 6.91161 73.9804 6.43384 73.3961 6.43384H69.1893C68.605 6.43384 68.127 6.91161 68.127 7.49555C68.127 8.07948 68.605 8.55725 69.1893 8.55725Z" fill="#699A41"/>
<path d="M289.728 277.35C289.707 277.817 289.675 278.465 289.633 279.325C289.409 283.816 288.868 294.019 288.613 313.873H198.974C198.984 295.632 199.005 285.387 199.016 279.802C199.016 276.861 199.037 275.226 199.048 274.398C199.048 274.165 199.048 273.921 199.048 273.687C199.059 272.402 199.08 271.118 199.101 269.822C199.144 267.083 199.186 264.355 199.229 261.658C199.802 228.681 200.971 198.858 203.297 195.45C206.229 191.118 217.171 185.13 226.254 180.14C226.456 180.034 226.668 179.917 226.87 179.8C227.136 179.651 227.412 179.503 227.667 179.365C228.506 178.898 229.324 178.441 230.121 178.006C233.467 176.148 236.272 174.502 237.919 173.281C238.45 174.194 240.681 179.237 244.76 179.609C249.232 180.034 253.216 174.396 253.216 174.396V173.324C255.054 174.704 258.103 176.519 261.608 178.547C262.384 179.004 263.181 179.46 263.988 179.928C264.2 180.055 264.424 180.182 264.636 180.31C265.528 180.83 266.442 181.371 267.366 181.902C274.686 186.181 282.281 190.927 284.82 194.664C287.423 198.497 288.9 235.89 289.686 273.613C289.696 274.271 289.718 274.929 289.728 275.587C289.728 275.948 289.739 276.299 289.749 276.66C289.749 276.819 289.749 277.042 289.749 277.339L289.728 277.35Z" fill="#263238"/>
<path d="M206.569 261.297C204.073 265.214 200.684 271.67 199.016 279.802C199.016 276.861 199.037 275.226 199.048 274.398C199.048 274.165 199.048 273.92 199.048 273.687C199.717 271.606 200.461 269.716 201.194 268.06C202.575 264.981 204.03 262.422 205.273 260.479C205.379 260.309 205.56 260.192 205.751 260.15C206.41 260.012 206.909 260.734 206.548 261.307L206.569 261.297Z" fill="#015288"/>
<path d="M289.728 277.35C289.707 277.817 289.675 278.464 289.633 279.324C287.933 271.415 284.629 265.14 282.186 261.307C281.824 260.734 282.324 260.012 282.982 260.15C283.184 260.192 283.354 260.309 283.46 260.479C284.714 262.422 286.169 264.981 287.54 268.06C288.273 269.695 289.006 271.553 289.664 273.612C289.675 274.271 289.696 274.929 289.707 275.587C289.707 276.065 289.707 276.638 289.707 277.339L289.728 277.35Z" fill="#015288"/>
<path d="M216.279 197.722C216.279 197.722 200.673 179.535 211.53 166.645C222.387 153.767 248.223 154.924 256.722 156.241C265.22 157.557 290.121 172.357 272.317 193.347C254.512 214.337 216.279 197.722 216.279 197.722Z" fill="#263238"/>
<path d="M219.434 267.423C226.711 273.114 236.485 278.05 249.381 279.855C249.88 279.93 250.327 279.526 250.316 279.027C250.316 279.027 250.316 279.017 250.316 279.006C250.316 278.603 250.008 278.273 249.615 278.22C237.048 276.458 227.529 271.648 220.443 266.106C219.912 265.692 219.147 266.064 219.137 266.743C219.137 266.743 219.137 266.754 219.137 266.765C219.137 267.019 219.243 267.264 219.445 267.423H219.434Z" fill="#015288"/>
<path d="M222.823 256.965V256.997C222.823 257.124 222.855 257.262 222.919 257.368C223.344 258.101 223.822 258.865 224.374 259.651C227.391 263.951 233.096 269.642 243.146 272.36C243.209 272.381 243.273 272.381 243.337 272.381C243.666 272.381 243.974 272.158 244.059 271.829C244.165 271.436 243.932 271.022 243.528 270.916C232.713 267.996 227.051 261.467 224.215 256.583C223.822 255.914 222.802 256.19 222.813 256.965H222.823Z" fill="#015288"/>
<path d="M255.362 193.379C252.037 196.649 246.407 201.331 238.747 204.665C238.471 204.782 238.291 205.058 238.291 205.355C238.291 205.897 238.843 206.268 239.342 206.056C243.581 204.219 247.118 202.032 249.859 200.036C252.589 198.051 254.778 196.087 256.424 194.462C256.573 194.324 256.648 194.122 256.648 193.921C256.648 193.241 255.83 192.901 255.351 193.379H255.362Z" fill="#172024"/>
<path d="M233.616 263.091C233.255 263.091 232.968 262.804 232.958 262.443C232.256 230.773 232.958 198.677 232.958 198.359C232.958 197.998 233.255 197.711 233.616 197.711H233.627C233.988 197.711 234.275 198.019 234.275 198.38C234.275 198.698 233.574 230.762 234.275 262.401C234.275 262.762 233.999 263.07 233.627 263.07H233.616V263.091Z" fill="white"/>
<path d="M258.538 263.091H258.527C258.166 263.091 257.879 262.783 257.879 262.422C258.581 230.773 257.879 198.72 257.879 198.401C257.879 198.04 258.156 197.732 258.527 197.732H258.538C258.899 197.732 259.186 198.019 259.197 198.38C259.197 198.698 259.898 230.783 259.197 262.465C259.197 262.825 258.899 263.112 258.538 263.112V263.091Z" fill="white"/>
<path d="M268.716 134.157C268.716 148.044 260.164 157.621 246.258 157.621C232.352 157.621 222.674 147.333 222.674 133.435C222.674 119.538 230.907 109.027 244.803 109.027C261.47 109.027 268.716 120.27 268.716 134.157Z" fill="#01305A"/>
<path d="M224.491 143.288C224.491 143.288 219.36 141.897 217.596 135.845C215.844 129.794 219.923 132.862 220.624 127.596C221.325 122.33 215.419 118.412 220.624 115.864C225.829 113.327 222.685 107.838 227.274 104.982C231.863 102.126 238.577 107.392 242.965 103.007C247.352 98.6219 256.244 99.7155 258.772 103.007C261.3 106.298 262.405 105.502 267.133 106.383C271.86 107.264 274.048 114.94 271.743 118.486C269.438 122.033 271.042 124.411 273.252 126.609C275.461 128.806 273.921 143.872 266.347 141.77C258.772 139.668 224.491 143.288 224.491 143.288Z" fill="#01305A"/>
<path d="M265.592 140.135C265.592 140.135 269.448 134.985 272.327 139.243C275.196 143.5 271.138 156.06 264.105 152.992L265.592 140.124V140.135Z" fill="#FB9E82"/>
<path d="M265.635 149.117C265.89 149.117 266.134 148.947 266.208 148.681C267.303 144.806 271.318 143.224 271.361 143.214C271.669 143.097 271.817 142.757 271.701 142.449C271.584 142.141 271.244 141.993 270.936 142.099C270.744 142.173 266.315 143.893 265.061 148.352C264.976 148.671 265.157 149 265.475 149.085C265.528 149.095 265.582 149.106 265.635 149.106V149.117Z" fill="#FC7972"/>
<path d="M269.703 147.163C269.81 147.163 269.926 147.131 270.022 147.068C270.298 146.887 270.373 146.526 270.203 146.25C270.171 146.208 269.459 145.125 267.972 144.456C267.674 144.318 267.324 144.456 267.186 144.753C267.048 145.05 267.186 145.401 267.483 145.539C268.63 146.059 269.193 146.887 269.204 146.898C269.321 147.078 269.512 147.174 269.703 147.174V147.163Z" fill="#FC7972"/>
<path d="M225.797 140.135C225.797 140.135 221.941 134.985 219.062 139.243C216.194 143.5 220.252 156.06 227.285 152.992L225.797 140.124V140.135Z" fill="#FB9E82"/>
<path d="M225.744 149.117C225.489 149.117 225.245 148.947 225.171 148.681C224.076 144.806 220.061 143.224 220.018 143.214C219.71 143.097 219.562 142.757 219.678 142.449C219.795 142.141 220.135 141.993 220.443 142.099C220.635 142.173 225.064 143.893 226.318 148.352C226.403 148.671 226.222 149 225.904 149.085C225.851 149.095 225.797 149.106 225.744 149.106V149.117Z" fill="#FC7972"/>
<path d="M221.686 147.163C221.58 147.163 221.463 147.131 221.367 147.068C221.091 146.887 221.017 146.526 221.187 146.25C221.219 146.208 221.93 145.125 223.418 144.456C223.715 144.318 224.066 144.456 224.204 144.753C224.342 145.05 224.204 145.401 223.906 145.539C222.759 146.059 222.196 146.887 222.185 146.898C222.068 147.078 221.877 147.174 221.686 147.174V147.163Z" fill="#FC7972"/>
<path d="M236.187 163.662V176.158C236.187 176.158 239.916 182.518 244.962 182.953C249.997 183.389 254.48 177.475 254.48 177.475V164.543L236.198 163.662H236.187Z" fill="#FDBEAB"/>
<path d="M236.187 163.662V169.204C239.576 172.952 245.578 173.897 254.47 172.581V164.533L236.187 163.652V163.662Z" fill="#FB9E82"/>
<path d="M267.653 139.742C267.462 142.386 267.154 145.189 266.633 147.97C264.955 157.186 261.184 166.242 253.046 169.151C234.625 175.723 228.039 159.936 225.404 150.731C225.118 149.711 224.852 148.575 224.629 147.354C224.215 145.157 223.885 142.715 223.63 140.252C223.333 137.258 223.131 134.232 223.004 131.577C222.727 125.972 226.095 120.833 231.332 118.816C238.885 115.917 250.369 113.624 261.237 119.782C265.252 122.054 267.77 126.269 267.866 130.877C267.908 133.382 267.876 136.44 267.643 139.742H267.653Z" fill="#FDBEAB"/>
<path d="M253.599 141.77C253.599 143.108 254.289 144.18 255.139 144.18C255.989 144.18 256.679 143.097 256.679 141.77C256.679 140.443 255.989 139.349 255.139 139.349C254.289 139.349 253.599 140.432 253.599 141.77Z" fill="#01305A"/>
<path d="M235.486 141.717C235.486 143.054 236.176 144.137 237.026 144.137C237.876 144.137 238.567 143.054 238.567 141.717C238.567 140.379 237.876 139.296 237.026 139.296C236.176 139.296 235.486 140.379 235.486 141.717Z" fill="#01305A"/>
<path d="M261.226 134.943C261.226 134.943 255.341 132.618 250.805 134.571L251.261 137.088C251.261 137.088 257.912 136.525 261.269 137.884C261.566 136.918 261.609 135.93 261.226 134.932V134.943Z" fill="#01305A"/>
<path d="M231.949 134.943C231.949 134.943 237.834 132.618 242.37 134.571L241.913 137.088C241.913 137.088 235.263 136.525 231.906 137.884C231.609 136.918 231.566 135.93 231.949 134.932V134.943Z" fill="#01305A"/>
<path d="M245.482 151.123C244.484 151.123 243.485 150.731 243.336 150.667C243.028 150.54 242.89 150.2 243.007 149.892C243.135 149.584 243.474 149.446 243.783 149.563C244.324 149.775 245.61 150.125 246.162 149.786C246.268 149.722 246.417 149.595 246.449 149.234C246.661 147.163 246.098 140.209 246.088 140.145C246.056 139.816 246.3 139.53 246.63 139.508C246.959 139.477 247.246 139.721 247.267 140.05C247.288 140.337 247.851 147.185 247.628 149.361C247.543 150.179 247.108 150.603 246.768 150.816C246.385 151.039 245.928 151.123 245.472 151.123H245.482Z" fill="#FB9E82"/>
<path d="M253.599 155.466C253.11 157.908 251.495 162.399 246.067 162.399C240.638 162.399 239.087 158.29 238.567 155.466H253.609H253.599Z" fill="white"/>
<path d="M223.63 140.241H226.318C226.021 137.544 225.596 132.777 227.816 132.098C234.827 129.942 225.745 124.995 228.91 122.521C232.076 120.047 239.958 121.109 245.44 120.928C250.954 120.748 259.813 120.833 261.97 121.321C264.126 121.81 262.947 125.388 262.15 128.169C261.354 130.94 264.796 133.998 265.369 136.865C265.539 137.682 265.497 138.914 265.369 140.23H267.611C267.876 136.737 267.919 133.488 267.866 130.855C267.781 126.248 265.263 122.022 261.237 119.75C250.359 113.592 238.885 115.885 231.322 118.784C226.074 120.801 222.717 125.94 222.982 131.545C223.11 134.21 223.312 137.236 223.609 140.22L223.63 140.241Z" fill="#01305A"/>
<path d="M297.876 313.872C294.785 300.601 291.842 287.393 291.81 281.151L290.089 275.343L283.8 254.098L273.953 220.835C273.953 220.835 275.557 198.985 284.81 194.675C284.81 194.675 295.061 215.367 300.691 235.147C301.647 238.502 302.604 241.931 303.56 245.339C307.565 259.683 311.336 273.835 313.089 282.244C314.842 290.632 315.978 302.438 316.722 313.883H297.876V313.872Z" fill="#263238"/>
<path d="M190.72 313.873C193.811 300.601 196.754 287.394 196.785 281.151L198.506 275.343L204.795 254.098L214.643 220.835C214.643 220.835 212.55 199.76 203.298 195.45C203.298 195.45 193.524 215.357 187.894 235.136C186.938 238.491 185.982 241.921 185.025 245.329C181.021 259.672 177.249 273.825 175.496 282.234C173.744 290.621 172.607 302.427 171.863 313.873H190.709H190.72Z" fill="#263238"/>
<path d="M120.404 313.873C120.574 310.772 120.734 307.832 120.882 305.103C121.488 293.944 121.881 286.321 121.881 286.321L117.844 286.13L115.571 286.024L88.1097 284.708C88.1097 284.708 87.6104 293.233 87.0261 305.74C86.9093 308.299 86.7818 311.027 86.6543 313.883H120.415L120.404 313.873Z" fill="#263238"/>
<path d="M117.844 286.12L121.881 286.311C121.881 286.311 121.488 293.934 120.883 305.092C110.334 306.048 98.8074 306.43 87.0156 305.719C87.5999 293.201 88.0992 284.686 88.0992 284.686L115.56 286.003L117.834 286.109L117.844 286.12Z" fill="#263238"/>
<path d="M116.399 313.873C117.037 301.95 117.557 291.736 117.844 286.13L115.571 286.024C115.284 291.662 114.763 301.918 114.126 313.883H116.41L116.399 313.873Z" fill="#263238"/>
<path d="M129.254 313.873H163.014C162.887 311.017 162.77 308.288 162.643 305.729C162.058 293.212 161.559 284.697 161.559 284.697L134.098 286.013L131.824 286.119L127.788 286.311C127.788 286.311 128.181 293.934 128.786 305.092C128.935 307.821 129.094 310.772 129.264 313.862L129.254 313.873Z" fill="#263238"/>
<path d="M131.814 286.12L127.777 286.311C127.777 286.311 128.17 293.934 128.775 305.092C139.324 306.048 150.851 306.43 162.642 305.719C162.058 293.201 161.559 284.686 161.559 284.686L134.098 286.003L131.824 286.109L131.814 286.12Z" fill="#263238"/>
<path d="M135.542 313.873C134.905 301.907 134.374 291.651 134.098 286.013L131.824 286.12C132.111 291.725 132.632 301.939 133.269 313.862H135.553L135.542 313.873Z" fill="#263238"/>
<path d="M125.132 52.3952C125.132 52.3952 102.663 50.1444 96.6825 83.2272C90.691 116.31 86.6648 137.035 88.0246 154.627C89.3843 172.22 147.122 167.537 156.077 158.704C165.033 149.871 155.259 90.8396 153.039 75.1476C150.819 59.4556 134.055 50.8345 125.132 52.3952Z" fill="#01305A"/>
<path d="M89.6181 211.036C89.7244 213.042 89.8094 215.07 89.8837 217.108C90.298 229.297 86.1762 246.794 84.7208 289.315C108.368 296.407 138.984 295.409 166.116 289.23C164.661 246.709 161.654 229.308 162.069 217.108C162.217 212.766 162.441 208.487 162.717 204.304C163.705 189.26 165.341 175.574 166.424 165.202C167.529 154.669 168.071 147.556 166.786 145.932C165.67 144.53 163.853 143.023 161.623 141.504C158.223 139.169 153.846 136.758 149.544 134.497C148.726 134.072 147.919 133.648 147.111 133.223C142.14 130.632 137.508 128.297 134.884 126.555C131.623 127.978 129.02 128.753 126.226 128.743C126.152 128.743 126.067 128.743 125.992 128.743C125.907 128.743 125.822 128.743 125.748 128.743C122.943 128.764 120.351 127.978 117.09 126.555C114.296 128.413 109.154 130.993 103.705 133.849C102.738 134.359 101.75 134.879 100.773 135.399C98.0424 136.854 95.3335 138.362 92.8901 139.848C91.8597 140.474 90.8717 141.111 89.9581 141.738C87.621 143.32 85.73 144.87 84.5933 146.303C82.0013 149.573 87.281 174.884 89.3101 205.854C89.4163 207.574 89.5225 209.305 89.6075 211.057L89.6181 211.036Z" fill="#73A648"/>
<path d="M154.154 248.238C137.742 248.163 123.74 240.7 114.87 234.457C105.287 227.704 99.4765 220.856 99.4234 220.782C99.1472 220.453 99.1897 219.954 99.519 219.667C99.8484 219.391 100.348 219.434 100.634 219.763C100.688 219.826 106.392 226.547 115.826 233.183C124.494 239.288 138.177 246.582 154.165 246.656C154.601 246.656 154.951 247.017 154.951 247.452C154.951 247.887 154.601 248.238 154.165 248.238H154.154Z" fill="#5F893B"/>
<path d="M143.297 238.693C129.328 235.943 116.952 225.252 116.389 224.763C116.059 224.477 116.027 223.978 116.314 223.649C116.601 223.32 117.1 223.288 117.43 223.574C117.578 223.702 132.132 236.283 146.962 237.631C147.398 237.663 147.717 238.056 147.674 238.491C147.632 238.927 147.249 239.245 146.814 239.203C145.634 239.097 144.455 238.916 143.287 238.693H143.297Z" fill="#5F893B"/>
<path d="M119.629 161.241C119.257 161.241 118.928 160.976 118.853 160.604C118.768 160.18 119.055 159.766 119.48 159.681C139.484 155.89 145.518 143.023 145.581 142.895C145.762 142.502 146.229 142.322 146.623 142.502C147.016 142.683 147.196 143.15 147.016 143.543C146.761 144.106 140.578 157.281 119.778 161.231C119.724 161.231 119.682 161.241 119.629 161.241Z" fill="#5F893B"/>
<path d="M147.09 133.223C142.341 141.25 134.098 149.446 123.527 147.62C113.786 145.942 107.837 139.699 103.694 133.839C109.144 130.993 114.285 128.403 117.079 126.545C120.34 127.968 122.933 128.743 125.737 128.732C125.811 128.732 125.896 128.732 125.981 128.732C126.056 128.732 126.141 128.732 126.215 128.732C129.009 128.753 131.612 127.968 134.873 126.545C137.497 128.286 142.118 130.632 147.1 133.212L147.09 133.223Z" fill="#FDBEAB"/>
<path d="M110.695 131.429C110.589 131.429 110.493 131.429 110.387 131.397C110.291 131.376 110.185 131.344 110.089 131.312C109.994 131.269 109.909 131.227 109.813 131.163C109.728 131.11 109.654 131.036 109.579 130.972C109.282 130.685 109.123 130.282 109.123 129.868C109.123 129.762 109.123 129.666 109.154 129.56C109.176 129.465 109.208 129.358 109.239 129.263C109.282 129.167 109.324 129.082 109.388 128.987C109.441 128.902 109.516 128.827 109.579 128.753C109.654 128.679 109.728 128.615 109.813 128.562C109.898 128.509 109.983 128.456 110.089 128.413C110.185 128.371 110.28 128.339 110.387 128.328C110.589 128.286 110.801 128.286 111.003 128.328C111.109 128.35 111.205 128.382 111.3 128.413C111.396 128.456 111.481 128.498 111.566 128.562C111.651 128.615 111.736 128.689 111.8 128.753C111.874 128.827 111.938 128.902 111.991 128.987C112.044 129.072 112.097 129.157 112.14 129.263C112.182 129.358 112.214 129.454 112.225 129.56C112.246 129.666 112.256 129.762 112.256 129.868C112.256 130.282 112.086 130.685 111.8 130.972C111.725 131.046 111.651 131.11 111.566 131.163C111.481 131.216 111.396 131.269 111.3 131.312C111.205 131.354 111.109 131.386 111.003 131.397C110.907 131.418 110.801 131.429 110.695 131.429Z" fill="white"/>
<path d="M126.8 171.858C126.8 171.858 126.8 171.858 126.8 171.848C126.63 172.697 125.812 173.239 124.962 173.079C124.122 172.91 123.559 172.103 123.719 171.264C123.273 171.986 122.327 172.23 121.583 171.795C120.84 171.359 120.596 170.414 121.01 169.682C120.383 170.245 119.427 170.213 118.832 169.608C118.248 169.002 118.248 168.036 118.832 167.442C118.12 167.856 117.196 167.643 116.729 166.943C116.272 166.242 116.442 165.318 117.1 164.83C116.336 165.138 115.464 164.809 115.103 164.065C114.742 163.322 115.018 162.43 115.73 162.027C114.955 162.25 114.115 161.847 113.829 161.082C113.531 160.318 113.892 159.458 114.625 159.118C113.839 159.288 113.032 158.821 112.798 158.035C112.564 157.249 112.968 156.421 113.712 156.124C112.915 156.251 112.15 155.742 111.948 154.956C111.757 154.16 112.203 153.363 112.957 153.098C112.161 153.183 111.417 152.652 111.247 151.856C111.088 151.06 111.566 150.274 112.331 150.04C111.534 150.093 110.811 149.541 110.673 148.734C110.546 147.928 111.045 147.174 111.821 146.972C111.024 147.004 110.312 146.42 110.206 145.613C110.1 144.806 110.631 144.063 111.406 143.882C110.61 143.882 109.919 143.288 109.834 142.481C109.749 141.674 110.291 140.941 111.077 140.782C110.28 140.772 109.611 140.156 109.537 139.349C109.473 138.542 110.036 137.82 110.822 137.682C110.025 137.65 109.367 137.024 109.324 136.206C109.282 135.389 109.866 134.688 110.663 134.561C109.866 134.518 109.207 133.871 109.186 133.053C109.154 132.193 109.834 131.46 110.695 131.439C111.566 131.407 112.288 132.087 112.32 132.947C112.341 133.754 111.768 134.433 110.981 134.55C111.768 134.592 112.405 135.219 112.458 136.026C112.501 136.822 111.938 137.523 111.173 137.661C111.959 137.693 112.607 138.298 112.671 139.094C112.734 139.89 112.193 140.602 111.428 140.761C112.203 140.761 112.872 141.366 112.957 142.162C113.042 142.959 112.511 143.681 111.757 143.851C112.543 143.851 113.223 144.413 113.329 145.21C113.435 145.995 112.926 146.728 112.182 146.93C112.957 146.898 113.659 147.45 113.786 148.235C113.913 149.021 113.435 149.764 112.692 149.987C113.467 149.934 114.179 150.454 114.338 151.24C114.498 152.026 114.041 152.78 113.308 153.034C114.073 152.949 114.806 153.448 114.997 154.213C115.188 154.977 114.774 155.752 114.062 156.039C114.827 155.922 115.571 156.379 115.804 157.133C116.028 157.886 115.666 158.672 114.976 159.001C115.719 158.842 116.495 159.245 116.771 159.978C117.047 160.71 116.75 161.507 116.091 161.889C116.814 161.677 117.6 162.006 117.94 162.706C118.269 163.397 118.057 164.203 117.472 164.649C118.152 164.373 118.96 164.607 119.374 165.244C119.778 165.87 119.682 166.667 119.193 167.187C119.799 166.837 120.596 166.921 121.105 167.452C121.594 167.962 121.679 168.716 121.339 169.31C121.838 168.864 122.582 168.769 123.188 169.13C123.772 169.47 124.048 170.128 123.931 170.754C124.261 170.213 124.909 169.915 125.567 170.043C126.226 170.17 126.704 170.691 126.821 171.317C126.948 170.701 127.437 170.202 128.085 170.085C128.722 169.969 129.338 170.255 129.668 170.765C129.562 170.17 129.806 169.533 130.348 169.172C130.921 168.79 131.644 168.843 132.164 169.225C131.803 168.673 131.814 167.93 132.249 167.389C132.706 166.815 133.482 166.645 134.119 166.932C133.577 166.465 133.407 165.679 133.747 165.021C134.098 164.342 134.873 164.034 135.574 164.235C134.937 163.864 134.639 163.078 134.905 162.356C135.171 161.624 135.925 161.22 136.658 161.347C135.967 161.04 135.585 160.265 135.787 159.511C135.989 158.746 136.711 158.269 137.476 158.364C136.753 158.099 136.318 157.355 136.477 156.58C136.637 155.805 137.327 155.285 138.092 155.328C137.359 155.105 136.881 154.372 136.998 153.597C137.115 152.811 137.795 152.249 138.57 152.27C137.816 152.089 137.306 151.367 137.391 150.571C137.476 149.786 138.145 149.191 138.91 149.18C138.156 149.021 137.614 148.32 137.678 147.524C137.741 146.728 138.379 146.123 139.154 146.08C138.389 145.942 137.826 145.263 137.869 144.466C137.911 143.67 138.538 143.044 139.314 142.98C138.549 142.863 137.965 142.194 137.986 141.387C138.007 140.591 138.623 139.943 139.399 139.869C138.623 139.774 138.028 139.105 138.028 138.308C138.028 137.512 138.623 136.865 139.388 136.758C138.623 136.663 138.018 136.026 138.007 135.229C137.996 134.433 138.57 133.775 139.335 133.658C138.559 133.584 137.954 132.947 137.922 132.161C137.89 131.301 138.559 130.569 139.431 130.537C140.291 130.505 141.024 131.174 141.056 132.044C141.088 132.851 140.504 133.531 139.728 133.648C140.514 133.722 141.13 134.38 141.141 135.176C141.152 135.983 140.557 136.652 139.781 136.758C140.567 136.843 141.173 137.512 141.162 138.319C141.162 139.126 140.535 139.795 139.749 139.869C140.535 139.965 141.141 140.655 141.12 141.462C141.098 142.269 140.472 142.927 139.675 142.98C140.461 143.097 141.045 143.797 141.003 144.604C140.96 145.411 140.312 146.048 139.516 146.091C140.302 146.229 140.865 146.951 140.801 147.758C140.737 148.565 140.068 149.191 139.271 149.202C140.047 149.371 140.588 150.093 140.503 150.911C140.419 151.718 139.717 152.312 138.921 152.302C139.696 152.493 140.217 153.247 140.089 154.054C139.962 154.86 139.25 155.434 138.453 155.381C139.218 155.614 139.696 156.389 139.537 157.186C139.377 157.982 138.623 158.523 137.826 158.438C138.591 158.714 139.016 159.521 138.804 160.318C138.591 161.114 137.805 161.602 137.008 161.454C137.752 161.783 138.113 162.643 137.837 163.418C137.55 164.203 136.711 164.618 135.925 164.384C136.637 164.809 136.902 165.711 136.52 166.454C136.137 167.198 135.234 167.505 134.48 167.166C135.118 167.707 135.213 168.673 134.693 169.332C134.161 170 133.195 170.117 132.515 169.597C132.993 170.319 132.802 171.296 132.079 171.773C131.357 172.251 130.38 172.06 129.901 171.328C129.901 171.328 129.901 171.328 129.901 171.338C130.05 172.188 129.477 173.005 128.627 173.154C128.531 173.164 128.446 173.175 128.35 173.175C127.607 173.175 126.938 172.644 126.81 171.88L126.8 171.858Z" fill="#E1ECD8"/>
<path d="M139.292 130.547C139.186 130.547 139.091 130.547 138.984 130.516C138.889 130.494 138.783 130.463 138.687 130.431C138.591 130.388 138.506 130.346 138.411 130.282C138.326 130.229 138.251 130.155 138.177 130.091C137.88 129.794 137.72 129.401 137.72 128.987C137.72 128.881 137.72 128.785 137.752 128.679C137.773 128.583 137.805 128.477 137.837 128.382C137.88 128.286 137.922 128.201 137.986 128.116C138.039 128.031 138.113 127.946 138.177 127.872C138.251 127.798 138.326 127.734 138.411 127.681C138.496 127.628 138.581 127.575 138.687 127.532C138.783 127.49 138.878 127.458 138.984 127.437C139.186 127.394 139.399 127.394 139.601 127.437C139.707 127.458 139.802 127.49 139.898 127.532C139.994 127.564 140.079 127.617 140.164 127.681C140.249 127.734 140.334 127.808 140.408 127.872C140.482 127.946 140.546 128.031 140.599 128.116C140.652 128.201 140.705 128.286 140.748 128.382C140.79 128.477 140.822 128.573 140.833 128.679C140.854 128.785 140.865 128.881 140.865 128.987C140.865 129.401 140.695 129.804 140.408 130.091C140.334 130.165 140.259 130.229 140.174 130.282C140.089 130.335 140.004 130.388 139.909 130.431C139.813 130.463 139.717 130.494 139.611 130.516C139.516 130.537 139.409 130.547 139.303 130.547H139.292Z" fill="white"/>
<path d="M106.137 90.7652C106.137 90.7652 101.229 85.1912 98.5521 89.0877C95.8644 92.9841 99.6782 105.056 106.18 102.285L106.137 90.7652Z" fill="#FB9E82"/>
<path d="M104.639 98.2607C104.395 98.2607 104.183 98.1015 104.119 97.8573C103.141 94.2687 99.4446 92.7823 99.4127 92.7717C99.1365 92.6655 98.9878 92.347 99.1046 92.0604C99.2109 91.7737 99.5296 91.6357 99.8164 91.7525C99.9864 91.8162 104.066 93.4406 105.181 97.5706C105.255 97.8679 105.086 98.1652 104.799 98.2395C104.746 98.2501 104.703 98.2607 104.65 98.2607H104.639Z" fill="#FC7972"/>
<path d="M100.91 96.4241C100.804 96.4241 100.709 96.3923 100.613 96.3392C100.358 96.1693 100.294 95.8296 100.454 95.5854C100.485 95.5429 101.144 94.5449 102.525 93.9504C102.801 93.8336 103.12 93.9504 103.247 94.237C103.364 94.5131 103.247 94.8422 102.961 94.959C101.898 95.4261 101.367 96.1906 101.367 96.1906C101.261 96.3498 101.08 96.4348 100.9 96.4348L100.91 96.4241Z" fill="#FC7972"/>
<path d="M145.125 90.7652C145.125 90.7652 150.032 85.1912 152.71 89.0877C155.397 92.9841 151.583 105.056 145.082 102.285L145.125 90.7652Z" fill="#FB9E82"/>
<path d="M146.622 98.2607C146.867 98.2607 147.079 98.1015 147.143 97.8573C148.12 94.2687 151.817 92.7823 151.849 92.7717C152.125 92.6655 152.274 92.347 152.157 92.0604C152.051 91.7737 151.732 91.6357 151.445 91.7525C151.275 91.8162 147.196 93.4406 146.08 97.5706C146.006 97.8679 146.176 98.1652 146.463 98.2395C146.516 98.2501 146.558 98.2607 146.612 98.2607H146.622Z" fill="#FC7972"/>
<path d="M150.351 96.4241C150.457 96.4241 150.553 96.3923 150.649 96.3392C150.904 96.1693 150.967 95.8296 150.808 95.5854C150.776 95.5429 150.118 94.5449 148.736 93.9504C148.46 93.8336 148.142 93.9504 148.014 94.237C147.897 94.5131 148.014 94.8422 148.301 94.959C149.363 95.4261 149.894 96.1906 149.894 96.1906C150.001 96.3498 150.181 96.4348 150.362 96.4348L150.351 96.4241Z" fill="#FC7972"/>
<path d="M134.937 114.165V126.555C134.937 126.555 131.24 132.862 126.236 133.297C121.243 133.733 116.803 127.861 116.803 127.861V115.036L134.926 114.165H134.937Z" fill="#FDBEAB"/>
<path d="M134.937 114.165V119.665C131.58 123.381 125.631 124.708 116.813 123.402V115.036L134.937 114.165Z" fill="#FB9E82"/>
<path d="M148.004 82.3459C147.77 87.1554 147.313 93.1859 146.399 97.9955C146.166 99.1952 145.911 100.331 145.624 101.34C143.011 110.471 136.488 126.12 118.227 119.601C110.163 116.724 106.424 107.742 104.756 98.6112C103.63 92.4109 103.46 86.1362 103.535 81.6664C103.62 77.0904 106.116 72.9179 110.1 70.6565C120.882 64.5517 132.26 66.8237 139.749 69.7009C144.944 71.697 148.28 76.8038 148.014 82.3459H148.004Z" fill="#FDBEAB"/>
<path d="M122.752 69.9344C122.752 69.9344 114.689 83.7791 106.042 86.0512C105.606 88.3657 104.841 91.3915 103.8 91.2217C102.6 91.0306 102.568 87.9835 102.642 86.2847C94.5153 84.8727 102.78 66.2822 115.528 66.0273L122.752 69.945V69.9344Z" fill="#01305A"/>
<path d="M148.896 83.5244C148.896 83.5244 147.929 91.5084 146.261 91.2324C144.593 90.9563 145.178 85.1594 145.178 85.1594L145.465 85.032C113.085 83.0466 115.56 66.2716 115.56 66.2716C149.756 58.8184 148.556 76.5171 148.907 82.8024V83.5244H148.896Z" fill="#01305A"/>
<path d="M117.462 91.5721C117.462 92.8992 116.782 93.9715 115.942 93.9715C115.103 93.9715 114.423 92.8992 114.423 91.5721C114.423 90.2449 115.103 89.1726 115.942 89.1726C116.782 89.1726 117.462 90.2449 117.462 91.5721Z" fill="#01305A"/>
<path d="M136.276 91.5721C136.276 92.8992 135.596 93.9715 134.756 93.9715C133.917 93.9715 133.237 92.8992 133.237 91.5721C133.237 90.2449 133.917 89.1726 134.756 89.1726C135.596 89.1726 136.276 90.2449 136.276 91.5721Z" fill="#01305A"/>
<path d="M112.925 84.448C114.189 84.087 116.75 83.4818 119.437 83.4712C120.149 83.4712 120.691 84.0976 120.563 84.7983V84.8196C120.457 85.3716 119.958 85.7751 119.395 85.7432C117.557 85.6583 112.745 85.9131 110.471 86.8368C110.429 86.444 110.663 86.0087 110.992 85.6265C111.491 85.0425 112.182 84.6603 112.925 84.448Z" fill="#01305A"/>
<path d="M137.54 84.4904C136.275 84.1295 133.715 83.5243 131.028 83.5137C130.316 83.5137 129.774 84.1401 129.901 84.8408V84.862C130.008 85.4141 130.507 85.8176 131.07 85.7857C132.908 85.7008 137.72 85.9556 139.994 86.8793C140.036 86.4865 139.802 86.0512 139.473 85.6689C138.974 85.085 138.283 84.7028 137.54 84.4904Z" fill="#01305A"/>
<path d="M125.716 102.497C125.27 102.497 124.813 102.423 124.431 102.189C124.091 101.987 123.655 101.563 123.57 100.756C123.347 98.59 123.899 91.8163 123.921 91.5296C123.942 91.2005 124.229 90.9669 124.558 90.9882C124.877 91.0094 125.121 91.2961 125.1 91.6252C125.1 91.6995 124.526 98.5794 124.739 100.639C124.77 101 124.919 101.127 125.025 101.191C125.578 101.52 126.853 101.191 127.384 100.968C127.681 100.841 128.032 100.989 128.149 101.287C128.276 101.584 128.127 101.934 127.83 102.051C127.681 102.115 126.693 102.497 125.695 102.497H125.716Z" fill="#FB9E82"/>
<path d="M118.237 106.213C118.683 108.453 120.16 112.573 125.142 112.573C130.124 112.573 131.537 108.804 132.026 106.213H118.237Z" fill="white"/>
<path d="M125.078 116.002C123.644 116.002 122.369 115.227 122.316 115.195C122.04 115.025 121.955 114.664 122.125 114.388C122.295 114.112 122.656 114.027 122.932 114.197C122.932 114.197 123.984 114.834 125.078 114.834C126.268 114.834 127.331 114.208 127.341 114.197C127.617 114.027 127.979 114.123 128.148 114.399C128.318 114.675 128.223 115.036 127.947 115.206C127.894 115.238 126.597 116.013 125.078 116.013V116.002Z" fill="#FB9E82"/>
<path d="M102.238 79.9888C102.217 80.1268 102.143 80.7957 102.037 81.7512C102.037 81.2947 102.122 80.6895 102.238 79.9888Z" fill="#01305A"/>
<path d="M128 92.8356C128 88.8861 131.208 85.6797 135.16 85.6797C139.111 85.6797 142.32 88.8861 142.32 92.8356C142.32 96.7852 139.111 99.9915 135.16 99.9915C131.208 99.9915 128 96.7852 128 92.8356ZM129.115 92.8356C129.115 96.1694 131.824 98.8767 135.16 98.8767C138.495 98.8767 141.204 96.1694 141.204 92.8356C141.204 89.5018 138.495 86.7945 135.16 86.7945C131.824 86.7945 129.115 89.5018 129.115 92.8356Z" fill="white"/>
<path d="M108.432 92.8356C108.432 88.8861 111.64 85.6797 115.592 85.6797C119.544 85.6797 122.752 88.8861 122.752 92.8356C122.752 96.7852 119.544 99.9915 115.592 99.9915C111.64 99.9915 108.432 96.7852 108.432 92.8356ZM109.547 92.8356C109.547 96.1694 112.256 98.8767 115.592 98.8767C118.927 98.8767 121.636 96.1694 121.636 92.8356C121.636 89.5018 118.927 86.7945 115.592 86.7945C112.256 86.7945 109.547 89.5018 109.547 92.8356Z" fill="white"/>
<path d="M109.186 89.4594C108.995 89.332 105.542 87.1131 101.675 86.3805C101.272 86.3062 100.889 86.6141 100.889 87.0281C100.889 87.3466 101.112 87.6121 101.42 87.6758C105.053 88.3659 108.421 90.5318 108.464 90.5636C108.57 90.6379 108.697 90.6698 108.825 90.6698C109.037 90.6698 109.25 90.5636 109.377 90.3725C109.579 90.0646 109.494 89.6612 109.186 89.4594Z" fill="white"/>
<path d="M141.289 89.6291C141.481 89.5017 144.933 87.2827 148.8 86.5502C149.204 86.4758 149.586 86.7837 149.586 87.1978C149.586 87.5163 149.363 87.7818 149.055 87.8455C145.422 88.5356 142.054 90.7014 142.012 90.7333C141.906 90.8076 141.778 90.8395 141.651 90.8395C141.438 90.8395 141.226 90.7333 141.098 90.5422C140.896 90.2343 140.981 89.8308 141.289 89.6291Z" fill="white"/>
<path d="M122.359 91.2217C122.359 91.2217 123.697 89.4168 125.439 89.4168C127.182 89.4168 128.361 91.2111 128.371 91.2217L129.306 90.6165C129.242 90.521 127.776 88.302 125.439 88.302C123.102 88.302 121.519 90.4785 121.456 90.5741L122.359 91.2217Z" fill="white"/>
<path d="M176.261 207.755C172.352 218.935 154.855 218.117 134.916 212.012C134.884 212.012 134.863 211.991 134.831 211.991C134.767 211.97 134.703 211.949 134.639 211.938L131.899 211.067C131.516 210.94 131.144 210.823 130.762 210.685C128.616 209.963 126.449 209.188 124.282 208.36C117.164 205.653 109.983 202.457 103.216 199.038L103.258 198.921L105.298 193.634L105.999 191.829C105.999 191.829 142.957 195.853 161.538 191.967C161.856 191.904 162.164 191.84 162.462 191.766C162.387 191.351 162.366 190.937 162.249 190.545C152.402 157.048 163.174 150.624 166.775 145.953C166.775 145.953 183.645 186.659 176.272 207.766L176.261 207.755Z" fill="#73A648"/>
<path d="M170.238 197.382C170.132 197.435 170.004 197.456 169.898 197.456C169.611 197.456 169.324 197.297 169.186 197.01C167.773 194.133 163.003 192.413 161.527 191.946C161.846 191.882 162.154 191.819 162.451 191.744C162.377 191.33 162.302 190.927 162.239 190.523C164.108 191.139 168.984 193.018 170.599 196.331C170.79 196.724 170.631 197.191 170.238 197.382Z" fill="#5F893B"/>
<path d="M118.481 195.981C110.939 195.981 104.82 195.545 104.278 195.513C103.843 195.482 103.513 195.099 103.545 194.675C103.577 194.239 103.949 193.921 104.384 193.942C104.661 193.963 132.387 195.917 143.308 191.49C143.712 191.33 144.168 191.521 144.338 191.925C144.498 192.328 144.307 192.785 143.903 192.955C137.858 195.407 127.214 195.991 118.471 195.991L118.481 195.981Z" fill="#5F893B"/>
<path d="M131.898 211.046C138.219 209.305 143.966 207.606 147.292 206.544C151.902 205.069 155.716 200.408 157.447 196.448C157.617 196.044 158.085 195.864 158.488 196.044C158.892 196.214 159.073 196.681 158.892 197.085C157.012 201.363 152.848 206.417 147.77 208.041C145.358 208.816 141.682 209.921 137.433 211.131C135.617 211.651 133.694 211.619 131.898 211.046Z" fill="#5F893B"/>
<path d="M148.949 205.631C91.8381 224.859 74.2672 212.278 74.2672 212.278C70.4216 177.528 84.593 146.282 84.593 146.282C88.7786 153.183 93.5165 165.223 93.5165 165.223L94.7701 191.861L94.6745 192.604L94.632 192.955L94.3983 194.781V194.813C94.5151 194.834 94.632 194.866 94.7595 194.887C112.033 198.529 143.626 194.462 143.626 194.462L148.959 205.642L148.949 205.631Z" fill="#73A648"/>
<path d="M94.7487 194.876C91.668 197.456 88.736 200.44 86.1226 203.858C85.8571 204.209 85.3684 204.273 85.0178 204.007C84.6673 203.742 84.6035 203.253 84.8691 202.903C87.8011 199.049 91.1262 195.758 94.6213 192.944L94.3875 194.77V194.802C94.5044 194.823 94.6213 194.855 94.7487 194.876Z" fill="#5F893B"/>
<path d="M143.616 194.452C143.616 194.452 149.937 180.097 159.551 181.371L162.451 191.755C157.192 193.984 156.417 203.009 148.949 205.631L143.616 194.452Z" fill="#FDBEAB"/>
<path d="M105.999 191.819C105.999 191.819 102.005 182.454 91.4983 179.737C80.9919 177.019 74.2993 181.966 73.5875 183.835C72.8864 185.703 77.55 183.92 77.55 183.92C77.55 183.92 74.5117 184.78 72.7695 187.636C71.0273 190.492 77.0188 187.413 77.0188 187.413C77.0188 187.413 72.727 189.292 72.1746 191.033C71.6328 192.774 77.295 189.833 78.3574 189.886C78.3574 189.886 73.3007 191.893 73.3326 193.698C73.3644 195.492 79.1435 192.562 83.4565 192.796C87.7696 193.029 94.3879 194.813 94.3879 194.813C97.9148 195.482 101.293 195.981 104.342 196.119L105.999 191.819Z" fill="#FDBEAB"/>
<path d="M306.513 210.961H182.199C177.946 210.961 174.498 214.408 174.498 218.659V281.618C174.498 285.869 177.946 289.315 182.199 289.315H306.513C310.766 289.315 314.215 285.869 314.215 281.618V218.659C314.215 214.408 310.766 210.961 306.513 210.961Z" fill="#699A41"/>
<path d="M306.513 215.187H182.199C177.946 215.187 174.498 218.633 174.498 222.884V281.618C174.498 285.869 177.946 289.315 182.199 289.315H306.513C310.766 289.315 314.215 285.869 314.215 281.618V222.884C314.215 218.633 310.766 215.187 306.513 215.187Z" fill="#497624"/>
<path d="M255.181 289.23H233.542V313.883H255.181V289.23Z" fill="#497624"/>
<path d="M254.852 251.094C254.852 257.018 250.039 261.828 244.112 261.828C238.184 261.828 233.372 257.018 233.372 251.094C233.372 245.17 238.184 240.36 244.112 240.36C250.039 240.36 254.852 245.17 254.852 251.094Z" fill="#5F893B"/>
<path d="M222.6 305.135H265.433C269.013 305.135 271.924 308.044 271.924 311.622V313.884H216.109V311.622C216.109 308.044 219.02 305.135 222.6 305.135Z" fill="#73A648"/>
<path d="M68.5839 315.179H50.3013C47.8155 315.179 45.6058 313.576 44.841 311.219L37.086 287.362C36.7673 286.385 37.4472 285.377 38.4776 285.292C52.5959 284.198 66.5761 284.198 80.4183 285.292C81.4381 285.377 82.118 286.385 81.7993 287.362L74.0443 311.219C73.2794 313.586 71.0698 315.179 68.5839 315.179Z" fill="#73A648"/>
<path d="M59.5754 288.169C70.9575 288.169 80.1846 287.655 80.1846 287.022C80.1846 286.389 70.9575 285.875 59.5754 285.875C48.1933 285.875 38.9663 286.389 38.9663 287.022C38.9663 287.655 48.1933 288.169 59.5754 288.169Z" fill="#01305A"/>
<path d="M60.4144 287.022V257.263C60.4144 256.732 59.9788 256.296 59.4477 256.296C58.9165 256.296 58.481 256.732 58.481 257.263V287.022C59.1184 287.404 59.7664 287.394 60.4144 287.022Z" fill="#497624"/>
<path d="M59.4478 264.27C59.4478 264.27 61.275 251.073 78.1872 251.073C78.1872 251.073 75.287 269.738 59.4478 264.27Z" fill="#497624"/>
<path d="M60.3083 268.325C60.3083 268.325 58.4811 255.128 41.5688 255.128C41.5688 255.128 44.469 273.793 60.3083 268.325Z" fill="#497624"/>
<path d="M60.4996 280.047C60.4996 280.047 56.1653 267.444 39.5718 270.682C39.5718 270.682 45.9989 288.445 60.4996 280.047Z" fill="#497624"/>
<path d="M59.4375 279.941C59.4375 279.941 71.8667 284.771 80.0997 270.014C80.0997 270.014 62.3695 263.452 59.4375 279.941Z" fill="#497624"/>
</g>
<defs>
<clipPath id="clip0_83_5111">
<rect width="496" height="330" fill="white"/>
</clipPath>
</defs>
</svg>
