<svg width="1440" height="1463" viewBox="0 0 1440 1463" fill="none" xmlns="http://www.w3.org/2000/svg">
<path d="M0 0H1440V1463H0V0Z" fill="#263238"/>
<path d="M1224.06 833.222L733.662 871.298L1201.3 718.81L1159.72 618.426L721.226 841.27L1094.92 521.434L1018.08 444.596L698.243 818.287L921.087 379.789L820.703 338.211L668.215 805.852L706.291 315.455H597.633L635.716 805.852L483.227 338.211L382.837 379.789L605.688 818.287L285.852 444.596L209.014 521.434L582.705 841.27L144.206 618.426L102.629 718.81L570.269 871.298L79.8657 833.222V941.88L570.269 903.798L102.629 1056.29L144.206 1156.68L582.705 933.826L209.014 1253.66L285.852 1330.5L605.688 956.809L382.837 1395.31L483.227 1436.88L635.716 969.244L597.633 1459.64H706.291L668.215 969.244L820.703 1436.88L921.087 1395.31L698.243 956.809L1018.08 1330.5L1094.92 1253.66L721.226 933.826L1159.72 1156.68L1201.3 1056.29L733.662 903.798L1224.06 941.88V833.222Z" fill="#515151" fill-opacity="0.1"/>
<path d="M885.162 574.229C890.127 562.444 884.6 548.866 872.816 543.9C861.031 538.934 847.453 544.462 842.487 556.246C837.521 568.03 843.049 581.609 854.833 586.575C866.617 591.541 880.196 586.013 885.162 574.229Z" fill="#515151" fill-opacity="0.1"/>
<path d="M866.435 356.861C822.729 356.318 786.857 391.318 786.315 435.024V435.093C786.274 438.801 789.288 441.822 792.996 441.863L827.378 442.289C831.168 442.337 834.23 439.288 834.292 435.498C834.292 435.093 834.313 434.688 834.334 434.283C835.206 418.18 848.486 405.271 864.602 404.845C882.393 404.378 896.848 418.764 896.628 436.391C896.525 444.94 892.989 452.644 887.344 458.199C881.624 463.837 873.741 467.277 865.069 467.167C864.973 467.167 864.87 467.167 864.773 467.167C851.528 466.879 840.548 477.323 840.383 490.569L840.129 511.018L839.985 522.444C839.937 526.214 842.958 529.31 846.728 529.358L879.619 529.764C883.389 529.812 886.486 526.79 886.534 523.021L886.664 512.281C919.714 503.107 944.145 473.004 944.592 436.988C945.134 393.282 910.142 357.403 866.428 356.861H866.435Z" fill="#515151" fill-opacity="0.1"/>
<path d="M1095.35 1033.51C1098.39 1024.28 1093.37 1014.33 1084.14 1011.29C1074.91 1008.25 1064.96 1013.27 1061.92 1022.5C1058.88 1031.73 1063.9 1041.68 1073.13 1044.72C1082.36 1047.76 1092.31 1042.74 1095.35 1033.51Z" fill="#515151" fill-opacity="0.1"/>
<path d="M1089.96 869.938C1056.83 867.549 1028.04 892.468 1025.65 925.599C1025.65 925.62 1025.65 925.634 1025.65 925.654C1025.45 928.463 1027.6 930.894 1030.4 931.093L1056.46 932.974C1059.34 933.18 1061.8 931.01 1062.02 928.133C1062.04 927.831 1062.07 927.522 1062.11 927.213C1063.5 915.038 1074.16 905.844 1086.4 906.256C1099.92 906.709 1110.23 918.273 1109.27 931.635C1108.8 938.111 1105.77 943.803 1101.23 947.758C1096.64 951.775 1090.5 954.027 1083.93 953.554C1083.85 953.554 1083.78 953.54 1083.7 953.533C1073.67 952.716 1064.87 960.139 1064.14 970.178L1063.02 985.676L1062.4 994.342C1062.19 997.198 1064.34 999.684 1067.2 999.89L1092.14 1001.69C1094.99 1001.9 1097.48 999.746 1097.68 996.882L1098.27 988.739C1123.76 983.28 1143.66 961.553 1145.63 934.251C1148.02 901.12 1123.1 872.321 1089.97 869.931L1089.96 869.938Z" fill="#515151" fill-opacity="0.1"/>
<path d="M1132.05 718.24C1133.19 711.018 1128.26 704.238 1121.04 703.095C1113.82 701.953 1107.03 706.881 1105.89 714.103C1104.75 721.325 1109.68 728.105 1116.9 729.248C1124.12 730.39 1130.9 725.462 1132.05 718.24Z" fill="#515151" fill-opacity="0.1"/>
<path d="M1131.78 597.661C1106.93 594.956 1084.6 612.905 1081.9 637.749C1081.9 637.762 1081.9 637.776 1081.9 637.79C1081.67 639.898 1083.22 641.779 1085.32 642.013L1104.87 644.142C1107.02 644.375 1108.93 642.809 1109.17 640.653C1109.2 640.427 1109.23 640.193 1109.26 639.967C1110.64 630.855 1118.91 624.228 1128.1 624.874C1138.25 625.581 1145.69 634.563 1144.6 644.581C1144.07 649.436 1141.63 653.631 1138.11 656.481C1134.55 659.372 1129.87 660.903 1124.94 660.361C1124.89 660.361 1124.83 660.347 1124.77 660.34C1117.25 659.447 1110.43 664.79 1109.61 672.316L1108.35 683.941L1107.64 690.437C1107.41 692.579 1108.96 694.509 1111.1 694.742L1129.8 696.775C1131.94 697.008 1133.87 695.456 1134.1 693.314L1134.77 687.209C1154.08 683.803 1169.63 668.01 1171.86 647.541C1174.57 622.697 1156.63 600.36 1131.78 597.654V597.661Z" fill="#515151" fill-opacity="0.1"/>
<path d="M508.574 708.057C508.574 708.057 498.287 764.02 537.736 768.023L508.574 708.057Z" fill="#112E4C"/>
<path d="M682.843 1076.43C682.843 1076.43 676.23 1126.94 705.654 1135.35L682.843 1076.43Z" fill="#112E4C"/>
<path d="M666.59 1254.04C666.59 1254.04 663.163 1298.24 686.29 1335.1L666.59 1254.04Z" fill="#112E4C"/>
<path d="M841.195 1215.3C841.195 1215.3 861.26 1248.59 855.382 1299.72L841.195 1215.3Z" fill="#112E4C"/>
<path d="M764.323 1378.33C815.156 1378.33 856.364 1337.12 856.364 1286.29C856.364 1235.46 815.156 1194.25 764.323 1194.25C713.49 1194.25 672.282 1235.46 672.282 1286.29C672.282 1337.12 713.49 1378.33 764.323 1378.33Z" fill="#112E4C"/>
<path d="M864.713 463.933C692.25 442.88 535.367 565.642 514.314 738.106C514.3 738.195 514.293 738.284 514.28 738.373C512.508 752.999 523.117 766.238 537.736 768.024L673.401 784.586C688.363 786.413 701.774 775.687 703.656 760.731C703.855 759.145 704.088 757.552 704.349 755.959C714.766 692.724 772.824 647.438 836.697 652.739C907.204 658.59 958.079 721.694 949.585 791.24C945.465 824.962 928.161 853.884 903.455 873.399C878.412 893.196 845.768 903.379 811.565 899.204C811.174 899.156 810.789 899.108 810.398 899.053C758.198 892.187 710.282 928.69 703.903 980.952L694.049 1061.64L688.542 1106.74C686.722 1121.63 697.318 1135.17 712.205 1136.98L841.985 1152.82C856.872 1154.64 870.413 1144.05 872.225 1129.16L877.403 1086.77C1011.94 1064.84 1121.52 956.472 1138.87 814.339C1159.92 641.876 1037.19 484.98 864.706 463.92L864.713 463.933Z" fill="#112E4C"/>
<path d="M823.703 1321.06C859.647 1285.11 859.647 1226.84 823.703 1190.89C787.759 1154.95 729.482 1154.95 693.538 1190.89C657.594 1226.84 657.594 1285.11 693.538 1321.06C729.482 1357 787.759 1357 823.703 1321.06Z" fill="#1F4168"/>
<path d="M859.007 433.617C686.544 412.563 529.661 535.326 508.608 707.789C508.594 707.878 508.587 707.967 508.574 708.057C506.802 722.683 517.411 735.922 532.03 737.707L667.695 754.269C682.657 756.096 696.068 745.37 697.949 730.415C698.149 728.828 698.382 727.235 698.643 725.642C709.06 662.407 767.117 617.121 830.991 622.423C901.498 628.273 952.373 691.378 943.879 760.923C939.759 794.645 922.455 823.568 897.749 843.083C872.706 862.879 840.062 873.063 805.859 868.888C805.468 868.84 805.083 868.792 804.692 868.737C752.491 861.87 704.576 898.373 698.197 950.635L688.343 1031.33L682.836 1076.43C681.016 1091.31 691.612 1104.85 706.498 1106.67L836.278 1122.51C851.165 1124.33 864.706 1113.73 866.519 1098.85L871.697 1056.46C1006.24 1034.52 1115.81 926.156 1133.17 784.023C1154.22 611.559 1031.48 454.663 859 433.603L859.007 433.617Z" fill="#1F4168"/>
<g style="mix-blend-mode:screen" opacity="0.25">
<path d="M1013.31 544.987C1005.53 537.571 997.391 530.56 988.911 524.037C980.341 517.616 971.47 511.663 962.296 506.252C953.046 500.958 943.55 496.179 933.813 491.997C924.014 487.946 914.03 484.423 903.874 481.56C901.327 480.873 898.758 480.262 896.211 479.609C894.934 479.3 893.663 478.937 892.372 478.669L888.5 477.879L884.634 477.083L882.704 476.684C882.059 476.554 881.406 476.471 880.754 476.362L872.967 475.119C871.676 474.885 870.365 474.775 869.06 474.617L865.146 474.171L861.232 473.725C859.927 473.601 858.616 473.532 857.304 473.436C854.688 473.272 852.072 473.038 849.456 472.928L841.6 472.722C840.948 472.708 840.296 472.681 839.636 472.674L837.673 472.708L833.752 472.777L829.831 472.839C828.526 472.88 827.221 472.99 825.917 473.059L822.01 473.292C820.705 473.388 819.4 473.409 818.109 473.567L810.323 474.37C799.975 475.661 789.716 477.508 779.629 480.035C769.562 482.638 759.66 485.817 749.978 489.546C740.331 493.37 730.93 497.772 721.784 502.64L715 506.431C713.86 507.042 712.775 507.749 711.662 508.415L708.346 510.441C707.247 511.121 706.128 511.773 705.043 512.473L701.809 514.623L698.574 516.765L696.961 517.836L695.381 518.969L689.078 523.501C687.011 525.06 684.985 526.674 682.939 528.253C681.93 529.056 680.879 529.812 679.897 530.656L676.924 533.149C674.953 534.824 672.927 536.424 671.032 538.196C640.029 565.614 615.275 599.742 598.053 637.083C592.903 648.241 579.685 653.116 568.527 647.966C557.368 642.816 552.493 629.598 557.643 618.44C557.815 618.062 558 617.698 558.185 617.341L558.247 617.224C580.378 575.791 610.715 538.793 647.514 509.898C649.766 508.037 652.163 506.348 654.49 504.59L658.006 501.981C659.167 501.095 660.403 500.306 661.597 499.468C664.008 497.82 666.397 496.138 668.828 494.524L676.23 489.827L678.084 488.66L679.979 487.554L683.763 485.35L687.547 483.146C688.817 482.432 690.122 481.759 691.406 481.072L695.272 479.012C696.562 478.339 697.833 477.618 699.158 477L707.034 473.182C717.636 468.293 728.486 463.974 739.555 460.321C750.658 456.764 761.954 453.853 773.373 451.614C784.806 449.451 796.37 448.057 807.94 447.295L816.633 446.91C818.082 446.821 819.531 446.876 820.98 446.855H825.326C826.775 446.855 828.224 446.828 829.666 446.855L834.006 447.034L838.339 447.213L840.502 447.302C841.223 447.343 841.944 447.419 842.665 447.473L851.303 448.208C854.173 448.497 857.036 448.915 859.893 449.273C861.321 449.465 862.756 449.623 864.178 449.842L868.442 450.577L872.699 451.319C874.114 451.573 875.542 451.786 876.943 452.122L885.375 453.976C886.076 454.134 886.783 454.271 887.476 454.457L889.564 455.013L893.732 456.125L897.893 457.238C899.28 457.616 900.64 458.082 902.013 458.501C904.753 459.373 907.5 460.204 910.219 461.111C921.075 464.867 931.65 469.303 941.936 474.288C952.167 479.403 962.048 485.123 971.579 491.345C981.035 497.683 990.092 504.556 998.744 511.869C1007.31 519.285 1015.44 527.161 1023.14 535.401C1025.73 538.175 1025.59 542.522 1022.81 545.111C1020.14 547.603 1016.01 547.562 1013.4 545.083L1013.31 544.994V544.987Z" fill="white"/>
</g>
<g style="mix-blend-mode:screen" opacity="0.25">
<path d="M679.395 1246.3C681.043 1236.01 684.717 1226.06 690.135 1217.28C695.539 1208.5 702.653 1200.88 710.872 1194.94C719.092 1189.01 728.43 1184.73 738.167 1182.43C747.904 1180.11 758.026 1179.79 767.728 1181.37C771.333 1181.95 773.785 1185.35 773.201 1188.96C772.652 1192.36 769.589 1194.74 766.218 1194.5H766.128C758.012 1193.89 749.895 1194.9 742.342 1197.41C734.789 1199.91 727.805 1203.91 721.886 1209.02C715.974 1214.14 711.133 1220.38 707.72 1227.22C704.294 1234.07 702.289 1241.51 701.753 1249.03C701.314 1255.24 695.923 1259.92 689.709 1259.48C683.502 1259.04 678.825 1253.65 679.265 1247.43C679.286 1247.11 679.327 1246.79 679.375 1246.47L679.402 1246.3H679.395Z" fill="white"/>
</g>
<path d="M1083.61 1458.62H215.695V1460.68H1083.61V1458.62Z" fill="#1B1A2E"/>
<path d="M168.864 967.694C196.237 940.32 196.237 895.938 168.864 868.565C141.49 841.191 97.1083 841.191 69.7345 868.565C42.3607 895.938 42.3607 940.32 69.7345 967.694C97.1083 995.068 141.49 995.068 168.864 967.694Z" fill="#5A5A5A"/>
<path d="M45.524 965.843C47.4773 959.219 43.691 952.265 37.0671 950.312C30.4432 948.359 23.49 952.145 21.5368 958.769C19.5835 965.393 23.3697 972.346 29.9936 974.299C36.6175 976.253 43.5707 972.466 45.524 965.843Z" fill="#5A5A5A"/>
<path d="M119.342 988.575C115.682 988.575 111.974 988.286 108.252 987.696C69.8948 981.605 43.6435 945.438 49.7411 907.081C55.8318 868.724 91.9986 842.473 130.356 848.57C168.713 854.661 194.964 890.828 188.867 929.185C183.367 963.813 153.352 988.575 119.342 988.575ZM119.259 848.371C85.5783 848.371 55.8594 872.892 50.4141 907.184C44.3783 945.17 70.3755 980.98 108.355 987.016C112.042 987.6 115.716 987.888 119.342 987.888C153.023 987.888 182.742 963.367 188.187 929.075C194.223 891.089 168.225 855.279 130.246 849.243C126.559 848.659 122.885 848.371 119.259 848.371Z" fill="#1F4168"/>
<path d="M33.5011 975.116C32.835 975.116 32.1552 975.061 31.4754 974.958C24.4782 973.846 19.6922 967.247 20.8046 960.257C21.3402 956.864 23.1667 953.891 25.9478 951.872C28.7219 949.854 32.1208 949.043 35.513 949.579C38.9051 950.115 41.8784 951.941 43.8972 954.722C45.916 957.496 46.7263 960.895 46.1907 964.287C45.1881 970.605 39.7154 975.123 33.508 975.123L33.5011 975.116ZM33.4667 950.101C30.9192 950.101 28.4472 950.897 26.346 952.422C23.7161 954.331 21.9857 957.146 21.4775 960.353C20.4269 966.972 24.9589 973.221 31.5784 974.271C38.2116 975.322 44.4465 970.79 45.4971 964.171C46.0053 960.964 45.2362 957.75 43.3272 955.12C41.4183 952.49 38.603 950.76 35.3963 950.252C34.7508 950.149 34.1053 950.101 33.4598 950.101H33.4667Z" fill="#1F4168"/>
<path d="M144.927 918.13C144.927 922.428 148.416 925.916 152.714 925.916C157.013 925.916 160.501 922.428 160.501 918.13C160.501 913.831 157.013 910.343 152.714 910.343C148.416 910.343 144.927 913.831 144.927 918.13Z" fill="#73A648"/>
<path d="M122.279 925.319C126.252 923.673 128.139 919.118 126.493 915.145C124.847 911.172 120.292 909.285 116.319 910.931C112.346 912.576 110.459 917.131 112.105 921.104C113.751 925.078 118.306 926.964 122.279 925.319Z" fill="#73A648"/>
<path d="M91.382 923.639C94.423 920.598 94.423 915.668 91.3821 912.627C88.3411 909.586 83.4108 909.586 80.3699 912.627C77.3289 915.668 77.3289 920.598 80.3699 923.639C83.4108 926.68 88.3411 926.68 91.382 923.639Z" fill="#73A648"/>
<g clip-path="url(#clip0_250_316)">
<path d="M260.072 1461.86L273.335 1309.28H586.808L604.102 1461.86H260.072Z" fill="#01305A" stroke="#263238" stroke-miterlimit="10"/>
<path d="M452.096 846.857C452.096 846.857 543.767 872.022 583.807 902.362C623.847 932.702 651.61 963.683 645.15 1022.42C638.691 1081.15 596.726 1241.85 596.726 1241.85C596.726 1241.85 602.544 1307.04 602.544 1310.91C602.544 1314.78 603.186 1325.75 588.984 1326.39C574.782 1327.03 404.336 1334.13 366.243 1334.77C328.15 1335.41 277.802 1331.54 271.984 1327.03C266.165 1322.52 262.936 1315.42 262.294 1307.66C261.653 1299.92 255.193 1205.03 255.193 1205.03L254.552 1162.44C254.552 1162.44 212.588 1023.03 209.999 977.857C207.411 932.679 224.201 917.841 242.916 903.644C261.63 889.447 319.904 865.404 351.377 855.878C382.873 846.353 452.096 846.834 452.096 846.834V846.857Z" fill="#73A649" stroke="#263238" stroke-miterlimit="10"/>
<path d="M429.488 1063.47C434.161 1126.33 442.43 1242.19 441.697 1262.02C440.689 1289.5 451.867 1297.63 451.867 1307.8" stroke="#263238" stroke-miterlimit="10"/>
<path d="M426.418 1022.92C426.418 1022.92 427.243 1033.64 428.502 1050.54" stroke="#263238" stroke-miterlimit="10"/>
<path d="M385.507 1103.66L379.643 1172.81L346.819 1170.48L385.507 1103.66Z" fill="#263238" stroke="#263238" stroke-miterlimit="10"/>
<path d="M416.614 1224.24C416.614 1224.24 336.396 1211.65 330.418 1212.98C324.439 1214.3 283.345 1234.18 277.367 1235.51C271.388 1236.84 266.097 1239.49 266.097 1239.49L257.095 1247.02L260.118 1224.26C260.118 1224.26 272.053 1209.68 298.578 1199.08C325.104 1188.47 338.366 1194.43 344.322 1196.42C350.301 1198.41 416.591 1224.26 416.591 1224.26L416.614 1224.24Z" fill="#263238" stroke="#263238" stroke-miterlimit="10"/>
<path d="M539.896 1163.77L331.357 1163.13C331.357 1163.13 264.218 1156.67 261.63 1156.03C259.042 1155.39 232.585 1162.48 229.996 1164.41C227.408 1166.35 227.408 1172.15 228.714 1177.96L229.996 1183.78C229.996 1183.78 228.049 1194.11 228.049 1198.62C228.049 1203.13 233.203 1204.43 233.867 1206.36C234.509 1208.3 229.996 1215.4 235.15 1219.91L240.304 1224.42C240.304 1224.42 240.946 1236.7 243.534 1239.9C246.122 1243.11 253.865 1248.95 257.094 1247C260.324 1245.06 259.042 1239.9 259.042 1236.67C259.042 1233.45 260.324 1230.22 264.195 1230.22C268.067 1230.22 268.708 1233.45 288.728 1228.27C308.748 1223.12 330.692 1205.67 332.639 1205.03C334.586 1204.39 509.545 1251.49 561.198 1257.95C612.852 1264.4 617.365 1257.31 619.312 1248.9C621.259 1240.52 624.466 1220.51 624.466 1220.51L633.514 1181.15L539.896 1163.72V1163.77Z" fill="white" stroke="#263238" stroke-miterlimit="10"/>
<path d="M404.359 922.512C404.359 922.512 393.593 911.177 386.79 916.284C379.987 921.39 373.757 948.593 365.258 946.326C356.76 944.059 339.741 891.371 339.741 870.396C339.741 849.421 354.469 836.965 357.882 835.82C361.273 834.698 448.019 833.553 458.212 837.514C468.405 841.475 472.391 877.174 476.354 898.721C480.317 920.245 471.246 925.351 465.588 922.512C459.93 919.673 437.803 910.605 432.717 910.605C427.632 910.605 404.382 922.512 404.382 922.512H404.359Z" fill="#73A649" stroke="#263238" stroke-miterlimit="10"/>
<path d="M346.292 803.052C346.292 803.052 354.423 843.216 357.585 853.13C360.746 863.045 383.766 893.294 389.63 899.591C395.494 905.888 412.651 937.029 417.164 937.945C421.676 938.838 434.321 896.431 434.321 896.431C434.321 896.431 450.561 868.449 453.722 861.236C456.883 854.023 461.854 832.82 461.854 832.82C461.854 832.82 435.214 855.832 406.787 850.864C378.361 845.895 363.907 817.478 363.907 817.478L346.315 803.029L346.292 803.052Z" fill="white" stroke="#263238" stroke-miterlimit="10"/>
<path d="M456.517 723.046C456.517 723.046 464.442 714.551 468.978 727.58C473.513 740.609 464.442 763.851 464.442 763.851L456.517 723.046Z" fill="white" stroke="#263238" stroke-miterlimit="10"/>
<path d="M455.074 696.576C455.074 696.576 468.153 789.52 468.153 794.924C468.153 800.327 471.772 818.394 466.344 830.118C460.938 841.842 444.674 856.291 431.595 858.1C418.515 859.908 392.769 857.207 378.338 845.918C363.884 834.629 347.185 810.265 347.185 810.265C347.185 810.265 329.135 807.563 317.407 802.594C305.679 797.626 296.654 786.36 297.089 774.613C297.547 762.889 304.763 753.867 304.763 753.867L311.543 741.227L293.493 707.384C293.493 707.384 303.869 687.989 337.267 669.487C370.664 650.986 400.465 645.124 414.438 645.124C428.411 645.124 446.026 650.986 450.996 662.274C455.967 673.563 455.051 696.553 455.051 696.553L455.074 696.576Z" fill="white" stroke="#263238" stroke-miterlimit="10"/>
<path d="M412.193 651.009C412.193 651.009 386.469 693.416 367.068 691.607C347.666 689.798 341.802 680.776 341.802 680.776L328.723 698.362C328.723 698.362 342.718 704.224 340.015 711.437C337.313 718.65 325.126 734.907 325.126 734.907L335.045 777.315C335.045 777.315 327.371 778.666 326.02 775.964C324.668 773.262 317.888 756.569 317.888 756.569C317.888 756.569 315.185 754.76 312.024 753.867C308.863 752.974 304.808 753.867 304.808 753.867C304.808 753.867 299.838 737.174 298.028 736.716C296.219 736.258 278.168 731.312 271.388 713.704C264.608 696.118 275.007 668.136 298.463 646.017C321.919 623.897 371.58 618.035 374.283 613.982C376.986 609.929 361.639 615.791 364.8 606.769C367.961 597.748 387.821 586.024 413.087 598.641C438.352 611.28 434.756 625.271 432.053 629.782L429.35 634.293C429.35 634.293 450.561 627.08 465.45 636.102C480.339 645.124 487.555 663.168 480.798 664.977C474.017 666.785 465.45 662.71 465.45 662.71C465.45 662.71 474.475 677.593 471.772 680.753C469.07 683.913 455.074 696.553 455.074 696.553C455.074 696.553 449.668 664.977 438.375 660.466C427.082 655.955 412.193 650.986 412.193 650.986V651.009Z" fill="#01305A" stroke="#263238" stroke-miterlimit="10"/>
<path d="M420.325 711.918L416.248 725.015L439.269 768.316L414.896 777.796" stroke="#263238" stroke-miterlimit="10"/>
<path d="M424.838 706.949C424.838 706.949 435.672 698.385 444.697 700.629C453.722 702.896 448.317 704.247 441.994 706.491C435.672 708.735 423.028 714.62 424.838 706.949Z" fill="#263238" stroke="#263238" stroke-miterlimit="10"/>
<path d="M391.44 705.163C391.44 705.163 401.817 707.865 396.846 710.132C391.875 712.399 376.986 707.865 371.122 710.132C365.258 712.399 357.585 720.046 358.043 716.451C358.501 712.834 362.097 705.621 370.229 702.919C378.361 700.217 391.44 705.186 391.44 705.186V705.163Z" fill="#263238" stroke="#263238" stroke-miterlimit="10"/>
<path d="M430.793 726.985C431.595 730.259 433.794 732.526 435.741 732.068C437.688 731.61 438.604 728.565 437.826 725.29C437.024 722.016 434.825 719.749 432.878 720.207C430.931 720.665 430.014 723.71 430.793 726.985Z" fill="#263238"/>
<path d="M381.613 739.831C382.415 743.105 384.614 745.372 386.561 744.914C388.508 744.456 389.424 741.411 388.645 738.136C387.844 734.862 385.645 732.595 383.698 733.053C381.751 733.511 380.834 736.556 381.613 739.831Z" fill="#263238"/>
<path d="M453.264 783.2L434.756 795.382" stroke="#263238" stroke-miterlimit="10"/>
<path d="M262.913 892.676C262.913 892.676 199.004 917.2 186.726 953.997C174.449 990.794 189.956 1037.25 196.416 1056.63C202.875 1076 242.893 1151.49 249.352 1169.58C255.812 1187.65 265.501 1209.61 265.501 1209.61C265.501 1209.61 274.549 1155.39 299.082 1121.84C323.614 1088.27 329.433 1057.95 329.433 1057.95C329.433 1057.95 284.88 979.208 273.266 954.684" fill="#73A649"/>
<path d="M262.913 892.676C262.913 892.676 199.004 917.2 186.726 953.997C174.449 990.794 189.956 1037.25 196.416 1056.63C202.875 1076 242.893 1151.49 249.352 1169.58C255.812 1187.65 265.501 1209.61 265.501 1209.61C265.501 1209.61 274.549 1155.39 299.082 1121.84C323.614 1088.27 329.433 1057.95 329.433 1057.95C329.433 1057.95 284.88 979.208 273.266 954.684" stroke="#263238" stroke-miterlimit="10"/>
<path d="M322.652 1044.26C322.652 1044.26 309.573 1037.74 305.221 1039.91C300.868 1042.09 244.908 1071.88 237.647 1106C230.386 1140.14 241.289 1169.19 247.817 1181.54C254.346 1193.88 266.715 1217.85 276.153 1220.76C285.59 1223.67 293.584 1145.95 313.215 1105.29C332.823 1064.62 322.652 1044.28 322.652 1044.28V1044.26Z" fill="#73A649" stroke="#263238" stroke-miterlimit="10"/>
<path d="M301.006 1006.91C301.006 1006.91 289.392 967.553 284.857 952.051" stroke="#263238" stroke-miterlimit="10"/>
<path d="M417.622 867.121C417.622 867.121 435.672 841.865 449.668 825.172C463.664 808.479 478.095 798.541 483.065 799.915C488.036 801.289 489.846 806.235 486.685 812.097C483.524 817.959 468.634 831.057 465.931 834.652C463.229 838.247 459.151 851.345 459.151 851.345C459.151 851.345 472.231 852.238 474.498 854.962C476.766 857.664 479.904 864.877 479.904 864.877C479.904 864.877 484.417 867.144 486.685 870.739C488.952 874.357 488.952 875.25 489.388 877.059C489.846 878.868 496.168 882.028 495.71 890.134C495.252 898.263 487.578 909.987 484.875 915.391C482.172 920.795 462.312 944.723 458.693 948.776C455.074 952.829 434.321 988.939 428.915 1001.12C423.509 1013.3 371.145 1154.52 355.798 1175.72C340.451 1196.92 312.024 1217.23 296.677 1224.45C281.33 1231.66 270.495 1219.48 263.279 1204.14C256.064 1188.79 249.742 1158.11 263.738 1122.92C277.733 1087.72 305.267 1057.5 326.478 1039.45C347.689 1021.41 387.409 976.277 391.921 968.171C396.434 960.065 402.298 941.998 402.298 941.998C402.298 941.998 390.57 907.72 389.654 899.591C388.76 891.462 393.273 877.036 391.921 870.716C390.57 864.396 385.141 851.757 382.896 846.353C380.628 840.949 372.978 831.904 377.032 827.851C381.087 823.798 397.785 828.744 403.672 838.224C409.536 847.704 417.668 867.098 417.668 867.098L417.622 867.121Z" fill="white" stroke="#263238" stroke-miterlimit="10"/>
<path d="M557.121 964.828C555.747 957.661 554.762 952.692 554.762 952.692L557.121 964.828Z" fill="#92E3A9"/>
<path d="M557.121 964.828C555.747 957.661 554.762 952.692 554.762 952.692" stroke="#263238" stroke-miterlimit="10"/>
<path d="M561.199 890.752C561.199 890.752 595.421 895.263 630.925 933.343C666.43 971.422 650.945 1061.78 647.716 1080.49C644.486 1099.19 639.332 1156.65 639.332 1156.65L548.302 1126.31C548.302 1126.31 563.146 1024.98 564.451 1015.94C565.093 1011.38 562.619 995.259 560.007 980.444" fill="#73A649"/>
<path d="M561.199 890.752C561.199 890.752 595.421 895.263 630.925 933.343C666.43 971.422 650.945 1061.78 647.716 1080.49C644.486 1099.19 639.332 1156.65 639.332 1156.65L548.302 1126.31C548.302 1126.31 563.146 1024.98 564.451 1015.94C565.093 1011.38 562.619 995.259 560.007 980.444" stroke="#263238" stroke-miterlimit="10"/>
<path d="M648.357 1136.66C648.357 1136.66 639.309 1185.06 634.796 1187.65C630.284 1190.24 559.893 1170.87 552.15 1169.58C544.408 1168.3 539.873 1170.22 539.873 1163.77C539.873 1157.31 546.332 1126.97 550.203 1121.82C554.075 1116.67 638.003 1127.63 645.104 1129.56C652.205 1131.5 648.334 1136.66 648.334 1136.66H648.357Z" fill="#73A649" stroke="#263238" stroke-miterlimit="10"/>
<path d="M596.795 1099.24C570.682 1109.64 550.226 1121.82 550.226 1121.82C550.226 1121.82 572.171 1080.51 581.219 1072.13" stroke="#263238" stroke-miterlimit="10"/>
<path d="M608.981 1094.71C606.393 1095.6 603.827 1096.54 601.307 1097.5" stroke="#263238" stroke-miterlimit="10"/>
<path d="M397.235 1305.99C380.537 1300.03 365.167 1293.49 355.889 1287.03" stroke="#263238" stroke-miterlimit="10"/>
<path d="M475.987 1328.98C475.987 1328.98 440.322 1320.53 406.467 1309.17" stroke="#263238" stroke-miterlimit="10"/>
<path d="M325.951 1284.35C343.497 1293.1 371.283 1305.87 393.983 1311.55" stroke="#263238" stroke-miterlimit="10"/>
<path d="M308.748 1275.42C308.748 1275.42 312.345 1277.41 318.323 1280.48" stroke="#263238" stroke-miterlimit="10"/>
</g>
<defs>
<clipPath id="clip0_250_316">
<rect width="474" height="871" fill="white" transform="matrix(-1 0 0 1 655 592)"/>
</clipPath>
</defs>
</svg>
