<svg width="1344" height="628" viewBox="0 0 1344 628" fill="none" xmlns="http://www.w3.org/2000/svg">
<path d="M0 579.124C0 595.926 0 604.326 3.2698 610.744C6.14601 616.389 10.7354 620.978 16.3803 623.854C22.7976 627.124 31.1984 627.124 48 627.124H1258.72C1286.61 627.124 1300.56 627.124 1308.49 621.278C1315.41 616.182 1319.81 608.362 1320.58 599.803C1321.46 589.986 1314.23 578.064 1299.76 554.221L1040.53 127.084C1035.99 119.605 1033.72 115.865 1030.66 113.022C1027.95 110.503 1024.8 108.508 1021.36 107.137C1017.48 105.589 1013.13 105.14 1004.43 104.241L52.9298 5.99829C34.5952 4.10522 25.4279 3.15869 18.339 6.14935C12.1125 8.77612 6.95526 13.4283 3.70285 19.3521C0 26.0964 0 35.3124 0 53.7445V579.124Z" fill="#73A648"/>
<mask id="mask0_295_317" style="mask-type:alpha" maskUnits="userSpaceOnUse" x="0" y="4" width="1289" height="623">
<path d="M0 582C0 595.978 0 602.967 2.28361 608.481C5.32843 615.831 11.1687 621.672 18.5195 624.716C24.0326 627 31.0218 627 45 627H1232.03C1254.97 627 1266.44 627 1273.43 622.938C1282.75 617.522 1288.44 607.524 1288.35 596.745C1288.28 588.662 1282.44 578.794 1270.74 559.06L1014.43 126.493C1010.68 120.164 1008.8 116.999 1006.37 114.476C1003.12 111.113 999.135 108.555 994.726 107.005C991.419 105.843 987.761 105.456 980.445 104.682L49.7323 6.25922C34.4515 4.64325 26.8111 3.83527 20.7432 5.80365C12.6526 8.42816 6.05637 14.3636 2.59559 22.1333C0 27.9606 0 35.6436 0 51.0096V582Z" fill="#73A648"/>
</mask>
<g mask="url(#mask0_295_317)">
<g opacity="0.6">
<g opacity="0.2">
<path d="M752.924 562.908C732.19 549.746 713.895 534.191 699.259 516.243C718.773 510.26 737.069 501.884 752.924 492.312C774.269 479.15 792.564 462.997 807.2 444.451C816.958 450.433 827.935 455.22 840.741 458.809C857.207 462.997 876.722 465.39 899.896 465.39C1024.91 465.39 1046.26 396.589 1046.26 294.884L1046.26 45.4065L753.534 45.4065L753.534 223.69C753.534 306.849 737.069 367.873 664.498 387.615C659.009 389.41 652.301 390.607 646.203 391.803C643.763 376.847 643.153 361.292 643.153 345.737L643.153 -89.2036L1157.86 -89.2036L1157.86 345.737C1157.86 481.543 1075.53 600.599 900.506 600.599C840.132 600.599 791.344 586.24 752.924 562.908Z" fill="white"/>
</g>
<g opacity="0.4">
<path d="M605.344 529.037C640.104 529.037 671.206 524.25 699.259 515.875C718.774 509.892 737.069 501.516 752.925 491.944C774.269 478.782 792.564 462.629 807.201 444.083C821.227 427.331 832.204 408.187 840.742 387.845C855.378 353.146 862.696 314.857 862.696 274.773L862.696 45.0383L753.535 45.0383L753.535 223.322C753.535 306.481 737.069 367.504 664.498 387.247C659.009 389.042 652.301 390.239 646.203 391.435C634.006 393.23 620.59 394.426 605.344 394.426C480.326 394.426 458.982 325.626 458.982 223.92L458.982 45.0383L642.544 45.0383L642.544 -89.5718L347.991 -89.5718L347.991 274.773C347.991 409.981 430.32 529.037 605.344 529.037Z" fill="white"/>
</g>
</g>
</g>
</svg>
