<svg width="312" height="270" viewBox="0 0 312 270" fill="none" xmlns="http://www.w3.org/2000/svg">
<g clip-path="url(#clip0_20_114)">
<path d="M309.261 71.6645L307.145 69.4638L308.226 68.4242L303.358 63.3614L302.277 64.401L297.409 59.3382L298.491 58.2986L293.623 53.2358L292.542 54.2754L290.108 51.744L290.016 51.6489L289.943 51.5391C289.52 50.9076 289.273 50.2055 289.188 49.498L290.677 49.3179C290.557 48.326 290.896 47.3007 291.621 46.5967L290.576 45.5207C291.087 45.0239 291.724 44.6381 292.464 44.4158M309.261 71.6645L292.897 45.8518M309.261 71.6645L309.177 71.7484L310.09 72.8053C310.234 72.9727 310.339 73.1606 310.405 73.3591L311.828 72.8857C312.086 73.6627 312.036 74.5225 311.679 75.2783L310.322 74.6379C310.231 74.8315 310.101 75.0155 309.929 75.1789L309.928 75.18L308.047 76.9691L309.081 78.0558L305.32 81.634L304.286 80.5473L300.525 84.1255L301.559 85.2122L297.797 88.7904L296.763 87.7036L293.002 91.2818L294.036 92.3686L290.275 95.9468L289.241 94.86L287.36 96.6491L286.972 97.0187L286.906 97.5508C286.842 98.0633 286.863 98.58 286.965 99.0792L288.435 98.7769C288.575 99.4571 288.938 100.081 289.502 100.527L288.572 101.704C288.97 102.019 289.428 102.27 289.937 102.442L289.938 102.443C290.774 102.726 291.591 103.072 292.381 103.481L293.071 102.149C294.746 103.016 296.312 104.147 297.708 105.542L296.648 106.603C297.851 107.806 298.923 109.227 299.814 110.873L301.133 110.159C301.999 111.757 302.703 113.546 303.209 115.526L301.756 115.897C301.973 116.748 302.153 117.64 302.29 118.574L302.292 118.583L302.293 118.592C302.323 118.781 302.344 118.976 302.356 119.174L303.853 119.088C303.881 119.576 303.862 120.071 303.799 120.561L302.311 120.37C302.286 120.569 302.252 120.767 302.209 120.962C302.008 121.862 301.77 122.724 301.498 123.548L302.923 124.018C302.301 125.9 301.51 127.609 300.58 129.143L299.297 128.366C298.346 129.937 297.244 131.307 296.032 132.481L297.075 133.558C295.683 134.906 294.152 136.017 292.533 136.891L291.82 135.571C290.26 136.414 288.612 137.019 286.93 137.388L287.251 138.853C285.397 139.26 283.504 139.401 281.633 139.276L281.733 137.779C279.996 137.664 278.283 137.3 276.651 136.69L276.126 138.096C274.382 137.444 272.721 136.533 271.202 135.362L272.118 134.174C271.44 133.652 270.793 133.073 270.182 132.437L270.181 132.437C269.691 131.927 269.239 131.395 268.825 130.845L267.627 131.748C266.7 130.517 265.945 129.199 265.359 127.821L266.74 127.234C266.466 126.591 266.232 125.933 266.038 125.263L266.037 125.262C265.877 124.712 265.621 124.218 265.289 123.793L264.106 124.715C263.652 124.133 262.991 123.764 262.27 123.631L262.542 122.156C262.03 122.061 261.5 122.05 260.976 122.123L260.5 122.19L260.151 122.522L258.259 124.323L259.293 125.409L255.509 129.011L254.475 127.924L250.69 131.525L251.724 132.612L247.94 136.213L246.906 135.127L243.122 138.728L244.156 139.814L240.371 143.416L239.337 142.329L237.445 144.13L237.444 144.131C236.707 144.834 235.616 144.78 235.005 144.139L235.004 144.138L232.455 141.468L231.37 142.503L226.272 137.164L227.357 136.128L222.26 130.788L221.175 131.824L216.077 126.484L217.162 125.448L214.692 122.86L214.69 122.857L214.689 122.858L214.614 122.778L214.091 123.277L213.462 123.719L213.328 123.528L214.556 122.666L214.489 122.571L214.422 122.475L214.34 122.39L214.309 122.358L213.23 123.4L213.167 123.335L214.247 122.294L214.216 122.262C213.987 122.025 213.866 121.769 213.816 121.515L212.344 121.804C212.125 120.687 212.57 119.495 213.481 118.726L214.448 119.872C214.681 119.676 214.973 119.524 215.324 119.45C216.411 119.22 217.486 118.905 218.537 118.505L218.004 117.103C219.91 116.378 221.735 115.352 223.407 114.024L224.34 115.198C226.026 113.858 227.562 112.236 228.885 110.333L227.653 109.477C228.781 107.854 229.746 106.01 230.504 103.942L231.912 104.458C232.28 103.456 232.599 102.408 232.868 101.312L232.89 101.223L232.901 101.131C232.96 100.634 233.001 100.136 233.025 99.6379L231.527 99.5663C231.571 98.6343 231.549 97.7041 231.461 96.7817L232.954 96.6385C232.906 96.1396 232.84 95.6425 232.756 95.1482L232.75 95.111L232.741 95.0742C232.512 94.0449 232.231 93.0588 231.902 92.1163L230.486 92.6104C229.813 90.6804 228.931 88.9577 227.888 87.4415L229.123 86.5911C228.522 85.7174 227.87 84.9061 227.174 84.1579L227.16 84.1426L227.145 84.1277C226.428 83.3978 225.645 82.7097 224.798 82.0703L223.894 83.2677C222.425 82.159 220.741 81.2035 218.841 80.4434L219.398 79.0507C218.472 78.68 217.5 78.3542 216.483 78.077L216.44 78.0652L216.396 78.056C215.905 77.9531 215.412 77.868 214.916 77.8004L214.713 79.2866C213.791 79.1609 212.86 79.1003 211.928 79.1037L211.923 77.6037C211.424 77.6055 210.924 77.6244 210.426 77.6602L210.334 77.6668L210.244 77.6845C209.138 77.9017 208.075 78.1723 207.057 78.492L207.506 79.9231C205.405 80.583 203.517 81.4602 201.843 82.5093L201.046 81.2383C199.082 82.4691 197.388 83.9258 195.97 85.5454L197.099 86.5336C195.691 88.1409 194.579 89.9155 193.765 91.7843L192.39 91.1853C191.94 92.218 191.575 93.2776 191.295 94.3533L191.293 94.3606C191.204 94.7069 191.041 94.991 190.835 95.2134L191.937 96.2314C191.129 97.106 189.916 97.4941 188.806 97.2252L189.159 95.7673C188.905 95.7057 188.651 95.5717 188.423 95.3327L188.418 95.3284L188.387 95.2962L187.308 96.3376L187.246 96.2732L188.325 95.2317L188.294 95.1995L188.219 95.1215L188.133 95.0552L188.042 94.9848L187.124 96.1705L186.942 96.0296L187.421 95.4116L187.932 94.9198L187.86 94.8445L187.86 94.8439L187.856 94.8406L185.374 92.2576L184.292 93.297L179.176 87.9727L180.257 86.9333L175.141 81.609L174.059 82.6484L168.942 77.3241L170.024 76.2847L167.466 73.6226L167.46 73.6168C166.852 72.9909 166.836 71.9123 167.583 71.2L167.584 71.1984L169.47 69.3922L168.433 68.3088L172.205 64.6964L173.243 65.7797L177.015 62.1673L175.978 61.0839L179.75 57.4715L180.788 58.5549L184.56 54.9425L183.523 53.8591L187.295 50.2467L188.332 51.3301L190.219 49.5238L190.566 49.1914L190.655 48.7192C190.753 48.2002 190.767 47.6705 190.696 47.154L189.21 47.3575C189.111 46.6337 188.772 45.958 188.21 45.4792L189.182 44.3369C188.772 43.9876 188.29 43.7114 187.747 43.528L187.746 43.5277C187.087 43.3055 186.44 43.0436 185.808 42.742L185.162 44.0958C183.813 43.4518 182.527 42.6407 181.337 41.6619L182.289 40.5034C181.757 40.0658 181.246 39.5916 180.758 39.0803L180.758 39.0799C180.149 38.4421 179.599 37.7704 179.107 37.0709L177.88 37.9341C176.777 36.3658 175.94 34.6668 175.366 32.8966L176.793 32.4344C176.257 30.7779 175.97 29.0512 175.933 27.312L174.434 27.3439C174.394 25.4704 174.622 23.5862 175.114 21.7531L176.563 22.1423C177.009 20.4809 177.691 18.8643 178.606 17.346L177.321 16.5715C178.271 14.9965 179.453 13.5201 180.865 12.1938L181.892 13.2873C183.121 12.1334 184.542 11.0977 186.157 10.2214L185.441 8.90306C187.017 8.04782 188.76 7.33757 190.669 6.80444L191.073 8.24915C191.909 8.01557 192.781 7.81731 193.69 7.65785L193.693 7.65725C193.888 7.62259 194.086 7.5969 194.287 7.58031L194.163 6.08543C194.654 6.04478 195.15 6.04899 195.638 6.09745L195.49 7.59012C195.69 7.61 195.888 7.63894 196.082 7.67668L196.084 7.67714C197.011 7.85598 197.895 8.07469 198.736 8.32945L199.171 6.8938C201.128 7.48633 202.885 8.26745 204.445 9.20102L203.674 10.488C205.282 11.4506 206.656 12.5826 207.806 13.8362L208.911 12.8225C210.246 14.2783 211.308 15.8923 212.102 17.6039L210.741 18.2351C211.116 19.0417 211.425 19.8726 211.671 20.7204C211.82 21.2385 212.051 21.7088 212.35 22.1215L213.565 21.2413C213.985 21.8215 214.595 22.2072 215.271 22.3783L214.903 23.8325C215.392 23.956 215.899 24.0019 216.406 23.969L216.951 23.9336L217.346 23.5556L219.222 21.7602L218.184 20.6767L221.935 17.0857L222.973 18.1693L226.723 14.5783L225.686 13.4948L229.437 9.90389L230.474 10.9874L234.225 7.39648L233.188 6.31297L236.939 2.72204L237.976 3.80555L239.851 2.0101L239.855 2.00639C240.027 1.84086 240.217 1.71849 240.415 1.63528L239.834 0.252433C240.607 -0.0724092 241.47 -0.0854319 242.234 0.208964L241.694 1.60856C241.887 1.68316 242.068 1.79553 242.226 1.94713L242.302 2.02007L242.388 2.08166L242.598 2.23331L243.475 1.01614L243.896 1.31943L243.084 2.44638L243.021 2.50654L243.033 2.51832L243.019 2.5366L243.117 2.60705L245.446 5.04809L246.532 4.01262L251.381 9.09572L250.296 10.1312L255.146 15.2143L256.231 14.1788L261.081 19.2619L259.996 20.2974L262.421 22.8389L262.512 22.9347L262.619 23.013C263.231 23.4622 263.922 23.7384 264.625 23.8545L264.869 22.3745C265.855 22.5372 266.894 22.2452 267.633 21.5559L268.656 22.6523C269.178 22.1654 269.595 21.5479 269.853 20.8197L269.855 20.8162C270.098 20.1261 270.382 19.4468 270.708 18.7824L269.362 18.1214C270.051 16.718 270.912 15.3758 271.946 14.128L273.101 15.0849C273.565 14.525 274.066 13.9851 274.606 13.4688L274.607 13.4685C275.202 12.899 275.823 12.3763 276.466 11.9L275.574 10.6946C277.008 9.6327 278.544 8.78324 280.14 8.14586L280.696 9.53882C282.216 8.93143 283.794 8.53224 285.385 8.34064L285.206 6.8514C286.95 6.6414 288.709 6.66202 290.435 6.91286L290.219 8.39726C291.812 8.62892 293.372 9.07288 294.853 9.7277L295.46 8.35581C297.036 9.05288 298.533 9.97089 299.902 11.1095L298.943 12.2629C299.554 12.7709 300.138 13.327 300.691 13.9315L300.714 13.9577L300.74 13.9827C301.319 14.5594 301.848 15.1658 302.328 15.7969L303.522 14.8885C304.599 16.3038 305.45 17.8363 306.076 19.4392L304.679 19.9851C305.267 21.4906 305.641 23.0655 305.802 24.6646L307.294 24.515C307.468 26.2471 307.41 28.003 307.122 29.733L305.642 29.4866C305.379 31.0645 304.91 32.6196 304.235 34.108L305.601 34.7276C304.892 36.2897 303.975 37.7832 302.849 39.1645M309.261 71.6645L302.849 39.1645M292.464 44.4158C292.464 44.4155 292.465 44.4153 292.466 44.4151L292.897 45.8518M292.464 44.4158C292.463 44.4161 292.462 44.4164 292.461 44.4167L292.897 45.8518M292.464 44.4158C293.164 44.2026 293.856 43.9479 294.535 43.6515L295.135 45.0262C294.402 45.3465 293.654 45.6216 292.897 45.8518M302.849 39.1645L301.686 38.217C301.182 38.836 300.632 39.4312 300.037 39.998C299.494 40.513 298.93 40.989 298.348 41.4264L299.249 42.6255L302.849 39.1645ZM311.227 71.8225L311.232 71.8177L311.232 71.8172L311.226 71.8211L311.227 71.8225ZM311.091 71.6004L311.048 71.6287L310.676 71.2556L310.804 71.1705L311.091 71.6004ZM310.668 71.2613L310.674 71.2575L311.046 71.6306L311.04 71.6345L310.668 71.2613Z" stroke="#73A648" stroke-width="3" stroke-dasharray="6 6"/>
<path d="M207.829 269.804H208.002L208.471 269.871L238.024 270C239.785 270.01 241.207 268.543 241.216 266.743L241.345 235.43C242.207 234.245 243.786 233.672 245.202 234.417C247.829 235.788 250.801 236.576 253.95 236.576C268.832 236.595 279.824 219.382 269.095 203.243C268.554 202.431 267.841 201.695 267.052 201.136C259.309 195.634 251.39 195.582 245.284 198.748C243.906 199.455 242.393 198.997 241.508 197.922L241.633 166.805C241.647 165.057 240.297 163.624 238.608 163.548L237.584 163.352L209.466 163.333C207.437 162.974 206.145 160.696 207.15 158.743C208.542 155.996 209.346 152.877 209.361 149.563C209.408 138.362 200.474 129.288 189.521 129.517C178.558 129.226 169.585 138.257 169.571 149.462C169.581 152.777 170.351 155.901 171.753 158.657C172.739 160.61 171.433 162.888 169.399 163.237L141.271 163.108L140.256 163.294C139.051 163.347 138.036 164.106 137.534 165.171C137.706 165.659 137.811 166.189 137.811 166.733L137.759 198.863L135.998 198.514C135.198 198.863 134.284 198.925 133.409 198.462L132.863 198.223C131.916 198.232 130.94 198.299 129.93 198.443L129.671 198.476L129.413 198.433C128.303 198.228 127.312 198.051 126.355 198.051C117.335 198.07 109.865 205.019 108.736 214.051C108.635 214.83 108.568 215.613 108.568 216.425C108.568 219.668 109.439 223.131 111.315 226.637C111.717 227.396 112.124 228.165 112.626 228.929C113.062 229.579 113.631 230.166 114.268 230.61C118.412 233.538 122.474 234.713 126.26 234.723C127.274 234.713 128.265 234.632 129.236 234.474L129.494 234.422L129.753 234.465C130.576 234.599 131.217 234.728 131.81 234.799C132.308 234.594 132.815 234.388 133.299 234.131C134.323 233.6 135.428 233.772 136.28 234.345L137.687 234.064L137.634 266.681C137.634 267.096 137.562 267.507 137.467 267.903C137.983 268.987 139.041 269.752 140.295 269.752L169.858 269.771L170.313 269.709H170.49C173.007 269.718 174.409 266.867 173.05 264.675C169.15 258.346 168.648 249.61 174.131 241.09C175.323 239.647 176.706 238.396 178.242 237.345C181.97 235.119 185.717 234.111 189.253 234.073C192.784 234.131 196.522 235.162 200.235 237.398C201.762 238.453 203.145 239.714 204.331 241.166C209.772 249.711 209.212 258.446 205.279 264.76C203.925 266.943 205.307 269.799 207.825 269.799L207.829 269.804Z" fill="#C9E8B1"/>
<path d="M103.209 159.249L103.142 159.421L103.113 159.483L102.946 160.156C102.936 160.863 103.515 161.58 104.228 161.733L132.145 161.685C132.547 161.685 132.882 161.795 133.232 161.881V161.871C134.213 161.914 135.107 162.253 135.844 162.807L136.021 161.928L136.151 130.615C137.017 129.431 138.591 128.867 140.007 129.598C142.63 130.969 145.601 131.757 148.755 131.757C163.647 131.776 174.634 114.563 163.905 98.4237C163.36 97.6117 162.656 96.8809 161.862 96.3174C154.124 90.8151 146.195 90.7626 140.084 93.9292C138.715 94.6361 137.189 94.1776 136.313 93.1029L136.447 61.9858C136.447 60.2377 135.103 58.8049 133.413 58.7285L132.389 58.5326L104.271 58.5135C102.237 58.1553 100.945 55.8771 101.945 53.9236C103.347 51.1772 104.147 48.0536 104.166 44.7437C104.218 33.5387 95.2795 24.4686 84.3212 24.6979C73.3677 24.4113 64.3906 33.4431 64.3762 44.6434C64.3762 47.9629 65.161 51.0865 66.5583 53.8376C67.5441 55.7911 66.2425 58.0693 64.2087 58.4085L36.0761 58.289L35.0568 58.4753C33.3628 58.547 32.0134 59.9703 32.0134 61.7279L31.9847 92.845C31.0898 93.9101 29.5729 94.3734 28.2091 93.6474C22.1174 90.4569 14.1834 90.4665 6.42173 95.9352C5.62737 96.4893 4.91915 97.2248 4.36406 98.032C-6.45067 114.109 4.45976 131.375 19.3468 131.432C22.5003 131.451 25.4767 130.682 28.099 129.316C29.525 128.586 31.1042 129.163 31.9512 130.357L31.9272 161.67C31.9272 162.062 32.0182 162.43 32.1426 162.779C32.8747 162.239 33.7648 161.909 34.741 161.866V161.876C35.0855 161.79 35.4301 161.68 35.8272 161.68L63.7445 161.728C64.4528 161.575 65.0318 160.858 65.0174 160.161L64.8547 159.478L64.8212 159.402L64.783 159.325L64.7447 159.23C63.3234 156.354 62.5004 153.111 62.4764 149.677V149.515C62.4764 147.342 62.888 145.321 63.4287 143.425C65.9936 134.546 73.942 127.96 83.5173 127.96L84.0245 127.969L84.4504 127.96C94.0162 127.96 101.969 134.546 104.534 143.425C105.075 145.321 105.482 147.342 105.482 149.524V149.567C105.482 153.054 104.644 156.34 103.209 159.249Z" fill="#73A648"/>
<path d="M112.904 199.842C116.579 196.566 121.374 194.56 126.637 194.545L126.647 196.117V194.545C127.925 194.545 129.044 194.765 130.083 194.946C131.145 194.808 132.203 194.717 133.26 194.708C133.782 194.708 134.303 194.731 134.83 194.784L134.868 166.447C134.868 165.549 134.232 164.904 133.48 164.818L133.375 164.789L133.131 164.78L132.897 164.694L132.423 164.598L104.161 164.646L104.022 164.622C101.811 164.221 100.29 162.406 100.084 160.281L100.007 159.855C100.007 159.187 100.165 158.509 100.481 157.849H100.467L100.529 157.687L100.567 157.635C101.821 155.108 102.544 152.285 102.544 149.267V149.224C102.544 147.452 102.213 145.737 101.721 144.022C99.5097 136.414 92.7625 130.878 84.728 130.878L84.3165 130.888H84.2255L83.7997 130.878C80.0193 130.878 76.55 132.134 73.6788 134.221C70.444 136.576 67.9747 139.986 66.8119 144.022C66.5248 144.997 66.3238 145.976 66.1803 146.964C66.0702 147.705 65.9793 148.45 65.9793 149.209V149.271C65.9793 152.29 66.7066 155.113 67.97 157.63L68.0082 157.701L68.037 157.778L68.0752 157.873L68.0609 157.883C68.3576 158.523 68.5203 159.206 68.5203 159.87L68.4485 160.252C68.2571 162.392 66.7258 164.226 64.5102 164.627L64.3762 164.651L36.1144 164.603L35.8847 164.646L35.6359 164.699L35.4062 164.785L35.1573 164.794C34.363 164.828 33.6643 165.511 33.6595 166.442L33.7122 198.137L33.3437 198.591C32.4584 199.646 31.1568 200.324 29.7165 200.324C28.9987 200.324 28.2522 200.152 27.5775 199.794C25.1705 198.548 22.4763 197.841 19.5956 197.841C15.7913 197.841 11.6521 199.068 7.47929 202.03C6.84764 202.474 6.26383 203.061 5.83794 203.711C2.98113 207.986 1.78003 212.255 1.78003 216.21C1.78003 226.379 9.77144 234.565 19.5478 234.58H19.5813C22.4524 234.58 25.1657 233.882 27.5679 232.626C28.2235 232.287 28.9413 232.115 29.6399 232.115C31.219 232.115 32.6116 232.932 33.4777 234.135L33.784 234.56L33.8318 266.384C33.8318 267.33 34.5687 268.037 35.3966 268.037L64.8404 267.989L65.3093 267.918H65.6012C66.075 267.908 66.3765 267.746 66.6444 267.473C66.9028 267.182 67.0655 266.766 67.0655 266.322L66.788 265.343C64.7255 262.014 63.5244 258.059 63.5244 253.828C63.5244 249.386 64.85 244.638 67.8025 240.034L67.8599 239.948L67.9173 239.881C69.2046 238.319 70.7071 236.953 72.3676 235.821L72.4059 235.797L72.4394 235.774C76.3873 233.405 80.4212 232.301 84.2447 232.234H84.2925C88.116 232.301 92.1452 233.405 96.093 235.774L96.1313 235.793L96.1744 235.826C97.8349 236.963 99.3327 238.324 100.62 239.886L100.682 239.962L100.735 240.039C103.682 244.648 105.013 249.391 105.008 253.842C105.008 258.064 103.821 262.024 101.749 265.358L101.467 266.327C101.467 266.771 101.634 267.187 101.893 267.478C102.156 267.75 102.467 267.913 102.936 267.922H103.218L103.328 267.941L103.682 267.994L133.136 268.042C133.964 268.042 134.701 267.335 134.705 266.389L134.758 237.651C134.093 237.737 133.409 237.799 132.691 237.799H132.681C131.466 237.789 130.504 237.522 129.7 237.388C128.666 237.541 127.628 237.651 126.551 237.651C122.245 237.651 117.665 236.285 113.191 233.257L112.684 232.951C111.736 232.268 110.899 231.418 110.234 230.424C108.549 227.907 107.386 225.342 106.635 222.797C106.405 222.004 106.233 221.211 106.085 220.428C105.807 218.976 105.635 217.543 105.635 216.134C105.635 209.633 108.444 203.806 112.904 199.842Z" fill="#E1ECD8"/>
</g>
<defs>
<clipPath id="clip0_20_114">
<rect width="312" height="270" fill="white"/>
</clipPath>
</defs>
</svg>
