<svg width="39" height="31" viewBox="0 0 39 31" fill="none" xmlns="http://www.w3.org/2000/svg">
<path d="M0 31V22.083C0 19.4897 0.496183 16.8166 1.48855 14.0637C2.48092 11.3108 3.79084 8.7175 5.41832 6.28378C7.0458 3.81017 8.83206 1.71557 10.7771 0L18.7557 4.66795C17.3267 7.06178 16.0962 9.63513 15.0641 12.388C14.0321 15.1409 13.516 18.3726 13.516 22.083V31H0ZM20.2443 31V22.083C20.2443 19.4897 20.7405 16.8166 21.7328 14.0637C22.7252 11.3108 24.0351 8.7175 25.6626 6.28378C27.2901 3.81017 29.0763 1.71557 31.0214 0L39 4.66795C37.571 7.06178 36.3405 9.63513 35.3084 12.388C34.2763 15.1409 33.7603 18.3726 33.7603 22.083V31H20.2443Z" fill="white"/>
</svg>
