<svg width="167" height="167" viewBox="0 0 167 167" fill="none" xmlns="http://www.w3.org/2000/svg">
<circle cx="83.5" cy="83.5" r="82" stroke="#73A649" stroke-width="3" stroke-dasharray="6 6"/>
<g clip-path="url(#clip0_107_6741)">
<path d="M73.5716 43.7574H60.6365C59.6444 43.7574 58.84 44.5616 58.84 45.5539C58.84 46.5461 59.6444 47.3504 60.6365 47.3504H73.5716C74.5637 47.3504 75.3682 46.5461 75.3682 45.5539C75.3682 44.5616 74.5637 43.7574 73.5716 43.7574ZM68.374 120.055C68.04 119.72 67.5766 119.528 67.104 119.528C66.6314 119.528 66.168 119.721 65.8338 120.055C65.4981 120.393 65.309 120.849 65.3075 121.325C65.3075 121.798 65.4995 122.261 65.8338 122.595C66.168 122.929 66.6314 123.122 67.104 123.122C67.5766 123.122 68.04 122.929 68.374 122.595C68.7098 122.258 68.8989 121.801 68.9005 121.325C68.9005 120.851 68.7084 120.389 68.374 120.055Z" fill="#73A648"/>
<path d="M118.434 95.116L111.824 83.6676C114.534 81.1564 115.258 77.0127 113.334 73.6807C112.252 71.8077 110.506 70.4677 108.417 69.908C106.92 69.5066 105.374 69.5431 103.929 69.993L97.3206 58.5467C97.1736 58.2922 96.9664 58.0776 96.7172 57.9217C96.468 57.7659 96.1843 57.6736 95.8911 57.653C95.5979 57.6323 95.3041 57.6839 95.0355 57.8032C94.7668 57.9225 94.5316 58.106 94.3504 58.3374L73.7747 84.6127L65.1396 89.5982C60.2122 92.4428 58.5182 98.766 61.363 103.693C62.7412 106.08 64.9661 107.788 67.6285 108.501C68.5048 108.737 69.4083 108.856 70.3157 108.857C72.1036 108.857 73.8681 108.388 75.4582 107.47L76.4865 106.876L80.0733 113.089H41.593V53.0991H92.6149V53.638C92.6149 54.6303 93.4194 55.4345 94.4114 55.4345C95.4035 55.4345 96.208 54.6303 96.208 53.638V45.0615C96.208 41.1724 93.0439 38.0081 89.1545 38.0081H45.0535C41.1641 38.0081 38 41.1722 38 45.0615V122.938C38 126.827 41.1641 129.992 45.0535 129.992H89.1549C93.044 129.992 96.2083 126.827 96.2083 122.938V100.767L117.131 97.7928C117.422 97.7516 117.699 97.6395 117.936 97.4665C118.174 97.2935 118.365 97.0649 118.494 96.8006C118.623 96.5364 118.684 96.2446 118.674 95.9509C118.663 95.6571 118.581 95.3705 118.434 95.116ZM41.593 45.0615C41.593 43.1534 43.1454 41.6013 45.0533 41.6013H89.1547C91.0626 41.6013 92.6149 43.1534 92.6149 45.0615V49.5059H41.593V45.0615ZM107.487 73.3787C108.649 73.6901 109.621 74.4354 110.222 75.4774C111.145 77.0754 110.973 79.0094 109.942 80.4075L105.811 73.2529C106.373 73.1891 106.941 73.2318 107.487 73.3787ZM73.6617 104.358C72.1059 105.257 70.2931 105.495 68.5584 105.03C66.8233 104.565 65.3731 103.453 64.4748 101.897C62.6208 98.6851 63.725 94.5638 66.9363 92.7096L74.3172 88.4483L81.0418 100.097L73.6617 104.358ZM79.5984 105.08L82.8383 103.209L87.0827 110.561L83.8428 112.431L79.5984 105.08ZM92.6149 122.938C92.6149 124.846 91.0626 126.398 89.1547 126.398H45.0535C43.1455 126.398 41.5932 124.846 41.5932 122.938V116.682H92.6151V122.938H92.6149ZM92.6149 113.089H89.8896L90.4346 112.774C91.2939 112.278 91.5884 111.179 91.0921 110.32L86.383 102.163L92.6149 101.277V113.089ZM84.4478 98.8091L77.137 86.1467L90.2035 69.4606L105.426 95.8272L84.4478 98.8091ZM109.261 95.2822L92.5918 66.4108L95.5392 62.647L113.993 94.6095L109.261 95.2822ZM129.759 64.2594C129.263 63.4003 128.164 63.1056 127.305 63.6019L118.496 68.6878C117.637 69.1837 117.342 70.2825 117.839 71.1417C117.956 71.3461 118.114 71.5252 118.301 71.6688C118.488 71.8125 118.701 71.9178 118.929 71.9789C119.157 72.04 119.395 72.0555 119.629 72.0247C119.863 71.9939 120.088 71.9172 120.293 71.7992L129.101 66.7133C129.961 66.2174 130.255 65.1186 129.759 64.2594ZM113.498 56.3716C112.54 56.1147 111.555 56.6837 111.298 57.642L110.014 62.435C109.757 63.3936 110.326 64.3787 111.284 64.6354C111.44 64.6771 111.596 64.6971 111.75 64.6971C112.543 64.6971 113.269 64.1677 113.484 63.365L114.769 58.5721C115.025 57.6134 114.457 56.6284 113.498 56.3716ZM127.219 79.8737L122.266 78.5463C121.307 78.2894 120.323 78.8584 120.066 79.8167C119.809 80.7752 120.378 81.7602 121.336 82.0172L126.289 83.3445C126.445 83.3862 126.601 83.4061 126.755 83.4061C127.549 83.4061 128.274 82.8768 128.49 82.0741C128.746 81.1155 128.178 80.1302 127.219 79.8737Z" fill="#73A648"/>
<path d="M72.0745 58.3395H47.2843C46.2922 58.3395 45.4877 59.1438 45.4877 60.1361C45.4877 61.1283 46.2922 61.9326 47.2843 61.9326H72.0747C73.0667 61.9326 73.8712 61.1283 73.8712 60.1361C73.8712 59.1438 73.0665 58.3395 72.0745 58.3395ZM73.3452 67.4896C73.008 67.1531 72.5514 66.9638 72.075 66.9631C71.6007 66.9631 71.139 67.1536 70.8048 67.4896C70.4684 67.8268 70.2792 68.2835 70.2785 68.7598C70.2785 69.2324 70.469 69.6958 70.8048 70.03C71.1424 70.3659 71.5988 70.5551 72.075 70.5563C72.5476 70.5563 73.011 70.364 73.3452 70.03C73.6809 69.6923 73.8699 69.2359 73.8715 68.7598C73.8715 68.2872 73.6795 67.8238 73.3452 67.4896ZM64.6487 66.9629H47.2843C46.2922 66.9629 45.4877 67.7672 45.4877 68.7594C45.4877 69.7517 46.2922 70.556 47.2843 70.556H64.6487C65.6408 70.556 66.4452 69.7517 66.4452 68.7594C66.4452 67.7672 65.6408 66.9629 64.6487 66.9629ZM67.8064 75.5863H54.1852C53.1931 75.5863 52.3886 76.3906 52.3886 77.3828C52.3886 78.3751 53.1929 79.1793 54.1852 79.1793H67.8062C68.7983 79.1793 69.6027 78.3751 69.6027 77.3828C69.6027 76.3906 68.7984 75.5863 67.8064 75.5863ZM47.3525 75.5863H47.2692C46.2771 75.5863 45.4727 76.3906 45.4727 77.3828C45.4727 78.3751 46.2771 79.1793 47.2692 79.1793H47.3525C48.3446 79.1793 49.1491 78.3751 49.1491 77.3828C49.1491 76.3906 48.3446 75.5863 47.3525 75.5863Z" fill="#73A648"/>
</g>
<defs>
<clipPath id="clip0_107_6741">
<rect width="92" height="92" fill="white" transform="translate(38 38)"/>
</clipPath>
</defs>
</svg>
