<svg width="75" height="75" viewBox="0 0 75 75" fill="none" xmlns="http://www.w3.org/2000/svg">
<path d="M23.8637 25.6818C22.9546 25.6818 22.0455 25.5682 21.0228 25.3409C20.4546 25.2273 20.0001 24.6591 20.1137 23.9773C20.2273 23.0682 20.0001 22.6136 19.8864 22.6136C19.8864 22.6136 19.4319 22.7273 18.7501 23.5227C18.4092 23.9773 17.7273 24.0909 17.2728 23.75C16.0228 22.9545 14.7728 21.7045 13.8637 20.2273C13.5228 19.7727 13.6364 19.0909 14.091 18.75C14.8864 18.1818 15.0001 17.7273 15.0001 17.6136C14.8864 17.3864 14.3182 17.2727 13.6364 17.3864C13.0682 17.5 12.5001 17.1591 12.2728 16.4773C11.9319 15 11.9319 13.4091 12.3864 11.5909C12.5001 11.0227 13.0682 10.5682 13.7501 10.6818C14.6592 10.7955 15.1137 10.5682 15.1137 10.4545C15.1137 10.4545 14.8864 9.88636 14.2046 9.31818C13.7501 8.97727 13.6364 8.29545 13.9773 7.84091C14.7728 6.59091 16.0228 5.34091 17.5001 4.43181C17.9546 4.09091 18.6364 4.20454 18.9773 4.65909C19.5455 5.45454 20.0001 5.56818 20.1137 5.56818C20.341 5.45454 20.4546 4.88636 20.341 4.20454C20.2273 3.63636 20.5682 3.06818 21.2501 2.8409C22.7273 2.5 24.3182 2.5 26.1364 2.95454C26.7046 3.06818 27.1592 3.63636 27.0455 4.31818C27.0455 5.22727 27.3864 5.68181 27.3864 5.68181C27.3864 5.68181 27.9546 5.45454 28.5228 4.77272C28.8637 4.31818 29.5455 4.31818 30.0001 4.54545C31.2501 5.34091 32.5001 6.5909 33.4092 8.06818C33.7501 8.52272 33.6364 9.20454 33.1819 9.54545C32.3864 10.1136 32.2728 10.5682 32.2728 10.6818C32.3864 10.7955 32.841 11.0227 33.6364 10.9091C34.2046 10.7955 34.7728 11.1364 35.0001 11.8182C35.341 13.2955 35.341 14.8864 34.8864 16.7045C34.7728 17.2727 34.2046 17.7273 33.5228 17.6136C32.6137 17.5 32.1592 17.7273 32.1592 17.8409C32.1592 17.9545 32.2728 18.4091 32.9546 18.9773C33.4092 19.3182 33.5228 20 33.1819 20.4545C32.3864 21.7045 31.1364 22.9545 29.6592 23.8636C29.2046 24.2045 28.5228 24.0909 28.1819 23.6364C27.6137 22.8409 27.1592 22.7273 27.0455 22.7273C26.8182 22.8409 26.7046 23.4091 26.8182 24.0909C26.9319 24.6591 26.591 25.2273 25.9092 25.4545C25.2273 25.5682 24.5455 25.6818 23.8637 25.6818ZM22.5001 23.2955C23.1819 23.4091 23.8637 23.4091 24.5455 23.4091C24.6592 22.1591 25.2273 21.1364 26.2501 20.6818C26.7046 20.4545 27.9546 20.2273 29.3182 21.4773C29.8864 21.0227 30.4546 20.5682 30.7955 20C29.8864 18.9773 29.6592 17.8409 30.1137 16.8182C30.5682 15.9091 31.591 15.3409 32.841 15.3409C32.9546 14.6591 32.9546 13.9773 32.9546 13.2955C31.7046 13.1818 30.7955 12.6136 30.2273 11.7045C30.0001 11.1364 29.6592 9.88636 31.0228 8.52272C30.5682 7.95454 30.1137 7.38636 29.5455 6.93181C28.5228 7.84091 27.3864 8.06818 26.4773 7.61363C25.5682 7.15909 25.0001 6.13636 25.0001 4.88636C24.3182 4.77272 23.6364 4.77272 22.9546 4.77272C22.841 6.02272 22.2728 7.04545 21.2501 7.5C20.7955 7.84091 19.5455 8.18181 18.1819 6.81818C17.6137 7.27272 17.0455 7.72727 16.591 8.29545C17.5001 9.31818 17.7273 10.4545 17.2728 11.3636C16.8182 12.2727 15.7955 12.8409 14.5455 12.8409C14.4319 13.5227 14.4319 14.2045 14.4319 14.8864C15.6819 15 16.7046 15.5682 17.1592 16.5909C17.3864 17.0455 17.6137 18.2955 16.3637 19.6591C16.8182 20.2273 17.2728 20.7955 17.841 21.1364C19.2046 20 20.341 20.2273 20.9092 20.4545C21.8182 21.0227 22.3864 22.0455 22.5001 23.2955Z" fill="#73A648"/>
<path d="M23.636 19.0909C23.0678 19.0909 22.4996 18.9773 21.9315 18.75C19.4315 17.8409 18.0678 15 18.9769 12.5C19.4315 11.25 20.3405 10.2272 21.5905 9.7727C22.7269 9.20452 24.0905 9.20452 25.3405 9.65907C27.8405 10.5682 29.2042 13.4091 28.2951 15.9091C27.8405 17.1591 26.9315 18.0682 25.7951 18.6363C24.9996 18.8636 24.3178 19.0909 23.636 19.0909ZM23.636 11.5909C22.6133 11.5909 21.5905 12.2727 21.136 13.2954C20.9087 13.9772 20.9087 14.6591 21.2496 15.3409C21.5906 16.0227 22.0451 16.4772 22.7269 16.7045C23.4087 16.9318 24.0905 16.9318 24.7724 16.5909C25.4542 16.25 25.9087 15.7954 26.136 15.1136C26.5905 13.75 25.9087 12.2727 24.5451 11.8182C24.2042 11.5909 23.9769 11.5909 23.636 11.5909Z" fill="#73A648"/>
<path d="M67.0453 61.0227H7.95441C4.20441 61.0227 1.13623 57.9545 1.13623 54.2045V14.2045C1.13623 10.4545 4.20441 7.38634 7.95441 7.38634H14.4317C15.1135 7.38634 15.568 7.84089 15.568 8.5227C15.568 9.20452 15.1135 9.65907 14.4317 9.65907H7.95441C5.45441 9.65907 3.40896 11.7045 3.40896 14.2045V54.2045C3.40896 56.7045 5.45441 58.75 7.95441 58.75H67.0453C69.5453 58.75 71.5908 56.7045 71.5908 54.2045V14.0909C71.5908 11.5909 69.5453 9.54543 67.0453 9.54543H32.4999C31.818 9.54543 31.3635 9.09089 31.3635 8.40907C31.3635 7.72725 31.818 7.27271 32.4999 7.27271H67.0453C70.7953 7.27271 73.8635 10.3409 73.8635 14.0909V54.2045C73.8635 57.9545 70.7953 61.0227 67.0453 61.0227Z" fill="#73A648"/>
<path d="M67.0451 55.4546H7.95423C7.27242 55.4546 6.81787 55 6.81787 54.3182V14.091C6.81787 13.4091 7.27242 12.9546 7.95423 12.9546H12.0451C12.727 12.9546 13.1815 13.4091 13.1815 14.091C13.1815 14.7728 12.727 15.2273 12.0451 15.2273H9.0906V53.1819H65.9088V15.2273H33.977C33.2951 15.2273 32.8406 14.7728 32.8406 14.091C32.8406 13.4091 33.2951 12.9546 33.977 12.9546H67.0451C67.727 12.9546 68.1815 13.4091 68.1815 14.091V54.3182C68.1815 55 67.727 55.4546 67.0451 55.4546ZM48.6361 72.3864H26.2497C25.5679 72.3864 25.1133 71.9319 25.1133 71.25C25.1133 68.4091 27.3861 66.0228 30.3406 65.5682C31.1361 65.4546 31.7042 65.1137 32.2724 64.4319V60C32.2724 59.3182 32.727 58.8637 33.4088 58.8637C34.0906 58.8637 34.5451 59.3182 34.5451 60V64.8864C34.5451 65.1137 34.4315 65.341 34.3179 65.5682C33.2951 66.9319 32.0451 67.7273 30.5679 67.841C29.2042 68.0682 28.0679 68.9773 27.6133 70.1137H47.3861C46.9315 68.9773 45.9088 67.9546 44.4315 67.7273C42.9542 67.5 41.7042 66.7046 40.5679 65.5682C40.3406 65.341 40.227 65.1137 40.227 64.7728V59.8864C40.227 59.2046 40.6815 58.75 41.3633 58.75C42.0451 58.75 42.4997 59.2046 42.4997 59.8864V64.3182C43.1815 65 43.8633 65.3409 44.7724 65.4546C47.727 66.0228 49.6588 68.4091 49.6588 71.1364V71.25C49.7724 71.9319 49.3179 72.3864 48.6361 72.3864Z" fill="#73A648"/>
<path d="M46.9317 44.8863C46.5908 44.8863 46.3635 44.7727 46.1363 44.5454L39.9999 38.4091C39.5454 37.9545 39.5454 37.2727 39.9999 36.8182L46.1363 30.6818C46.5908 30.2273 47.2726 30.2273 47.7272 30.6818C48.1817 31.1363 48.1817 31.8182 47.7272 32.2727L42.3863 37.6136L47.7272 42.9545C48.1817 43.4091 48.1817 44.0909 47.7272 44.5454C47.4999 44.7727 47.2726 44.8863 46.9317 44.8863ZM55.3408 44.8863C54.9999 44.8863 54.7726 44.7727 54.5454 44.5454C54.0908 44.0909 54.0908 43.4091 54.5454 42.9545L59.8863 37.6136L54.5454 32.2727C54.0908 31.8182 54.0908 31.1363 54.5454 30.6818C54.9999 30.2273 55.6817 30.2273 56.1363 30.6818L62.2726 36.8182C62.7272 37.2727 62.7272 37.9545 62.2726 38.4091L56.1363 44.5454C55.909 44.7727 55.6817 44.8863 55.3408 44.8863ZM49.2045 47.5H48.9772C48.409 47.3863 47.9545 46.7045 48.0681 46.1363L51.9317 28.75C52.0454 28.1818 52.7272 27.7273 53.2954 27.8409C53.8635 27.9545 54.3181 28.6363 54.2045 29.2045L50.3408 46.5909C50.2272 47.1591 49.7726 47.5 49.2045 47.5ZM28.9772 33.75H16.4772C15.7954 33.75 15.3408 33.2954 15.3408 32.6136C15.3408 31.9318 15.7954 31.4773 16.4772 31.4773H28.9772C29.659 31.4773 30.1135 31.9318 30.1135 32.6136C30.1135 33.2954 29.659 33.75 28.9772 33.75ZM34.8863 39.3182H16.4772C15.7954 39.3182 15.3408 38.8636 15.3408 38.1818C15.3408 37.5 15.7954 37.0454 16.4772 37.0454H34.8863C35.5681 37.0454 36.0226 37.5 36.0226 38.1818C36.0226 38.8636 35.5681 39.3182 34.8863 39.3182ZM34.8863 44.8863H16.4772C15.7954 44.8863 15.3408 44.4318 15.3408 43.75C15.3408 43.0682 15.7954 42.6136 16.4772 42.6136H34.8863C35.5681 42.6136 36.0226 43.0682 36.0226 43.75C36.0226 44.4318 35.5681 44.8863 34.8863 44.8863Z" fill="#73A648"/>
</svg>
