<svg width="84" height="84" viewBox="0 0 84 84" fill="none" xmlns="http://www.w3.org/2000/svg">
<mask id="mask0_31_4059" style="mask-type:luminance" maskUnits="userSpaceOnUse" x="0" y="0" width="84" height="84">
<path d="M81.9149 82.5V2.08511H1.5V82.5H81.9149Z" fill="white" stroke="white" stroke-width="3"/>
</mask>
<g mask="url(#mask0_31_4059)">
<path d="M44.5129 32.8577C41.5129 32.8577 39.0807 30.4255 39.0807 27.4253C39.0807 24.4253 41.5129 21.9931 44.5129 21.9931C47.5131 21.9931 49.9453 24.4253 49.9453 27.4253C49.9453 30.4255 47.5131 32.8577 44.5129 32.8577ZM59.8511 23.4147C57.9246 24.2054 55.6628 23.4701 54.5931 21.6177C53.5224 19.7645 54.0176 17.4361 55.6678 16.1654C53.7583 14.273 51.3689 12.8634 48.6985 12.1338C48.4257 14.2023 46.6559 15.7979 44.5129 15.7979C42.3708 15.7979 40.6001 14.2023 40.3273 12.1338C37.6569 12.8634 35.2683 14.273 33.3589 16.1654C35.0083 17.4369 35.5034 19.7645 34.4337 21.6177C33.3636 23.4701 31.1012 24.2054 29.1756 23.4147C28.8348 24.7243 28.6628 26.0721 28.6636 27.4253C28.6624 28.7861 28.8365 30.1414 29.1813 31.4577C31.1059 30.6695 33.3645 31.4056 34.4337 33.2572C35.5003 35.1057 35.0116 37.4253 33.3726 38.699C35.2804 40.5853 37.6659 41.9907 40.3304 42.7178C40.6131 40.6614 42.3786 39.0772 44.5129 39.0772C46.6478 39.0772 48.4129 40.6614 48.6954 42.7178C51.3609 41.9907 53.7464 40.5853 55.6542 38.699C54.0152 37.4253 53.5254 35.1057 54.5931 33.2572C55.6621 31.4056 57.9199 30.6695 59.8453 31.4577C60.1901 30.1414 60.3642 28.7861 60.363 27.4253C60.3638 26.0721 60.1918 24.7243 59.8511 23.4147Z" stroke="#73A648" stroke-width="3" stroke-miterlimit="10" stroke-linecap="round" stroke-linejoin="round"/>
<path d="M22.0276 70.3939H13.9614L13.9616 48.7761H31.0936L47.7045 55.6515C50.6102 56.8542 51.9792 60.1945 50.7529 63.0902L50.6967 63.2232C49.4608 66.1424 46.163 67.542 43.2321 66.4115C38.5183 64.5933 32.3363 62.2167 32.3363 62.2167L48.2537 68.3361C51.611 69.6268 55.2768 69.8874 58.7829 69.0847L75.0905 65.3509C78.0788 64.6668 81.0462 66.5704 81.67 69.5718C82.2662 72.4396 80.4988 75.2682 77.6599 75.9897L58.2016 80.935C54.5329 81.8674 50.6641 81.6256 47.14 80.2434L35.6231 75.7261" stroke="#73A648" stroke-width="3" stroke-miterlimit="10" stroke-linecap="round" stroke-linejoin="round"/>
<path d="M13.9615 73.5714H1.62915V44.9339H13.9617L13.9615 73.5714Z" stroke="#73A648" stroke-width="3" stroke-miterlimit="10" stroke-linecap="round" stroke-linejoin="round"/>
<path d="M61.5304 45.0293C63.7621 42.8279 65.606 40.1593 66.8967 37.0894C72.1403 24.6179 66.2809 10.257 53.8094 5.01377C41.338 -0.229797 26.977 5.62961 21.7336 18.101C19.4214 23.6003 19.2694 29.4666 20.8898 34.7567" stroke="#73A648" stroke-width="3" stroke-miterlimit="10" stroke-linecap="round" stroke-linejoin="round"/>
<path d="M16.5225 33.0068L21.1153 35.7134L24.15 31.2844" stroke="#73A648" stroke-width="3" stroke-miterlimit="10" stroke-linecap="round" stroke-linejoin="round"/>
</g>
</svg>
