<svg width="92" height="92" viewBox="0 0 92 92" fill="none" xmlns="http://www.w3.org/2000/svg">
<path d="M74.75 86.25H17.25C16.4875 86.25 15.7562 85.9471 15.2171 85.4079C14.6779 84.8688 14.375 84.1375 14.375 83.375V8.625C14.375 7.8625 14.6779 7.13123 15.2171 6.59207C15.7562 6.0529 16.4875 5.75 17.25 5.75H56.0596C56.8221 5.75016 57.5532 6.05317 58.0922 6.59237L76.7826 25.2827C77.3218 25.8218 77.6248 26.5529 77.625 27.3154V83.375C77.625 84.1375 77.3221 84.8688 76.7829 85.4079C76.2438 85.9471 75.5125 86.25 74.75 86.25ZM20.125 80.5H71.875V28.5056L54.8694 11.5H20.125V80.5Z" fill="#73A648"/>
<path d="M34.5002 40.25C34.1226 40.2502 33.7487 40.1759 33.3999 40.0314C33.0511 39.8868 32.7343 39.6749 32.4675 39.4076L26.7175 33.6576C26.443 33.3924 26.2239 33.0752 26.0733 32.7244C25.9226 32.3736 25.8433 31.9964 25.84 31.6146C25.8366 31.2329 25.9094 30.8543 26.0539 30.501C26.1985 30.1477 26.412 29.8267 26.6819 29.5567C26.9519 29.2868 27.2729 29.0733 27.6262 28.9288C27.9795 28.7842 28.3581 28.7114 28.7398 28.7148C29.1216 28.7181 29.4988 28.7974 29.8496 28.9481C30.2003 29.0987 30.5176 29.3178 30.7828 29.5924L34.1897 32.9992L40.8252 24.15C41.0512 23.8473 41.3348 23.5923 41.6597 23.3995C41.9845 23.2067 42.3443 23.0799 42.7183 23.0265C43.0922 22.9731 43.4731 22.994 43.8389 23.0882C44.2048 23.1823 44.5484 23.3477 44.8502 23.575C45.1528 23.801 45.4079 24.0846 45.6007 24.4095C45.7935 24.7344 45.9202 25.0941 45.9736 25.4681C46.0271 25.842 46.0061 26.2229 45.912 26.5887C45.8179 26.9546 45.6524 27.2982 45.4252 27.6L36.8002 39.1C36.5328 39.4576 36.1857 39.7477 35.7864 39.9474C35.3871 40.147 34.9466 40.2507 34.5002 40.25ZM63.2502 37.375H48.8752C48.1127 37.375 47.3814 37.0721 46.8422 36.5329C46.3031 35.9938 46.0002 35.2625 46.0002 34.5C46.0002 33.7375 46.3031 33.0062 46.8422 32.4671C47.3814 31.9279 48.1127 31.625 48.8752 31.625H63.2502C64.0127 31.625 64.7439 31.9279 65.2831 32.4671C65.8223 33.0062 66.1252 33.7375 66.1252 34.5C66.1252 35.2625 65.8223 35.9938 65.2831 36.5329C64.7439 37.0721 64.0127 37.375 63.2502 37.375ZM34.5002 57.5C34.1226 57.5002 33.7487 57.4259 33.3999 57.2814C33.0511 57.1368 32.7343 56.9249 32.4675 56.6576L26.7175 50.9076C26.443 50.6424 26.2239 50.3252 26.0733 49.9744C25.9226 49.6236 25.8433 49.2464 25.84 48.8646C25.8366 48.4829 25.9094 48.1043 26.0539 47.751C26.1985 47.3977 26.412 47.0767 26.6819 46.8067C26.9519 46.5368 27.2729 46.3233 27.6262 46.1787C27.9795 46.0342 28.3581 45.9614 28.7398 45.9648C29.1216 45.9681 29.4988 46.0474 29.8496 46.1981C30.2003 46.3488 30.5176 46.5678 30.7828 46.8424L34.1897 50.2492L40.8252 41.4C41.0517 41.0979 41.3355 40.8435 41.6604 40.6511C41.9853 40.4588 42.3448 40.3323 42.7186 40.2789C43.0923 40.2255 43.473 40.2462 43.8387 40.3399C44.2044 40.4336 44.5481 40.5985 44.8502 40.825C45.1522 41.0515 45.4067 41.3353 45.599 41.6602C45.7914 41.9851 45.9179 42.3446 45.9713 42.7184C46.0247 43.0922 46.0039 43.4728 45.9102 43.8385C45.8165 44.2042 45.6517 44.5479 45.4252 44.85L36.8002 56.35C36.5328 56.7076 36.1857 56.9977 35.7864 57.1974C35.3871 57.397 34.9466 57.5007 34.5002 57.5ZM63.2502 54.625H48.8752C48.1127 54.625 47.3814 54.3221 46.8422 53.7829C46.3031 53.2438 46.0002 52.5125 46.0002 51.75C46.0002 50.9875 46.3031 50.2562 46.8422 49.7171C47.3814 49.1779 48.1127 48.875 48.8752 48.875H63.2502C64.0127 48.875 64.7439 49.1779 65.2831 49.7171C65.8223 50.2562 66.1252 50.9875 66.1252 51.75C66.1252 52.5125 65.8223 53.2438 65.2831 53.7829C64.7439 54.3221 64.0127 54.625 63.2502 54.625ZM34.5002 74.75C34.1226 74.7502 33.7487 74.6759 33.3999 74.5314C33.0511 74.3868 32.7343 74.1749 32.4675 73.9076L26.7175 68.1576C26.443 67.8924 26.2239 67.5752 26.0733 67.2244C25.9226 66.8736 25.8433 66.4964 25.84 66.1146C25.8366 65.7329 25.9094 65.3543 26.0539 65.001C26.1985 64.6477 26.412 64.3267 26.6819 64.0567C26.9519 63.7868 27.2729 63.5733 27.6262 63.4287C27.9795 63.2842 28.3581 63.2115 28.7398 63.2148C29.1216 63.2181 29.4988 63.2974 29.8496 63.4481C30.2003 63.5988 30.5176 63.8178 30.7828 64.0924L34.1897 67.4992L40.8252 58.65C41.2827 58.04 41.9638 57.6367 42.7186 57.5289C43.4734 57.421 44.2402 57.6175 44.8502 58.075C45.4602 58.5325 45.8634 59.2136 45.9713 59.9684C46.0791 60.7232 45.8827 61.49 45.4252 62.1L36.8002 73.6C36.5328 73.9576 36.1857 74.2477 35.7864 74.4474C35.3871 74.647 34.9466 74.7507 34.5002 74.75ZM63.2502 71.875H48.8752C48.1127 71.875 47.3814 71.5721 46.8422 71.0329C46.3031 70.4938 46.0002 69.7625 46.0002 69C46.0002 68.2375 46.3031 67.5062 46.8422 66.9671C47.3814 66.4279 48.1127 66.125 48.8752 66.125H63.2502C64.0127 66.125 64.7439 66.4279 65.2831 66.9671C65.8223 67.5062 66.1252 68.2375 66.1252 69C66.1252 69.7625 65.8223 70.4938 65.2831 71.0329C64.7439 71.5721 64.0127 71.875 63.2502 71.875Z" fill="#73A648"/>
</svg>
