<svg width="75" height="75" viewBox="0 0 75 75" fill="none" xmlns="http://www.w3.org/2000/svg">
<g clip-path="url(#clip0_31_4054)">
<path d="M10.1761 63.3511L1.46484 63.3511C0.655801 63.3511 -6.66834e-06 64.0068 -6.73908e-06 64.816L-7.50133e-06 73.5351C-7.57206e-06 74.3442 0.6558 75 1.46484 75L10.1761 75C10.9851 75 11.641 74.3442 11.641 73.5352L11.641 70.6403L31.6796 70.6403L31.6796 73.5352C31.6796 74.3442 32.3352 75 33.1444 75L41.8556 75C42.6647 75 43.3204 74.3442 43.3204 73.5352L43.3204 70.6403L63.359 70.6403L63.359 73.5352C63.359 74.3442 64.0148 75 64.8239 75L73.5352 75C74.3442 75 75 74.3442 75 73.5352L75 64.816C75 64.0068 74.3442 63.3511 73.5352 63.3511L64.8239 63.3511C64.0148 63.3511 63.359 64.0068 63.359 64.816L63.359 67.7106L51.1734 67.7106C55.5029 65.7469 59.3604 62.8768 62.4853 59.2941C67.4282 53.6281 70.2855 46.4584 70.6157 38.9648L73.5352 38.9648C74.3442 38.9648 75 38.309 75 37.5L75 28.7808C75 27.9716 74.3442 27.316 73.5352 27.316L64.8239 27.316C64.0148 27.316 63.359 27.9716 63.359 28.7808L63.359 37.5C63.359 38.309 64.0148 38.9648 64.8239 38.9648L67.6827 38.9648C67.0074 52.7692 56.8525 64.524 43.3204 67.1665L43.3204 64.8154C43.3204 64.0062 42.6647 63.3505 41.8556 63.3505L33.1444 63.3505C32.3352 63.3505 31.6796 64.0062 31.6796 64.8154L31.6796 67.1665C18.1474 64.524 7.99248 52.7692 7.31733 38.9648L10.1763 38.9648C10.9853 38.9648 11.6411 38.309 11.6411 37.5L11.6411 28.7808C11.6411 27.9716 10.9853 27.316 10.1763 27.316L1.46484 27.316C0.655804 27.316 -3.51804e-06 27.9716 -3.58878e-06 28.7808L-4.35104e-06 37.5C-4.42177e-06 38.309 0.655803 38.9648 1.46484 38.9648L4.38427 38.9648C4.71445 46.4584 7.57192 53.6282 12.5147 59.2941C15.6396 62.8768 19.4971 65.7469 23.8266 67.7106L11.641 67.7106L11.641 64.8154C11.641 64.0068 10.9851 63.3511 10.1761 63.3511ZM66.2887 66.2808L72.0703 66.2808L72.0703 72.0703L66.2887 72.0703L66.2887 66.2808ZM66.2887 30.2457L72.0703 30.2457L72.0703 36.0352L66.2887 36.0352L66.2887 30.2457ZM2.92968 30.2456L8.71128 30.2456L8.71128 36.0352L2.92968 36.0351L2.92968 30.2456ZM34.6093 66.2808L40.3907 66.2808L40.3907 72.0703L34.6093 72.0703L34.6093 66.2808ZM8.71127 72.0703L2.92968 72.0703L2.92968 66.2808L8.71127 66.2808L8.71127 72.0703Z" fill="#73A648"/>
<path d="M36.217 58.8609C36.3434 59.0905 36.5291 59.282 36.7548 59.4154C36.9804 59.5487 37.2377 59.6191 37.4999 59.6191C37.762 59.6191 38.0193 59.5487 38.2449 59.4154C38.4706 59.282 38.6563 59.0905 38.7828 58.8609L44.867 47.8151C45.2572 47.1062 44.9991 46.2152 44.2901 45.8256C43.5823 45.4354 42.691 45.6929 42.3006 46.4019L38.9647 52.4585L38.9647 41.6559C40.9983 41.0288 42.4803 39.132 42.4803 36.8952C42.4803 34.1492 40.2459 31.9147 37.4999 31.9147C34.7539 31.9147 32.5194 34.1492 32.5194 36.8952C32.5194 39.132 34.0014 41.0288 36.035 41.6559L36.035 52.4585L25.9855 34.2122C29.2871 30.8728 31.5375 26.5891 32.4117 21.9727L42.588 21.9727C43.4628 26.5893 45.7132 30.8728 49.0143 34.2122L47.3356 37.2602C46.9452 37.9686 47.2033 38.8595 47.9117 39.2498C48.6201 39.64 49.5116 39.3826 49.9018 38.6736L52.1219 34.6418C52.2804 34.3541 52.3376 34.0216 52.2843 33.6975C52.2311 33.3735 52.0705 33.0767 51.8284 32.8548C48.6738 29.9657 46.4835 26.1388 45.5772 21.9727L46.9412 21.9727C49.3645 21.9727 51.3358 20.001 51.3358 17.5781C51.3358 15.8684 50.3543 14.3852 48.9256 13.6591L48.9256 1.46485C48.9256 0.655815 48.2698 7.27674e-06 47.4608 7.20601e-06C46.6518 7.13529e-06 45.996 0.655815 45.996 1.46485L45.996 13.1836L29.0038 13.1836L29.0038 1.46485C29.0038 0.655813 28.348 5.53512e-06 27.5389 5.46439e-06C26.7299 5.39366e-06 26.0741 0.655813 26.0741 1.46485L26.0741 13.6591C24.6453 14.3852 23.664 15.8689 23.664 17.5781C23.664 20.0014 25.6352 21.9727 28.0585 21.9727L29.4226 21.9727C28.5163 26.1394 26.3259 29.9657 23.1713 32.8554C22.9291 33.0773 22.7685 33.3741 22.7153 33.6982C22.6621 34.0223 22.7193 34.3549 22.8778 34.6425L36.217 58.8609ZM37.4999 34.8444C38.6306 34.8444 39.5506 35.7645 39.5506 36.8952C39.5506 38.0265 38.6306 38.9459 37.4999 38.9459C36.3691 38.9459 35.4491 38.0265 35.4491 36.8952C35.4491 35.7645 36.3691 34.8444 37.4999 34.8444ZM26.5937 17.5781C26.5937 16.7701 27.2505 16.1133 28.0585 16.1133L46.9412 16.1133C47.7492 16.1133 48.4061 16.7701 48.4061 17.5781C48.4061 18.3861 47.7492 19.043 46.9412 19.043L28.0585 19.043C27.2505 19.043 26.5937 18.3861 26.5937 17.5781Z" fill="#73A648"/>
<path d="M46.1968 40.9979C45.8111 40.9979 45.4336 41.1535 45.1611 41.426C44.8874 41.7018 44.7333 42.0742 44.7319 42.4628C44.7319 42.8485 44.8887 43.2245 45.1611 43.4984C45.4364 43.7722 45.8085 43.9264 46.1968 43.9276C46.5835 43.9276 46.9613 43.7709 47.2336 43.4984C47.5067 43.2228 47.6605 42.8508 47.6616 42.4628C47.6607 42.0743 47.507 41.7019 47.2336 41.426C46.9578 41.1523 46.5853 40.9985 46.1968 40.9979Z" fill="#73A648"/>
</g>
<defs>
<clipPath id="clip0_31_4054">
<rect width="75" height="75" fill="white" transform="translate(75 75) rotate(-180)"/>
</clipPath>
</defs>
</svg>
