<svg width="100" height="121" viewBox="0 0 100 121" fill="none" xmlns="http://www.w3.org/2000/svg">
<path d="M98 50C98 87.3333 50 119.333 50 119.333C50 119.333 2 87.3333 2 50C2 37.2696 7.05713 25.0606 16.0589 16.0589C25.0606 7.05713 37.2696 2 50 2C62.7304 2 74.9394 7.05713 83.9411 16.0589C92.9429 25.0606 98 37.2696 98 50Z" stroke="#263238" stroke-width="3" stroke-linecap="round" stroke-linejoin="round"/>
<path d="M50 66C58.8366 66 66 58.8366 66 50C66 41.1634 58.8366 34 50 34C41.1634 34 34 41.1634 34 50C34 58.8366 41.1634 66 50 66Z" stroke="#263238" stroke-width="3" stroke-linecap="round" stroke-linejoin="round"/>
</svg>
