<svg width="167" height="167" viewBox="0 0 167 167" fill="none" xmlns="http://www.w3.org/2000/svg">
<circle cx="83.5" cy="83.5" r="82" stroke="#73A649" stroke-width="3" stroke-dasharray="6 6"/>
<path d="M119.027 55.4167H100.333V45.437C100.333 41.9335 97.4831 39.0833 93.9796 39.0833H49.5203C46.0168 39.0833 43.1666 41.9335 43.1666 45.437V122.563C43.1666 126.067 46.0168 128.917 49.5203 128.917H93.9796C97.4831 128.917 100.333 126.067 100.333 122.563V112.583H119.027C122.228 112.583 124.833 109.978 124.833 106.777V61.2232C124.833 58.0218 122.228 55.4167 119.027 55.4167ZM120.75 61.2232V63.5833H100.448C100.178 63.5854 99.914 63.5114 99.685 63.3698C99.456 63.2282 99.2717 63.0248 99.1532 62.783L97.5117 59.5H119.027C119.978 59.5 120.75 60.2718 120.75 61.2232ZM82.7382 43.1667L80.6965 47.25H62.8034L60.7617 43.1667H82.7382ZM93.9796 124.833H49.5203C48.9185 124.832 48.3417 124.593 47.9161 124.167C47.4906 123.742 47.251 123.165 47.25 122.563V120.75H96.25V122.563C96.2489 123.165 96.0093 123.742 95.5838 124.167C95.1583 124.593 94.5814 124.832 93.9796 124.833ZM96.25 116.667H47.25V45.437C47.25 44.1875 48.2708 43.1667 49.5203 43.1667H56.1965L59.7164 50.2063C59.8861 50.545 60.1467 50.8298 60.4691 51.0289C60.7914 51.2279 61.1628 51.3333 61.5416 51.3333H81.9583C82.3371 51.3333 82.7085 51.2279 83.0309 51.0289C83.3532 50.8298 83.6138 50.545 83.7835 50.2063L87.3034 43.1667H93.9796C95.2332 43.1667 96.25 44.1875 96.25 45.437V55.4167H69.3898C66.1885 55.4167 63.5833 58.0218 63.5833 61.2232V106.777C63.5833 109.978 66.1885 112.583 69.3898 112.583H96.25V116.667ZM119.027 108.5H69.3898C69.1635 108.5 68.9394 108.455 68.7304 108.369C68.5213 108.282 68.3313 108.155 68.1713 107.995C68.0113 107.835 67.8844 107.645 67.7978 107.436C67.7112 107.227 67.6666 107.003 67.6666 106.777V61.2232C67.6666 60.2718 68.4384 59.5 69.3898 59.5H92.9465L95.4986 64.6042C96.4419 66.4948 98.3406 67.6667 100.448 67.6667H120.75V106.777C120.75 107.003 120.705 107.227 120.619 107.436C120.532 107.645 120.405 107.835 120.245 107.995C120.085 108.155 119.895 108.282 119.686 108.369C119.477 108.455 119.253 108.5 119.027 108.5Z" fill="#73A648"/>
<path d="M76.4295 83.4038C77.2217 84.196 78.5243 84.196 79.3164 83.4038C80.1086 82.6117 80.1086 81.3091 79.3164 80.5169L76.6786 77.875L79.3164 75.2372C79.6883 74.8521 79.8941 74.3364 79.8895 73.8011C79.8848 73.2658 79.6701 72.7537 79.2916 72.3751C78.913 71.9966 78.4009 71.7819 77.8656 71.7772C77.3303 71.7726 76.8146 71.9784 76.4295 72.3503L72.3462 76.4336C71.9634 76.8165 71.7484 77.3357 71.7484 77.8771C71.7484 78.4184 71.9634 78.9376 72.3462 79.3205L76.4295 83.4038ZM85.127 83.7836C85.612 84.0236 86.1722 84.0622 86.6855 83.8909C87.1987 83.7195 87.6234 83.3522 87.8669 82.8689L91.9503 74.7023C92.4525 73.7018 92.0401 72.4646 91.0356 71.9623C90.0311 71.4601 88.7979 71.8725 88.2957 72.877L84.2124 81.0437C83.9734 81.5288 83.9354 82.0886 84.1067 82.6016C84.2779 83.1146 84.6446 83.5393 85.127 83.7836ZM96.8462 83.4038C97.2301 83.7846 97.7489 83.9983 98.2896 83.9983C98.8304 83.9983 99.3492 83.7846 99.7331 83.4038L103.816 79.3205C104.199 78.9376 104.414 78.4184 104.414 77.8771C104.414 77.3357 104.199 76.8165 103.816 76.4336L99.7331 72.3503C99.348 71.9784 98.8323 71.7726 98.297 71.7772C97.7617 71.7819 97.2496 71.9966 96.8711 72.3751C96.4925 72.7537 96.2778 73.2658 96.2731 73.8011C96.2685 74.3364 96.4743 74.8521 96.8462 75.2372L99.484 77.875L96.8462 80.5128C96.4671 80.8985 96.2547 81.4176 96.2547 81.9583C96.2547 82.4991 96.4671 83.0182 96.8462 83.4038ZM73.7917 96.25H94.2084C94.7498 96.25 95.2691 96.0349 95.652 95.652C96.0349 95.2691 96.25 94.7498 96.25 94.2083C96.25 93.6669 96.0349 93.1476 95.652 92.7647C95.2691 92.3818 94.7498 92.1667 94.2084 92.1667H73.7917C73.2502 92.1667 72.7309 92.3818 72.348 92.7647C71.9651 93.1476 71.75 93.6669 71.75 94.2083C71.75 94.7498 71.9651 95.2691 72.348 95.652C72.7309 96.0349 73.2502 96.25 73.7917 96.25ZM110.542 100.333H73.7917C73.2502 100.333 72.7309 100.548 72.348 100.931C71.9651 101.314 71.75 101.834 71.75 102.375C71.75 102.916 71.9651 103.436 72.348 103.819C72.7309 104.202 73.2502 104.417 73.7917 104.417H110.542C111.083 104.417 111.602 104.202 111.985 103.819C112.368 103.436 112.583 102.916 112.583 102.375C112.583 101.834 112.368 101.314 111.985 100.931C111.602 100.548 111.083 100.333 110.542 100.333Z" fill="#73A648"/>
<path d="M86.0417 67.6667C87.1692 67.6667 88.0833 66.7526 88.0833 65.625C88.0833 64.4974 87.1692 63.5833 86.0417 63.5833C84.9141 63.5833 84 64.4974 84 65.625C84 66.7526 84.9141 67.6667 86.0417 67.6667Z" fill="#73A648"/>
<path d="M77.8749 67.6667C79.0025 67.6667 79.9166 66.7526 79.9166 65.625C79.9166 64.4974 79.0025 63.5833 77.8749 63.5833C76.7473 63.5833 75.8333 64.4974 75.8333 65.625C75.8333 66.7526 76.7473 67.6667 77.8749 67.6667Z" fill="#73A648"/>
</svg>
