<svg width="238" height="444" viewBox="0 0 238 444" fill="none" xmlns="http://www.w3.org/2000/svg">
<g clip-path="url(#clip0_128_613)">
<path d="M166.082 366.946L167.905 365.068L368.514 162.189L360.708 133.792L149.73 347.142L147.907 349.02L134.404 362.678L162.948 370.133L166.082 366.946Z" fill="#AAC990"/>
<path d="M120.616 322.159L122.496 320.224L348.972 91.1674L341.166 62.77L104.321 302.298L102.441 304.233L63.0143 344.069L91.5588 351.524L120.616 322.159Z" fill="#AAC990"/>
<path d="M77.0306 275.437L329.43 20.1456L323.903 3.05176e-05L161.923 163.783L0.000457764 327.622L20.2265 332.915L75.1504 277.315L77.0306 275.437Z" fill="#AAC990"/>
<path d="M205.737 381.287L223 385.783L234.281 388.742L388.057 233.268L384.98 222L380.251 204.814L205.737 381.287Z" fill="#AAC990"/>
</g>
<defs>
<clipPath id="clip0_128_613">
<rect width="446" height="444" fill="white" transform="matrix(-1 0 0 -1 446 444)"/>
</clipPath>
</defs>
</svg>
