<svg width="99" height="100" viewBox="0 0 99 100" fill="none" xmlns="http://www.w3.org/2000/svg">
<path d="M60.9791 20.3333C65.4558 21.2068 69.5701 23.3962 72.7953 26.6214C76.0205 29.8466 78.2099 33.9608 79.0833 38.4375L60.9791 20.3333ZM60.9791 2C70.28 3.03325 78.9531 7.1983 85.5744 13.8113C92.1957 20.4243 96.3717 29.0921 97.4166 38.3917L60.9791 2ZM92.8333 74.9667V88.7167C92.8385 89.9931 92.577 91.2566 92.0656 92.4262C91.5543 93.5957 90.8043 94.6456 89.8637 95.5086C88.9231 96.3715 87.8126 97.0285 86.6034 97.4374C85.3942 97.8463 84.1129 97.9982 82.8416 97.8833C68.738 96.3509 55.1904 91.5315 43.2875 83.8125C32.2134 76.7755 22.8244 67.3866 15.7875 56.3125C8.04154 44.3555 3.22109 30.7421 1.71664 16.575C1.60211 15.3076 1.75274 14.0302 2.15894 12.8241C2.56514 11.6181 3.21801 10.5098 4.07599 9.56993C4.93397 8.63004 5.97825 7.87908 7.14235 7.36489C8.30646 6.8507 9.56487 6.58453 10.8375 6.58333H24.5875C26.8118 6.56144 28.9682 7.34911 30.6547 8.79952C32.3412 10.2499 33.4428 12.2641 33.7541 14.4667C34.3345 18.867 35.4108 23.1875 36.9625 27.3458C37.5791 28.9863 37.7126 30.7692 37.347 32.4832C36.9815 34.1972 36.1323 35.7705 34.9 37.0167L29.0791 42.8375C35.6038 54.3121 45.1046 63.8129 56.5791 70.3375L62.4 64.5167C63.6461 63.2844 65.2194 62.4351 66.9334 62.0696C68.6474 61.704 70.4303 61.8375 72.0708 62.4542C76.2291 64.0059 80.5497 65.0821 84.95 65.6625C87.1764 65.9766 89.2097 67.098 90.6632 68.8135C92.1168 70.529 92.8891 72.7189 92.8333 74.9667Z" stroke="#263238" stroke-width="3" stroke-linecap="round" stroke-linejoin="round"/>
</svg>
