<svg width="198" height="198" viewBox="0 0 198 198" fill="none" xmlns="http://www.w3.org/2000/svg">
<g filter="url(#filter0_d_132_1004)">
<circle cx="99" cy="95" r="95" fill="white"/>
</g>
<path d="M127.75 135.25H70.25C69.4875 135.25 68.7562 134.947 68.2171 134.408C67.6779 133.869 67.375 133.137 67.375 132.375V57.625C67.375 56.8625 67.6779 56.1312 68.2171 55.5921C68.7562 55.0529 69.4875 54.75 70.25 54.75H109.06C109.822 54.7502 110.553 55.0532 111.092 55.5924L129.783 74.2827C130.322 74.8218 130.625 75.5529 130.625 76.3154V132.375C130.625 133.137 130.322 133.869 129.783 134.408C129.244 134.947 128.512 135.25 127.75 135.25ZM73.125 129.5H124.875V77.5056L107.869 60.5H73.125V129.5Z" fill="#73A648"/>
<path d="M87.5002 89.25C87.1226 89.2502 86.7487 89.1759 86.3999 89.0314C86.0511 88.8868 85.7343 88.6749 85.4675 88.4076L79.7175 82.6576C79.443 82.3924 79.2239 82.0752 79.0733 81.7244C78.9226 81.3736 78.8433 80.9964 78.84 80.6146C78.8366 80.2329 78.9094 79.8543 79.0539 79.501C79.1985 79.1477 79.412 78.8267 79.6819 78.5567C79.9519 78.2868 80.2729 78.0733 80.6262 77.9288C80.9795 77.7842 81.3581 77.7114 81.7398 77.7148C82.1216 77.7181 82.4988 77.7974 82.8496 77.9481C83.2003 78.0987 83.5176 78.3178 83.7828 78.5924L87.1897 81.9992L93.8252 73.15C94.0512 72.8473 94.3348 72.5923 94.6597 72.3995C94.9845 72.2067 95.3443 72.0799 95.7183 72.0265C96.0922 71.9731 96.4731 71.994 96.8389 72.0882C97.2048 72.1823 97.5484 72.3477 97.8502 72.575C98.1528 72.801 98.4079 73.0846 98.6007 73.4095C98.7935 73.7344 98.9202 74.0941 98.9736 74.4681C99.0271 74.842 99.0061 75.2229 98.912 75.5887C98.8179 75.9546 98.6524 76.2982 98.4252 76.6L89.8002 88.1C89.5328 88.4576 89.1857 88.7477 88.7864 88.9474C88.3871 89.147 87.9466 89.2507 87.5002 89.25ZM116.25 86.375H101.875C101.113 86.375 100.381 86.0721 99.8422 85.5329C99.3031 84.9938 99.0002 84.2625 99.0002 83.5C99.0002 82.7375 99.3031 82.0062 99.8422 81.4671C100.381 80.9279 101.113 80.625 101.875 80.625H116.25C117.013 80.625 117.744 80.9279 118.283 81.4671C118.822 82.0062 119.125 82.7375 119.125 83.5C119.125 84.2625 118.822 84.9938 118.283 85.5329C117.744 86.0721 117.013 86.375 116.25 86.375ZM87.5002 106.5C87.1226 106.5 86.7487 106.426 86.3999 106.281C86.0511 106.137 85.7343 105.925 85.4675 105.658L79.7175 99.9076C79.443 99.6424 79.2239 99.3252 79.0733 98.9744C78.9226 98.6236 78.8433 98.2464 78.84 97.8646C78.8366 97.4829 78.9094 97.1043 79.0539 96.751C79.1985 96.3977 79.412 96.0767 79.6819 95.8067C79.9519 95.5368 80.2729 95.3233 80.6262 95.1787C80.9795 95.0342 81.3581 94.9614 81.7398 94.9648C82.1216 94.9681 82.4988 95.0474 82.8496 95.1981C83.2003 95.3488 83.5176 95.5678 83.7828 95.8424L87.1897 99.2492L93.8252 90.4C94.0517 90.0979 94.3355 89.8435 94.6604 89.6511C94.9853 89.4588 95.3448 89.3323 95.7186 89.2789C96.0923 89.2255 96.473 89.2462 96.8387 89.3399C97.2044 89.4336 97.5481 89.5985 97.8502 89.825C98.1522 90.0515 98.4067 90.3353 98.599 90.6602C98.7914 90.9851 98.9179 91.3446 98.9713 91.7184C99.0247 92.0922 99.0039 92.4728 98.9102 92.8385C98.8165 93.2042 98.6517 93.5479 98.4252 93.85L89.8002 105.35C89.5328 105.708 89.1857 105.998 88.7864 106.197C88.3871 106.397 87.9466 106.501 87.5002 106.5ZM116.25 103.625H101.875C101.113 103.625 100.381 103.322 99.8422 102.783C99.3031 102.244 99.0002 101.512 99.0002 100.75C99.0002 99.9875 99.3031 99.2562 99.8422 98.7171C100.381 98.1779 101.113 97.875 101.875 97.875H116.25C117.013 97.875 117.744 98.1779 118.283 98.7171C118.822 99.2562 119.125 99.9875 119.125 100.75C119.125 101.512 118.822 102.244 118.283 102.783C117.744 103.322 117.013 103.625 116.25 103.625ZM87.5002 123.75C87.1226 123.75 86.7487 123.676 86.3999 123.531C86.0511 123.387 85.7343 123.175 85.4675 122.908L79.7175 117.158C79.443 116.892 79.2239 116.575 79.0733 116.224C78.9226 115.874 78.8433 115.496 78.84 115.115C78.8366 114.733 78.9094 114.354 79.0539 114.001C79.1985 113.648 79.412 113.327 79.6819 113.057C79.9519 112.787 80.2729 112.573 80.6262 112.429C80.9795 112.284 81.3581 112.211 81.7398 112.215C82.1216 112.218 82.4988 112.297 82.8496 112.448C83.2003 112.599 83.5176 112.818 83.7828 113.092L87.1897 116.499L93.8252 107.65C94.2827 107.04 94.9638 106.637 95.7186 106.529C96.4734 106.421 97.2402 106.617 97.8502 107.075C98.4602 107.532 98.8634 108.214 98.9713 108.968C99.0791 109.723 98.8827 110.49 98.4252 111.1L89.8002 122.6C89.5328 122.958 89.1857 123.248 88.7864 123.447C88.3871 123.647 87.9466 123.751 87.5002 123.75ZM116.25 120.875H101.875C101.113 120.875 100.381 120.572 99.8422 120.033C99.3031 119.494 99.0002 118.762 99.0002 118C99.0002 117.237 99.3031 116.506 99.8422 115.967C100.381 115.428 101.113 115.125 101.875 115.125H116.25C117.013 115.125 117.744 115.428 118.283 115.967C118.822 116.506 119.125 117.237 119.125 118C119.125 118.762 118.822 119.494 118.283 120.033C117.744 120.572 117.013 120.875 116.25 120.875Z" fill="#73A648"/>
<circle cx="147.5" cy="165.5" r="16.5" fill="#292929"/>
<path d="M147.308 165.529V167.621C147.308 168.623 147.208 169.479 147.009 170.188C146.815 170.891 146.534 171.462 146.165 171.901C145.796 172.341 145.354 172.663 144.838 172.868C144.328 173.073 143.757 173.176 143.124 173.176C142.62 173.176 142.151 173.111 141.718 172.982C141.29 172.854 140.903 172.651 140.558 172.376C140.212 172.101 139.916 171.746 139.67 171.312C139.43 170.873 139.242 170.349 139.107 169.739C138.979 169.13 138.914 168.424 138.914 167.621V165.529C138.914 164.521 139.014 163.672 139.213 162.98C139.412 162.283 139.696 161.718 140.065 161.284C140.435 160.845 140.874 160.525 141.384 160.326C141.899 160.127 142.474 160.027 143.106 160.027C143.616 160.027 144.085 160.092 144.513 160.221C144.946 160.344 145.333 160.54 145.673 160.81C146.019 161.079 146.312 161.431 146.552 161.864C146.798 162.292 146.985 162.811 147.114 163.42C147.243 164.023 147.308 164.727 147.308 165.529ZM145.189 167.92V165.213C145.189 164.703 145.16 164.255 145.102 163.868C145.043 163.476 144.955 163.145 144.838 162.875C144.727 162.6 144.586 162.377 144.416 162.207C144.246 162.031 144.053 161.905 143.836 161.829C143.619 161.747 143.376 161.706 143.106 161.706C142.778 161.706 142.485 161.771 142.228 161.899C141.97 162.022 141.753 162.222 141.577 162.497C141.401 162.772 141.267 163.136 141.173 163.587C141.085 164.032 141.041 164.574 141.041 165.213V167.92C141.041 168.436 141.07 168.89 141.129 169.282C141.188 169.675 141.275 170.012 141.393 170.293C141.51 170.568 141.65 170.797 141.814 170.979C141.984 171.154 142.178 171.283 142.395 171.365C142.617 171.447 142.86 171.488 143.124 171.488C143.458 171.488 143.754 171.424 144.012 171.295C144.27 171.166 144.486 170.961 144.662 170.68C144.838 170.393 144.97 170.021 145.058 169.563C145.146 169.106 145.189 168.559 145.189 167.92ZM154.98 160.159V173H152.862V162.673L149.725 163.736V161.987L154.726 160.159H154.98Z" fill="#D9D9D9"/>
<defs>
<filter id="filter0_d_132_1004" x="0" y="0" width="198" height="198" filterUnits="userSpaceOnUse" color-interpolation-filters="sRGB">
<feFlood flood-opacity="0" result="BackgroundImageFix"/>
<feColorMatrix in="SourceAlpha" type="matrix" values="0 0 0 0 0 0 0 0 0 0 0 0 0 0 0 0 0 0 127 0" result="hardAlpha"/>
<feOffset dy="4"/>
<feGaussianBlur stdDeviation="2"/>
<feComposite in2="hardAlpha" operator="out"/>
<feColorMatrix type="matrix" values="0 0 0 0 0 0 0 0 0 0 0 0 0 0 0 0 0 0 0.25 0"/>
<feBlend mode="normal" in2="BackgroundImageFix" result="effect1_dropShadow_132_1004"/>
<feBlend mode="normal" in="SourceGraphic" in2="effect1_dropShadow_132_1004" result="shape"/>
</filter>
</defs>
</svg>
