<svg width="200" height="198" viewBox="0 0 200 198" fill="none" xmlns="http://www.w3.org/2000/svg">
<g filter="url(#filter0_d_132_1003)">
<circle cx="99" cy="95" r="95" fill="white"/>
</g>
<g clip-path="url(#clip0_132_1003)">
<path d="M71.1761 121.351L62.4648 121.351C61.6558 121.351 61 122.007 61 122.816L61 131.535C61 132.344 61.6558 133 62.4648 133L71.1761 133C71.9851 133 72.641 132.344 72.641 131.535L72.641 128.64L92.6796 128.64L92.6796 131.535C92.6796 132.344 93.3352 133 94.1444 133L102.856 133C103.665 133 104.32 132.344 104.32 131.535L104.32 128.64L124.359 128.64L124.359 131.535C124.359 132.344 125.015 133 125.824 133L134.535 133C135.344 133 136 132.344 136 131.535L136 122.816C136 122.007 135.344 121.351 134.535 121.351L125.824 121.351C125.015 121.351 124.359 122.007 124.359 122.816L124.359 125.711L112.173 125.711C116.503 123.747 120.36 120.877 123.485 117.294C128.428 111.628 131.286 104.458 131.616 96.9648L134.535 96.9648C135.344 96.9648 136 96.309 136 95.5L136 86.7808C136 85.9716 135.344 85.316 134.535 85.316L125.824 85.316C125.015 85.316 124.359 85.9716 124.359 86.7808L124.359 95.5C124.359 96.309 125.015 96.9648 125.824 96.9648L128.683 96.9648C128.007 110.769 117.852 122.524 104.32 125.166L104.32 122.815C104.32 122.006 103.665 121.351 102.856 121.351L94.1444 121.351C93.3352 121.351 92.6796 122.006 92.6796 122.815L92.6796 125.166C79.1474 122.524 68.9925 110.769 68.3173 96.9648L71.1763 96.9648C71.9853 96.9648 72.6411 96.309 72.6411 95.5L72.6411 86.7808C72.6411 85.9716 71.9853 85.316 71.1763 85.316L62.4648 85.316C61.6558 85.316 61 85.9716 61 86.7808L61 95.5C61 96.309 61.6558 96.9648 62.4648 96.9648L65.3843 96.9648C65.7144 104.458 68.5719 111.628 73.5147 117.294C76.6396 120.877 80.4971 123.747 84.8266 125.711L72.641 125.711L72.641 122.815C72.641 122.007 71.9851 121.351 71.1761 121.351ZM127.289 124.281L133.07 124.281L133.07 130.07L127.289 130.07L127.289 124.281ZM127.289 88.2457L133.07 88.2457L133.07 94.0352L127.289 94.0352L127.289 88.2457ZM63.9297 88.2456L69.7113 88.2456L69.7113 94.0352L63.9297 94.0351L63.9297 88.2456ZM95.6093 124.281L101.391 124.281L101.391 130.07L95.6093 130.07L95.6093 124.281ZM69.7113 130.07L63.9297 130.07L63.9297 124.281L69.7113 124.281L69.7113 130.07Z" fill="#73A648"/>
<path d="M97.217 116.861C97.3434 117.091 97.5291 117.282 97.7548 117.415C97.9804 117.549 98.2377 117.619 98.4999 117.619C98.762 117.619 99.0193 117.549 99.2449 117.415C99.4706 117.282 99.6563 117.091 99.7828 116.861L105.867 105.815C106.257 105.106 105.999 104.215 105.29 103.826C104.582 103.435 103.691 103.693 103.301 104.402L99.9647 110.459L99.9647 99.6559C101.998 99.0288 103.48 97.132 103.48 94.8952C103.48 92.1492 101.246 89.9147 98.4999 89.9147C95.7539 89.9147 93.5194 92.1492 93.5194 94.8952C93.5194 97.132 95.0014 99.0288 97.035 99.6559L97.035 110.459L86.9855 92.2122C90.2871 88.8728 92.5375 84.5891 93.4117 79.9727L103.588 79.9727C104.463 84.5893 106.713 88.8728 110.014 92.2122L108.336 95.2602C107.945 95.9686 108.203 96.8595 108.912 97.2498C109.62 97.64 110.512 97.3826 110.902 96.6736L113.122 92.6418C113.28 92.3541 113.338 92.0216 113.284 91.6975C113.231 91.3735 113.071 91.0767 112.828 90.8548C109.674 87.9657 107.483 84.1388 106.577 79.9727L107.941 79.9727C110.365 79.9727 112.336 78.001 112.336 75.5781C112.336 73.8684 111.354 72.3852 109.926 71.6591L109.926 59.4649C109.926 58.6558 109.27 58 108.461 58C107.652 58 106.996 58.6558 106.996 59.4649L106.996 71.1836L90.0038 71.1836L90.0038 59.4648C90.0038 58.6558 89.348 58 88.5389 58C87.7299 58 87.0741 58.6558 87.0741 59.4648L87.0741 71.6591C85.6453 72.3852 84.664 73.8689 84.664 75.5781C84.664 78.0014 86.6352 79.9727 89.0585 79.9727L90.4226 79.9727C89.5163 84.1394 87.3259 87.9657 84.1713 90.8554C83.9291 91.0773 83.7685 91.3741 83.7153 91.6982C83.6621 92.0223 83.7193 92.3549 83.8778 92.6425L97.217 116.861ZM98.4999 92.8444C99.6306 92.8444 100.551 93.7645 100.551 94.8952C100.551 96.0265 99.6306 96.9459 98.4999 96.9459C97.3691 96.9459 96.4491 96.0265 96.4491 94.8952C96.4491 93.7645 97.3691 92.8444 98.4999 92.8444ZM87.5937 75.5781C87.5937 74.7701 88.2505 74.1133 89.0585 74.1133L107.941 74.1133C108.749 74.1133 109.406 74.7701 109.406 75.5781C109.406 76.3861 108.749 77.043 107.941 77.043L89.0585 77.043C88.2505 77.043 87.5937 76.3861 87.5937 75.5781Z" fill="#73A648"/>
<path d="M107.197 98.9979C106.812 98.9979 106.434 99.1535 106.162 99.4259C105.888 99.7017 105.734 100.074 105.732 100.463C105.732 100.848 105.889 101.224 106.162 101.498C106.437 101.772 106.809 101.926 107.197 101.928C107.584 101.928 107.962 101.771 108.234 101.498C108.507 101.223 108.661 100.851 108.662 100.463C108.661 100.074 108.507 99.7019 108.234 99.4259C107.958 99.1523 107.586 98.9985 107.197 98.9979Z" fill="#73A648"/>
</g>
<circle cx="183.5" cy="45.5" r="16.5" fill="#292929"/>
<path d="M182.308 45.5293V47.6211C182.308 48.623 182.208 49.4785 182.009 50.1875C181.815 50.8906 181.534 51.4619 181.165 51.9014C180.796 52.3408 180.354 52.6631 179.838 52.8682C179.328 53.0732 178.757 53.1758 178.124 53.1758C177.62 53.1758 177.151 53.1113 176.718 52.9824C176.29 52.8535 175.903 52.6514 175.558 52.376C175.212 52.1006 174.916 51.7461 174.67 51.3125C174.43 50.873 174.242 50.3486 174.107 49.7393C173.979 49.1299 173.914 48.4238 173.914 47.6211V45.5293C173.914 44.5215 174.014 43.6719 174.213 42.9805C174.412 42.2832 174.696 41.7178 175.065 41.2842C175.435 40.8447 175.874 40.5254 176.384 40.3262C176.899 40.127 177.474 40.0273 178.106 40.0273C178.616 40.0273 179.085 40.0918 179.513 40.2207C179.946 40.3438 180.333 40.54 180.673 40.8096C181.019 41.0791 181.312 41.4307 181.552 41.8643C181.798 42.292 181.985 42.8105 182.114 43.4199C182.243 44.0234 182.308 44.7266 182.308 45.5293ZM180.189 47.9199V45.2129C180.189 44.7031 180.16 44.2549 180.102 43.8682C180.043 43.4756 179.955 43.1445 179.838 42.875C179.727 42.5996 179.586 42.377 179.416 42.207C179.246 42.0312 179.053 41.9053 178.836 41.8291C178.619 41.7471 178.376 41.7061 178.106 41.7061C177.778 41.7061 177.485 41.7705 177.228 41.8994C176.97 42.0225 176.753 42.2217 176.577 42.4971C176.401 42.7725 176.267 43.1357 176.173 43.5869C176.085 44.0322 176.041 44.5742 176.041 45.2129V47.9199C176.041 48.4355 176.07 48.8896 176.129 49.2822C176.188 49.6748 176.275 50.0117 176.393 50.293C176.51 50.5684 176.65 50.7969 176.814 50.9785C176.984 51.1543 177.178 51.2832 177.395 51.3652C177.617 51.4473 177.86 51.4883 178.124 51.4883C178.458 51.4883 178.754 51.4238 179.012 51.2949C179.27 51.166 179.486 50.9609 179.662 50.6797C179.838 50.3926 179.97 50.0205 180.058 49.5635C180.146 49.1064 180.189 48.5586 180.189 47.9199ZM192.775 51.3125V53H184.197V51.5498L188.363 47.0059C188.82 46.4902 189.181 46.0449 189.444 45.6699C189.708 45.2949 189.893 44.958 189.998 44.6592C190.109 44.3545 190.165 44.0586 190.165 43.7715C190.165 43.3672 190.089 43.0127 189.937 42.708C189.79 42.3975 189.573 42.1543 189.286 41.9785C188.999 41.7969 188.65 41.7061 188.24 41.7061C187.766 41.7061 187.367 41.8086 187.045 42.0137C186.723 42.2188 186.479 42.5029 186.315 42.8662C186.151 43.2236 186.069 43.6338 186.069 44.0967H183.951C183.951 43.3525 184.121 42.6729 184.461 42.0576C184.801 41.4365 185.293 40.9443 185.938 40.5811C186.582 40.2119 187.358 40.0273 188.267 40.0273C189.122 40.0273 189.849 40.1709 190.446 40.458C191.044 40.7451 191.498 41.1523 191.809 41.6797C192.125 42.207 192.283 42.8311 192.283 43.5518C192.283 43.9502 192.219 44.3457 192.09 44.7383C191.961 45.1309 191.776 45.5234 191.536 45.916C191.302 46.3027 191.023 46.6924 190.701 47.085C190.379 47.4717 190.024 47.8643 189.638 48.2627L186.869 51.3125H192.775Z" fill="#D9D9D9"/>
<defs>
<filter id="filter0_d_132_1003" x="0" y="0" width="198" height="198" filterUnits="userSpaceOnUse" color-interpolation-filters="sRGB">
<feFlood flood-opacity="0" result="BackgroundImageFix"/>
<feColorMatrix in="SourceAlpha" type="matrix" values="0 0 0 0 0 0 0 0 0 0 0 0 0 0 0 0 0 0 127 0" result="hardAlpha"/>
<feOffset dy="4"/>
<feGaussianBlur stdDeviation="2"/>
<feComposite in2="hardAlpha" operator="out"/>
<feColorMatrix type="matrix" values="0 0 0 0 0 0 0 0 0 0 0 0 0 0 0 0 0 0 0.25 0"/>
<feBlend mode="normal" in2="BackgroundImageFix" result="effect1_dropShadow_132_1003"/>
<feBlend mode="normal" in="SourceGraphic" in2="effect1_dropShadow_132_1003" result="shape"/>
</filter>
<clipPath id="clip0_132_1003">
<rect width="75" height="75" fill="white" transform="translate(136 133) rotate(-180)"/>
</clipPath>
</defs>
</svg>
