<svg width="200" height="198" viewBox="0 0 200 198" fill="none" xmlns="http://www.w3.org/2000/svg">
<g filter="url(#filter0_d_132_1002)">
<ellipse cx="99.6597" cy="95" rx="95.6597" ry="95" fill="white"/>
</g>
<path d="M85.8642 83.6818C84.9551 83.6818 84.046 83.5682 83.0233 83.3409C82.4551 83.2273 82.0006 82.6591 82.1142 81.9773C82.2278 81.0682 82.0006 80.6136 81.8869 80.6136C81.8869 80.6136 81.4324 80.7273 80.7506 81.5227C80.4096 81.9773 79.7278 82.0909 79.2733 81.75C78.0233 80.9545 76.7733 79.7045 75.8642 78.2273C75.5233 77.7727 75.6369 77.0909 76.0915 76.75C76.8869 76.1818 77.0006 75.7273 77.0006 75.6136C76.8869 75.3864 76.3187 75.2727 75.6369 75.3864C75.0687 75.5 74.5006 75.1591 74.2733 74.4773C73.9324 73 73.9324 71.4091 74.3869 69.5909C74.5006 69.0227 75.0687 68.5682 75.7506 68.6818C76.6596 68.7955 77.1142 68.5682 77.1142 68.4545C77.1142 68.4545 76.8869 67.8864 76.2051 67.3182C75.7506 66.9773 75.6369 66.2955 75.9778 65.8409C76.7733 64.5909 78.0233 63.3409 79.5006 62.4318C79.9551 62.0909 80.6369 62.2045 80.9778 62.6591C81.546 63.4545 82.0006 63.5682 82.1142 63.5682C82.3415 63.4545 82.4551 62.8864 82.3415 62.2045C82.2278 61.6364 82.5687 61.0682 83.2506 60.8409C84.7278 60.5 86.3187 60.5 88.1369 60.9545C88.7051 61.0682 89.1596 61.6364 89.046 62.3182C89.046 63.2273 89.3869 63.6818 89.3869 63.6818C89.3869 63.6818 89.9551 63.4545 90.5233 62.7727C90.8642 62.3182 91.546 62.3182 92.0006 62.5455C93.2506 63.3409 94.5006 64.5909 95.4096 66.0682C95.7506 66.5227 95.6369 67.2045 95.1824 67.5455C94.3869 68.1136 94.2733 68.5682 94.2733 68.6818C94.3869 68.7955 94.8415 69.0227 95.6369 68.9091C96.2051 68.7955 96.7733 69.1364 97.0006 69.8182C97.3415 71.2955 97.3415 72.8864 96.8869 74.7045C96.7733 75.2727 96.2051 75.7273 95.5233 75.6136C94.6142 75.5 94.1596 75.7273 94.1596 75.8409C94.1596 75.9545 94.2733 76.4091 94.9551 76.9773C95.4096 77.3182 95.5233 78 95.1824 78.4545C94.3869 79.7045 93.1369 80.9545 91.6596 81.8636C91.2051 82.2045 90.5233 82.0909 90.1824 81.6364C89.6142 80.8409 89.1596 80.7273 89.046 80.7273C88.8187 80.8409 88.7051 81.4091 88.8187 82.0909C88.9324 82.6591 88.5915 83.2273 87.9096 83.4545C87.2278 83.5682 86.546 83.6818 85.8642 83.6818ZM84.5006 81.2955C85.1824 81.4091 85.8642 81.4091 86.546 81.4091C86.6596 80.1591 87.2278 79.1364 88.2506 78.6818C88.7051 78.4545 89.9551 78.2273 91.3187 79.4773C91.8869 79.0227 92.4551 78.5682 92.796 78C91.8869 76.9773 91.6596 75.8409 92.1142 74.8182C92.5687 73.9091 93.5915 73.3409 94.8415 73.3409C94.9551 72.6591 94.9551 71.9773 94.9551 71.2955C93.7051 71.1818 92.796 70.6136 92.2278 69.7045C92.0006 69.1364 91.6596 67.8864 93.0233 66.5227C92.5687 65.9545 92.1142 65.3864 91.546 64.9318C90.5233 65.8409 89.3869 66.0682 88.4778 65.6136C87.5687 65.1591 87.0006 64.1364 87.0006 62.8864C86.3187 62.7727 85.6369 62.7727 84.9551 62.7727C84.8415 64.0227 84.2733 65.0455 83.2506 65.5C82.796 65.8409 81.546 66.1818 80.1824 64.8182C79.6142 65.2727 79.046 65.7273 78.5915 66.2955C79.5006 67.3182 79.7278 68.4545 79.2733 69.3636C78.8187 70.2727 77.796 70.8409 76.546 70.8409C76.4324 71.5227 76.4324 72.2045 76.4324 72.8864C77.6824 73 78.7051 73.5682 79.1596 74.5909C79.3869 75.0455 79.6142 76.2955 78.3642 77.6591C78.8187 78.2273 79.2733 78.7955 79.8415 79.1364C81.2051 78 82.3415 78.2273 82.9096 78.4545C83.8187 79.0227 84.3869 80.0455 84.5006 81.2955Z" fill="#73A648"/>
<path d="M85.637 77.0909C85.0688 77.0909 84.5006 76.9773 83.9324 76.75C81.4324 75.8409 80.0688 73 80.9779 70.5C81.4324 69.25 82.3415 68.2273 83.5915 67.7727C84.7279 67.2046 86.0915 67.2046 87.3415 67.6591C89.8415 68.5682 91.2052 71.4091 90.2961 73.9091C89.8415 75.1591 88.9324 76.0682 87.7961 76.6364C87.0006 76.8636 86.3188 77.0909 85.637 77.0909ZM85.637 69.5909C84.6143 69.5909 83.5915 70.2727 83.137 71.2955C82.9097 71.9773 82.9097 72.6591 83.2506 73.3409C83.5915 74.0227 84.0461 74.4773 84.7279 74.7046C85.4097 74.9318 86.0915 74.9318 86.7733 74.5909C87.4552 74.25 87.9097 73.7955 88.137 73.1136C88.5915 71.75 87.9097 70.2727 86.5461 69.8182C86.2052 69.5909 85.9779 69.5909 85.637 69.5909Z" fill="#73A648"/>
<path d="M129.046 119.023H69.9549C66.2049 119.023 63.1367 115.955 63.1367 112.205V72.2046C63.1367 68.4546 66.2049 65.3864 69.9549 65.3864H76.4322C77.114 65.3864 77.5685 65.8409 77.5685 66.5227C77.5685 67.2046 77.114 67.6591 76.4322 67.6591H69.9549C67.4549 67.6591 65.4094 69.7046 65.4094 72.2046V112.205C65.4094 114.705 67.4549 116.75 69.9549 116.75H129.046C131.546 116.75 133.591 114.705 133.591 112.205V72.0909C133.591 69.5909 131.546 67.5455 129.046 67.5455H94.5004C93.8185 67.5455 93.364 67.0909 93.364 66.4091C93.364 65.7273 93.8185 65.2727 94.5004 65.2727H129.046C132.796 65.2727 135.864 68.3409 135.864 72.0909V112.205C135.864 115.955 132.796 119.023 129.046 119.023Z" fill="#73A648"/>
<path d="M129.046 113.455H69.9547C69.2729 113.455 68.8184 113 68.8184 112.318V72.0909C68.8184 71.4091 69.2729 70.9545 69.9547 70.9545H74.0456C74.7275 70.9545 75.182 71.4091 75.182 72.0909C75.182 72.7727 74.7275 73.2273 74.0456 73.2273H71.0911V111.182H127.909V73.2273H95.9774C95.2956 73.2273 94.8411 72.7727 94.8411 72.0909C94.8411 71.4091 95.2956 70.9545 95.9774 70.9545H129.046C129.727 70.9545 130.182 71.4091 130.182 72.0909V112.318C130.182 113 129.727 113.455 129.046 113.455ZM110.637 130.386H88.2502C87.5684 130.386 87.1138 129.932 87.1138 129.25C87.1138 126.409 89.3865 124.023 92.3411 123.568C93.1365 123.455 93.7047 123.114 94.2729 122.432V118C94.2729 117.318 94.7274 116.864 95.4093 116.864C96.0911 116.864 96.5456 117.318 96.5456 118V122.886C96.5456 123.114 96.432 123.341 96.3184 123.568C95.2956 124.932 94.0456 125.727 92.5684 125.841C91.2047 126.068 90.0684 126.977 89.6138 128.114H109.387C108.932 126.977 107.909 125.955 106.432 125.727C104.955 125.5 103.705 124.705 102.568 123.568C102.341 123.341 102.227 123.114 102.227 122.773V117.886C102.227 117.205 102.682 116.75 103.364 116.75C104.046 116.75 104.5 117.205 104.5 117.886V122.318C105.182 123 105.864 123.341 106.773 123.455C109.727 124.023 111.659 126.409 111.659 129.136V129.25C111.773 129.932 111.318 130.386 110.637 130.386Z" fill="#73A648"/>
<path d="M108.932 102.886C108.591 102.886 108.364 102.773 108.136 102.545L102 96.4091C101.545 95.9545 101.545 95.2727 102 94.8182L108.136 88.6818C108.591 88.2273 109.273 88.2273 109.727 88.6818C110.182 89.1363 110.182 89.8182 109.727 90.2727L104.386 95.6136L109.727 100.955C110.182 101.409 110.182 102.091 109.727 102.545C109.5 102.773 109.273 102.886 108.932 102.886ZM117.341 102.886C117 102.886 116.773 102.773 116.545 102.545C116.091 102.091 116.091 101.409 116.545 100.955L121.886 95.6136L116.545 90.2727C116.091 89.8182 116.091 89.1363 116.545 88.6818C117 88.2273 117.682 88.2273 118.136 88.6818L124.273 94.8182C124.727 95.2727 124.727 95.9545 124.273 96.4091L118.136 102.545C117.909 102.773 117.682 102.886 117.341 102.886ZM111.204 105.5H110.977C110.409 105.386 109.954 104.705 110.068 104.136L113.932 86.75C114.045 86.1818 114.727 85.7273 115.295 85.8409C115.864 85.9545 116.318 86.6363 116.204 87.2045L112.341 104.591C112.227 105.159 111.773 105.5 111.204 105.5ZM90.9772 91.75H78.4772C77.7954 91.75 77.3408 91.2954 77.3408 90.6136C77.3408 89.9318 77.7954 89.4773 78.4772 89.4773H90.9772C91.659 89.4773 92.1135 89.9318 92.1135 90.6136C92.1135 91.2954 91.659 91.75 90.9772 91.75ZM96.8863 97.3182H78.4772C77.7954 97.3182 77.3408 96.8636 77.3408 96.1818C77.3408 95.5 77.7954 95.0454 78.4772 95.0454H96.8863C97.5681 95.0454 98.0226 95.5 98.0226 96.1818C98.0226 96.8636 97.5681 97.3182 96.8863 97.3182ZM96.8863 102.886H78.4772C77.7954 102.886 77.3408 102.432 77.3408 101.75C77.3408 101.068 77.7954 100.614 78.4772 100.614H96.8863C97.5681 100.614 98.0226 101.068 98.0226 101.75C98.0226 102.432 97.5681 102.886 96.8863 102.886Z" fill="#73A648"/>
<circle cx="162.5" cy="165.5" r="16.5" fill="#292929"/>
<path d="M162.308 165.529V167.621C162.308 168.623 162.208 169.479 162.009 170.188C161.815 170.891 161.534 171.462 161.165 171.901C160.796 172.341 160.354 172.663 159.838 172.868C159.328 173.073 158.757 173.176 158.124 173.176C157.62 173.176 157.151 173.111 156.718 172.982C156.29 172.854 155.903 172.651 155.558 172.376C155.212 172.101 154.916 171.746 154.67 171.312C154.43 170.873 154.242 170.349 154.107 169.739C153.979 169.13 153.914 168.424 153.914 167.621V165.529C153.914 164.521 154.014 163.672 154.213 162.98C154.412 162.283 154.696 161.718 155.065 161.284C155.435 160.845 155.874 160.525 156.384 160.326C156.899 160.127 157.474 160.027 158.106 160.027C158.616 160.027 159.085 160.092 159.513 160.221C159.946 160.344 160.333 160.54 160.673 160.81C161.019 161.079 161.312 161.431 161.552 161.864C161.798 162.292 161.985 162.811 162.114 163.42C162.243 164.023 162.308 164.727 162.308 165.529ZM160.189 167.92V165.213C160.189 164.703 160.16 164.255 160.102 163.868C160.043 163.476 159.955 163.145 159.838 162.875C159.727 162.6 159.586 162.377 159.416 162.207C159.246 162.031 159.053 161.905 158.836 161.829C158.619 161.747 158.376 161.706 158.106 161.706C157.778 161.706 157.485 161.771 157.228 161.899C156.97 162.022 156.753 162.222 156.577 162.497C156.401 162.772 156.267 163.136 156.173 163.587C156.085 164.032 156.041 164.574 156.041 165.213V167.92C156.041 168.436 156.07 168.89 156.129 169.282C156.188 169.675 156.275 170.012 156.393 170.293C156.51 170.568 156.65 170.797 156.814 170.979C156.984 171.154 157.178 171.283 157.395 171.365C157.617 171.447 157.86 171.488 158.124 171.488C158.458 171.488 158.754 171.424 159.012 171.295C159.27 171.166 159.486 170.961 159.662 170.68C159.838 170.393 159.97 170.021 160.058 169.563C160.146 169.106 160.189 168.559 160.189 167.92ZM166.685 165.644H167.95C168.442 165.644 168.85 165.559 169.172 165.389C169.5 165.219 169.743 164.984 169.901 164.686C170.06 164.387 170.139 164.044 170.139 163.657C170.139 163.253 170.065 162.907 169.919 162.62C169.778 162.327 169.562 162.102 169.269 161.943C168.981 161.785 168.615 161.706 168.17 161.706C167.795 161.706 167.455 161.782 167.15 161.935C166.852 162.081 166.614 162.292 166.438 162.567C166.263 162.837 166.175 163.159 166.175 163.534H164.048C164.048 162.854 164.227 162.251 164.584 161.724C164.941 161.196 165.428 160.783 166.043 160.484C166.664 160.18 167.361 160.027 168.135 160.027C168.961 160.027 169.682 160.165 170.297 160.44C170.918 160.71 171.401 161.114 171.747 161.653C172.093 162.192 172.266 162.86 172.266 163.657C172.266 164.021 172.181 164.39 172.011 164.765C171.841 165.14 171.589 165.482 171.255 165.793C170.921 166.098 170.505 166.347 170.007 166.54C169.509 166.728 168.932 166.821 168.275 166.821H166.685V165.644ZM166.685 167.296V166.136H168.275C169.025 166.136 169.664 166.224 170.191 166.399C170.725 166.575 171.158 166.818 171.492 167.129C171.826 167.434 172.069 167.782 172.222 168.175C172.38 168.567 172.459 168.983 172.459 169.423C172.459 170.021 172.351 170.554 172.134 171.022C171.923 171.485 171.621 171.878 171.229 172.2C170.836 172.522 170.376 172.766 169.849 172.93C169.327 173.094 168.759 173.176 168.144 173.176C167.593 173.176 167.065 173.1 166.562 172.947C166.058 172.795 165.606 172.569 165.208 172.271C164.81 171.966 164.493 171.588 164.259 171.137C164.03 170.68 163.916 170.152 163.916 169.555H166.034C166.034 169.936 166.122 170.272 166.298 170.565C166.479 170.853 166.731 171.078 167.054 171.242C167.382 171.406 167.757 171.488 168.179 171.488C168.624 171.488 169.008 171.409 169.33 171.251C169.652 171.093 169.898 170.858 170.068 170.548C170.244 170.237 170.332 169.862 170.332 169.423C170.332 168.925 170.235 168.521 170.042 168.21C169.849 167.899 169.573 167.671 169.216 167.524C168.858 167.372 168.437 167.296 167.95 167.296H166.685Z" fill="#D9D9D9"/>
<defs>
<filter id="filter0_d_132_1002" x="0" y="0" width="199.319" height="198" filterUnits="userSpaceOnUse" color-interpolation-filters="sRGB">
<feFlood flood-opacity="0" result="BackgroundImageFix"/>
<feColorMatrix in="SourceAlpha" type="matrix" values="0 0 0 0 0 0 0 0 0 0 0 0 0 0 0 0 0 0 127 0" result="hardAlpha"/>
<feOffset dy="4"/>
<feGaussianBlur stdDeviation="2"/>
<feComposite in2="hardAlpha" operator="out"/>
<feColorMatrix type="matrix" values="0 0 0 0 0 0 0 0 0 0 0 0 0 0 0 0 0 0 0.25 0"/>
<feBlend mode="normal" in2="BackgroundImageFix" result="effect1_dropShadow_132_1002"/>
<feBlend mode="normal" in="SourceGraphic" in2="effect1_dropShadow_132_1002" result="shape"/>
</filter>
</defs>
</svg>
