<svg width="198" height="198" viewBox="0 0 198 198" fill="none" xmlns="http://www.w3.org/2000/svg">
<g filter="url(#filter0_d_132_1001)">
<circle cx="99" cy="95" r="95" fill="white"/>
</g>
<mask id="mask0_132_1001" style="mask-type:luminance" maskUnits="userSpaceOnUse" x="57" y="52" width="84" height="84">
<path d="M138.915 134.5V54.0851H58.5V134.5H138.915Z" fill="white" stroke="white" stroke-width="3"/>
</mask>
<g mask="url(#mask0_132_1001)">
<path d="M101.513 84.8577C98.5134 84.8577 96.0812 82.4255 96.0812 79.4253C96.0812 76.4253 98.5134 73.9931 101.513 73.9931C104.514 73.9931 106.946 76.4253 106.946 79.4253C106.946 82.4255 104.514 84.8577 101.513 84.8577ZM116.852 75.4147C114.925 76.2054 112.663 75.4701 111.594 73.6177C110.523 71.7645 111.018 69.4361 112.668 68.1654C110.759 66.273 108.369 64.8634 105.699 64.1338C105.426 66.2023 103.656 67.7979 101.513 67.7979C99.3713 67.7979 97.6005 66.2023 97.3278 64.1338C94.6574 64.8634 92.2688 66.273 90.3594 68.1654C92.0088 69.4369 92.5039 71.7645 91.4342 73.6177C90.3641 75.4701 88.1017 76.2054 86.1761 75.4147C85.8353 76.7243 85.6632 78.0721 85.6641 79.4253C85.6629 80.7861 85.8369 82.1414 86.1818 83.4577C88.1064 82.6695 90.365 83.4056 91.4342 85.2572C92.5008 87.1057 92.0121 89.4253 90.3731 90.699C92.2809 92.5853 94.6664 93.9907 97.3309 94.7178C97.6136 92.6614 99.3791 91.0772 101.513 91.0772C103.648 91.0772 105.413 92.6614 105.696 94.7178C108.361 93.9907 110.747 92.5853 112.655 90.699C111.016 89.4253 110.526 87.1057 111.594 85.2572C112.663 83.4056 114.92 82.6695 116.846 83.4577C117.191 82.1414 117.365 80.7861 117.364 79.4253C117.364 78.0721 117.192 76.7243 116.852 75.4147Z" stroke="#73A648" stroke-width="3" stroke-miterlimit="10" stroke-linecap="round" stroke-linejoin="round"/>
<path d="M79.0281 122.394H70.9619L70.9621 100.776H88.0941L104.705 107.651C107.611 108.854 108.98 112.195 107.753 115.09L107.697 115.223C106.461 118.142 103.163 119.542 100.233 118.412C95.5188 116.593 89.3368 114.217 89.3368 114.217L105.254 120.336C108.611 121.627 112.277 121.887 115.783 121.085L132.091 117.351C135.079 116.667 138.047 118.57 138.671 121.572C139.267 124.44 137.499 127.268 134.66 127.99L115.202 132.935C111.533 133.867 107.665 133.626 104.141 132.243L92.6236 127.726" stroke="#73A648" stroke-width="3" stroke-miterlimit="10" stroke-linecap="round" stroke-linejoin="round"/>
<path d="M70.9618 125.571H58.6294V96.9339H70.9619L70.9618 125.571Z" stroke="#73A648" stroke-width="3" stroke-miterlimit="10" stroke-linecap="round" stroke-linejoin="round"/>
<path d="M118.531 97.0293C120.762 94.8279 122.606 92.1593 123.897 89.0894C129.141 76.6179 123.281 62.257 110.81 57.0138C98.3383 51.7702 83.9772 57.6296 78.7338 70.101C76.4216 75.6003 76.2696 81.4666 77.89 86.7567" stroke="#73A648" stroke-width="3" stroke-miterlimit="10" stroke-linecap="round" stroke-linejoin="round"/>
<path d="M73.5229 85.0068L78.1158 87.7134L81.1505 83.2844" stroke="#73A648" stroke-width="3" stroke-miterlimit="10" stroke-linecap="round" stroke-linejoin="round"/>
</g>
<circle cx="177.5" cy="45.5" r="16.5" fill="#292929"/>
<path d="M176.308 45.5293V47.6211C176.308 48.623 176.208 49.4785 176.009 50.1875C175.815 50.8906 175.534 51.4619 175.165 51.9014C174.796 52.3408 174.354 52.6631 173.838 52.8682C173.328 53.0732 172.757 53.1758 172.124 53.1758C171.62 53.1758 171.151 53.1113 170.718 52.9824C170.29 52.8535 169.903 52.6514 169.558 52.376C169.212 52.1006 168.916 51.7461 168.67 51.3125C168.43 50.873 168.242 50.3486 168.107 49.7393C167.979 49.1299 167.914 48.4238 167.914 47.6211V45.5293C167.914 44.5215 168.014 43.6719 168.213 42.9805C168.412 42.2832 168.696 41.7178 169.065 41.2842C169.435 40.8447 169.874 40.5254 170.384 40.3262C170.899 40.127 171.474 40.0273 172.106 40.0273C172.616 40.0273 173.085 40.0918 173.513 40.2207C173.946 40.3438 174.333 40.54 174.673 40.8096C175.019 41.0791 175.312 41.4307 175.552 41.8643C175.798 42.292 175.985 42.8105 176.114 43.4199C176.243 44.0234 176.308 44.7266 176.308 45.5293ZM174.189 47.9199V45.2129C174.189 44.7031 174.16 44.2549 174.102 43.8682C174.043 43.4756 173.955 43.1445 173.838 42.875C173.727 42.5996 173.586 42.377 173.416 42.207C173.246 42.0312 173.053 41.9053 172.836 41.8291C172.619 41.7471 172.376 41.7061 172.106 41.7061C171.778 41.7061 171.485 41.7705 171.228 41.8994C170.97 42.0225 170.753 42.2217 170.577 42.4971C170.401 42.7725 170.267 43.1357 170.173 43.5869C170.085 44.0322 170.041 44.5742 170.041 45.2129V47.9199C170.041 48.4355 170.07 48.8896 170.129 49.2822C170.188 49.6748 170.275 50.0117 170.393 50.293C170.51 50.5684 170.65 50.7969 170.814 50.9785C170.984 51.1543 171.178 51.2832 171.395 51.3652C171.617 51.4473 171.86 51.4883 172.124 51.4883C172.458 51.4883 172.754 51.4238 173.012 51.2949C173.27 51.166 173.486 50.9609 173.662 50.6797C173.838 50.3926 173.97 50.0205 174.058 49.5635C174.146 49.1064 174.189 48.5586 174.189 47.9199ZM187.013 48.4385V50.126H177.784L177.714 48.8516L183.233 40.2031H184.93L183.093 43.3496L179.92 48.4385H187.013ZM185.413 40.2031V53H183.295V40.2031H185.413Z" fill="#D9D9D9"/>
<defs>
<filter id="filter0_d_132_1001" x="0" y="0" width="198" height="198" filterUnits="userSpaceOnUse" color-interpolation-filters="sRGB">
<feFlood flood-opacity="0" result="BackgroundImageFix"/>
<feColorMatrix in="SourceAlpha" type="matrix" values="0 0 0 0 0 0 0 0 0 0 0 0 0 0 0 0 0 0 127 0" result="hardAlpha"/>
<feOffset dy="4"/>
<feGaussianBlur stdDeviation="2"/>
<feComposite in2="hardAlpha" operator="out"/>
<feColorMatrix type="matrix" values="0 0 0 0 0 0 0 0 0 0 0 0 0 0 0 0 0 0 0.25 0"/>
<feBlend mode="normal" in2="BackgroundImageFix" result="effect1_dropShadow_132_1001"/>
<feBlend mode="normal" in="SourceGraphic" in2="effect1_dropShadow_132_1001" result="shape"/>
</filter>
</defs>
</svg>
