<svg width="135" height="38" viewBox="0 0 135 38" fill="none" xmlns="http://www.w3.org/2000/svg">
<path d="M74.3345 -60.1734L71.5132 -62.9948L-14.1882 22.7066L-11.3668 25.5279L74.3345 -60.1734Z" fill="#E1ECD8"/>
<path d="M81.3775 -53.1303L78.5562 -55.9517L-7.14519 29.7497L-4.32384 32.571L81.3775 -53.1303Z" fill="#E1ECD8"/>
<path d="M88.4278 -46.08L85.6064 -48.9014L-0.0948929 36.8L2.72646 39.6213L88.4278 -46.08Z" fill="#E1ECD8"/>
<path d="M95.4678 -39.0298L92.6465 -41.8512L6.94514 43.8501L9.7665 46.6715L95.4678 -39.0298Z" fill="#E1ECD8"/>
<path d="M102.524 -31.9868L99.7031 -34.8081L14.0018 50.8932L16.8231 53.7146L102.524 -31.9868Z" fill="#E1ECD8"/>
<path d="M109.575 -24.9365L106.753 -27.7578L21.0521 57.9435L23.8734 60.7649L109.575 -24.9365Z" fill="#E1ECD8"/>
<path d="M116.618 -17.8934L113.796 -20.7147L28.095 64.9866L30.9164 67.808L116.618 -17.8934Z" fill="#E1ECD8"/>
<path d="M123.658 -10.8432L120.836 -13.6646L35.1351 72.0368L37.9564 74.8581L123.658 -10.8432Z" fill="#E1ECD8"/>
<path d="M130.708 -3.7929L127.886 -6.61426L42.1849 79.0871L45.0062 81.9084L130.708 -3.7929Z" fill="#E1ECD8"/>
<path d="M137.765 3.25019L134.943 0.428833L49.242 86.1302L52.0634 88.9515L137.765 3.25019Z" fill="#E1ECD8"/>
<path d="M144.815 10.3004L141.993 7.479L56.2918 93.1803L59.1132 96.0017L144.815 10.3004Z" fill="#E1ECD8"/>
<path d="M151.857 17.3436L149.036 14.5222L63.3348 100.224L66.1561 103.045L151.857 17.3436Z" fill="#E1ECD8"/>
</svg>
