<svg width="572" height="332" viewBox="0 0 572 332" fill="none" xmlns="http://www.w3.org/2000/svg">
<path d="M22.1044 330.998C22.1044 330.998 -18.1008 298.663 9.93493 221.369C26.4618 175.799 82.2141 182.796 79.394 100.952C76.5739 19.1073 127.963 -16.569 220.084 20.5782C286.565 47.3853 386.252 -73.9094 468.662 78.5719C500.447 137.381 556.07 129.762 570.878 237.311C574.926 266.709 568.854 297.485 538.863 331H22.1044V330.998Z" fill="#E1ECD8"/>
<path d="M254.992 136.263L259.981 132.616C260.4 132.316 260.951 132.272 261.412 132.504C261.998 132.799 262.602 133.074 263.222 133.327C264.374 133.796 265.535 134.172 266.704 134.445C267.251 134.573 267.664 135.007 267.744 135.552L268.728 141.879C268.827 142.555 269.443 143.044 270.145 142.997L276.064 142.612C276.734 142.567 277.258 142.036 277.292 141.376L277.545 135.488C277.558 134.916 277.962 134.422 278.538 134.267C280.975 133.61 283.301 132.566 285.423 131.181C285.937 130.848 286.63 130.906 287.083 131.313L289.765 133.734C290.278 134.188 291.064 134.203 291.59 133.752L295.998 129.898C296.09 129.819 296.168 129.737 296.231 129.637C296.543 129.187 296.537 128.569 296.191 128.118L293.434 124.439L292.759 123.545C293.318 122.608 293.821 121.612 294.253 120.581C294.833 119.19 295.271 117.772 295.569 116.361C295.684 115.821 296.113 115.404 296.669 115.325L301.836 114.548C302.542 114.436 303.049 113.818 302.996 113.12L302.699 108.656L302.611 107.376C302.565 106.678 301.993 106.12 301.284 106.093L296.296 105.88C295.717 105.862 295.215 105.485 295.059 104.944C294.567 103.334 293.905 101.78 293.079 100.316C293.019 100.182 292.95 100.068 292.876 99.9444C292.849 99.9052 292.83 99.8618 292.811 99.8163C292.583 99.3265 292.683 98.7519 293.056 98.3551L297.029 94.0501C297.077 94.0046 297.115 93.9488 297.151 93.8971C297.49 93.399 297.452 92.7191 297.044 92.2561L293.155 87.916C292.686 87.3931 291.891 87.3083 291.315 87.7258L286.115 91.5328C285.677 91.8614 285.084 91.88 284.617 91.5968C283.584 90.983 282.486 90.4353 281.327 89.9641C280.713 89.714 280.095 89.4929 279.473 89.2986C278.968 89.1374 278.597 88.7117 278.52 88.195L277.57 82.1146C277.47 81.445 276.858 80.9593 276.167 81.0027L270.31 81.3912C269.602 81.4367 269.041 81.9947 269.007 82.7057L268.806 87.3641C268.779 87.9904 268.328 88.5071 267.712 88.6331C265.284 89.0981 262.945 89.9414 260.779 91.1132C260.272 91.3984 259.629 91.324 259.191 90.9313L255.26 87.3972C254.732 86.9219 253.927 86.9219 253.391 87.3827L249.006 91.2021C248.478 91.6588 248.398 92.4442 248.817 92.9898L248.976 93.2068L252.182 97.4788C252.526 97.9355 252.543 98.5432 252.232 99.0247V99.0309C251.487 100.182 250.833 101.412 250.286 102.722C249.995 103.421 249.745 104.121 249.521 104.832C249.372 105.328 248.949 105.692 248.434 105.771L243.187 106.56C242.469 106.665 241.953 107.302 242.003 108.009L242.393 113.761C242.406 113.924 242.45 114.081 242.508 114.219C242.716 114.672 243.173 114.997 243.698 115.021L247.684 115.18C248.172 115.205 248.612 115.484 248.834 115.9C248.89 116.009 248.937 116.129 248.964 116.255C249.586 119.326 250.827 122.236 252.607 124.832C252.915 125.268 252.911 125.845 252.631 126.287C252.589 126.349 252.543 126.411 252.488 126.469L249.268 129.952C248.8 130.456 248.794 131.227 249.251 131.745L249.341 131.847L253.127 136.081C253.609 136.611 254.411 136.689 254.992 136.267V136.263ZM280.344 101.776C281.092 102.354 281.815 103.024 282.498 103.793C283.797 105.26 284.994 108.065 285.126 110.014C285.141 110.222 285.151 110.429 285.159 110.634C285.562 123.185 270.754 129.114 262.153 119.616C261.03 118.372 260.006 116.214 259.591 114.348C259.501 113.914 259.434 113.496 259.415 113.12C259.306 111.349 259.492 109.704 259.928 108.205C262.417 99.6633 272.837 96.0321 280.342 101.778L280.344 101.776Z" fill="#C3DAB1"/>
<path d="M295.198 75.6505L299.436 73.322C299.79 73.1308 300.219 73.1581 300.549 73.3914C300.968 73.6898 301.401 73.9735 301.851 74.2404C302.684 74.7384 303.536 75.165 304.403 75.5097C304.809 75.6715 305.079 76.0603 305.079 76.4995L305.135 81.6061C305.135 82.1504 305.556 82.6064 306.101 82.6463L310.693 82.9973C311.213 83.0351 311.674 82.6737 311.773 82.1567L312.619 77.5334C312.692 77.0816 313.056 76.737 313.519 76.6781C315.463 76.428 317.367 75.8627 319.154 75.0032C319.585 74.7973 320.111 74.9192 320.414 75.2911L322.207 77.4998C322.552 77.9159 323.153 78.0147 323.607 77.7162L327.422 75.1608C327.5 75.1083 327.571 75.0516 327.629 74.9822C327.919 74.6607 327.983 74.1731 327.766 73.7781L326.053 70.567L325.634 69.7852C326.167 69.1086 326.665 68.3772 327.111 67.6102C327.71 66.5763 328.205 65.5045 328.589 64.4222C328.736 64.0103 329.113 63.7266 329.549 63.7266L333.608 63.6846C334.161 63.6762 334.622 63.2433 334.659 62.6843L334.924 59.1244L334.997 58.1052C335.038 57.5483 334.661 57.0439 334.12 56.9451L330.309 56.2243C329.866 56.1466 329.524 55.7914 329.464 55.348C329.262 54.022 328.927 52.7211 328.454 51.4729C328.421 51.3615 328.381 51.2627 328.338 51.1576C328.321 51.124 328.313 51.0862 328.303 51.0505C328.182 50.6386 328.323 50.1973 328.653 49.922L332.184 46.961C332.225 46.9294 332.262 46.8895 332.296 46.8538C332.613 46.4986 332.658 45.9564 332.395 45.5467L329.887 41.6883C329.584 41.2218 328.983 41.0684 328.493 41.3332L324.073 43.7646C323.7 43.9747 323.242 43.9243 322.914 43.649C322.189 43.0501 321.405 42.4953 320.568 41.9951C320.124 41.7304 319.672 41.4866 319.216 41.2638C318.847 41.081 318.608 40.7027 318.604 40.2866L318.548 35.3776C318.544 34.8375 318.13 34.3857 317.593 34.3436L313.048 34.0032C312.499 33.9612 312.005 34.3394 311.902 34.8963L311.23 38.555C311.141 39.0468 310.737 39.4061 310.249 39.4355C308.33 39.5343 306.441 39.942 304.646 40.6271C304.225 40.7973 303.738 40.667 303.445 40.3076L300.814 37.0798C300.462 36.6469 299.842 36.5565 299.38 36.8612L295.586 39.3935C295.13 39.6961 294.983 40.3076 295.242 40.7847L295.339 40.9738L297.329 44.704C297.543 45.1032 297.489 45.5845 297.197 45.9312V45.9354C296.494 46.7613 295.857 47.6608 295.291 48.6358C294.991 49.1549 294.721 49.6824 294.47 50.2183C294.3 50.5944 293.936 50.834 293.529 50.8403L289.41 50.8823C288.846 50.8865 288.379 51.3321 288.34 51.8953L288.002 56.4828C287.994 56.6131 288.01 56.7413 288.039 56.859C288.149 57.2393 288.464 57.5462 288.865 57.6239L291.91 58.1913C292.283 58.2649 292.59 58.5339 292.714 58.8869C292.746 58.9794 292.768 59.0802 292.775 59.1832C292.913 61.6777 293.544 64.1133 294.626 66.3619C294.815 66.7402 294.746 67.1941 294.483 67.5135C294.443 67.5577 294.402 67.6018 294.354 67.6417L291.493 70.0374C291.079 70.3842 290.988 70.9915 291.282 71.4517L291.34 71.5421L293.782 75.3058C294.095 75.7766 294.703 75.9279 295.194 75.6589L295.198 75.6505ZM318.505 51.2144C319.015 51.7545 319.498 52.3639 319.937 53.0469C320.775 54.3498 321.382 56.6993 321.268 58.2502C321.258 58.4162 321.241 58.5801 321.225 58.744C320.145 68.703 308.106 71.748 302.548 63.2937C301.822 62.1862 301.273 60.3685 301.161 58.847C301.14 58.4939 301.134 58.1577 301.161 57.8572C301.273 56.445 301.598 55.1673 302.1 54.0304C304.959 47.5578 313.37 45.843 318.505 51.2123V51.2144Z" fill="#C3DAB1"/>
<path d="M486.032 264.001L491.352 261.151C491.797 260.918 492.336 260.951 492.75 261.236C493.274 261.603 493.818 261.949 494.383 262.276C495.431 262.885 496.499 263.407 497.587 263.83C498.097 264.028 498.434 264.506 498.436 265.043L498.508 271.294C498.508 271.961 499.037 272.517 499.72 272.567L505.484 272.996C506.138 273.044 506.715 272.601 506.84 271.967L507.902 266.306C507.993 265.754 508.452 265.331 509.032 265.258C511.475 264.951 513.863 264.258 516.105 263.207C516.647 262.955 517.309 263.103 517.688 263.56L519.939 266.262C520.371 266.771 521.128 266.891 521.697 266.527L526.486 263.397C526.585 263.335 526.673 263.264 526.747 263.178C527.112 262.784 527.192 262.186 526.92 261.703L524.77 257.771L524.243 256.815C524.914 255.986 525.537 255.092 526.096 254.152C526.848 252.885 527.47 251.572 527.953 250.247C528.138 249.741 528.613 249.397 529.156 249.395L534.251 249.343C534.946 249.332 535.522 248.803 535.57 248.118L535.903 243.761L535.996 242.513C536.049 241.831 535.574 241.215 534.896 241.092L530.111 240.21C529.555 240.114 529.123 239.681 529.049 239.137C528.796 237.514 528.374 235.92 527.782 234.393C527.742 234.255 527.689 234.134 527.637 234.005C527.616 233.963 527.605 233.918 527.592 233.874C527.441 233.37 527.618 232.828 528.031 232.492L532.463 228.869C532.516 228.831 532.56 228.781 532.603 228.738C532.999 228.302 533.058 227.64 532.727 227.137L529.578 222.414C529.196 221.843 528.444 221.655 527.829 221.98L522.281 224.956C521.813 225.214 521.238 225.152 520.827 224.814C519.916 224.081 518.932 223.401 517.88 222.789C517.322 222.464 516.757 222.166 516.183 221.893C515.72 221.668 515.42 221.207 515.416 220.697L515.347 214.688C515.342 214.027 514.82 213.473 514.147 213.421L508.444 213.004C507.755 212.952 507.135 213.417 507.004 214.098L506.163 218.576C506.051 219.176 505.543 219.617 504.932 219.655C502.523 219.776 500.15 220.274 497.897 221.114C497.368 221.32 496.756 221.161 496.39 220.722L493.087 216.771C492.644 216.242 491.866 216.129 491.285 216.502L486.521 219.601C485.948 219.972 485.762 220.72 486.089 221.303L486.213 221.534L488.713 226.1C488.981 226.589 488.913 227.179 488.547 227.602L488.543 227.608C487.666 228.621 486.863 229.721 486.155 230.915C485.775 231.551 485.438 232.194 485.124 232.853C484.911 233.313 484.454 233.607 483.944 233.613L478.771 233.665C478.063 233.67 477.479 234.216 477.426 234.905L477.003 240.521C476.992 240.681 477.013 240.837 477.051 240.981C477.188 241.446 477.584 241.821 478.088 241.917L481.912 242.611C482.38 242.7 482.765 243.031 482.921 243.463C482.961 243.577 482.989 243.698 482.997 243.825C483.17 246.88 483.962 249.862 485.32 252.614C485.558 253.077 485.472 253.633 485.139 254.025C485.09 254.081 485.037 254.131 484.976 254.181L481.385 257.113C480.864 257.538 480.75 258.282 481.121 258.844L481.193 258.955L484.258 263.562C484.65 264.139 485.413 264.324 486.03 263.995L486.032 264.001ZM515.29 234.086C515.93 234.747 516.535 235.493 517.088 236.328C518.137 237.924 518.9 240.798 518.757 242.7C518.742 242.904 518.723 243.104 518.704 243.304C517.347 255.496 502.234 259.226 495.258 248.874C494.347 247.52 493.658 245.292 493.517 243.432C493.489 243 493.483 242.588 493.517 242.221C493.658 240.492 494.067 238.929 494.695 237.537C498.285 229.613 508.842 227.512 515.288 234.086H515.29Z" fill="#C3DAB1"/>
<path d="M517.595 210.051L520.299 208.483C520.525 208.354 520.8 208.374 521.01 208.53C521.276 208.731 521.553 208.922 521.841 209.102C522.374 209.436 522.917 209.726 523.47 209.957C523.728 210.066 523.9 210.328 523.9 210.623L523.937 214.062C523.937 214.428 524.205 214.735 524.554 214.762L527.484 214.998C527.817 215.024 528.111 214.78 528.173 214.433L528.714 211.32C528.76 211.015 528.994 210.784 529.289 210.743C530.531 210.574 531.745 210.193 532.884 209.616C533.159 209.477 533.495 209.561 533.69 209.811L534.835 211.298C535.056 211.579 535.44 211.645 535.729 211.444L538.165 209.721C538.215 209.687 538.259 209.648 538.297 209.601C538.481 209.385 538.523 209.057 538.385 208.789L537.291 206.628L537.023 206.1C537.363 205.644 537.68 205.151 537.964 204.635C538.347 203.939 538.663 203.217 538.908 202.488C539.002 202.21 539.242 202.021 539.521 202.019L542.111 201.991C542.465 201.985 542.758 201.693 542.782 201.319L542.952 198.921L542.998 198.233C543.024 197.858 542.784 197.52 542.439 197.451L540.007 196.967C539.725 196.914 539.505 196.676 539.467 196.378C539.338 195.485 539.124 194.608 538.822 193.768C538.802 193.693 538.776 193.627 538.747 193.556C538.737 193.533 538.731 193.509 538.725 193.484C538.647 193.205 538.737 192.909 538.948 192.725L541.201 190.73C541.227 190.709 541.251 190.683 541.271 190.658C541.474 190.418 541.502 190.053 541.336 189.777L539.735 187.178C539.541 186.865 539.158 186.76 538.846 186.94L536.025 188.577C535.787 188.719 535.494 188.684 535.286 188.498C534.823 188.095 534.323 187.72 533.788 187.384C533.503 187.206 533.217 187.041 532.924 186.891C532.688 186.767 532.536 186.514 532.534 186.233L532.498 182.928C532.496 182.563 532.231 182.259 531.887 182.231L528.986 182.002C528.636 181.974 528.319 182.229 528.253 182.604L527.825 185.068C527.766 185.398 527.51 185.64 527.198 185.661C525.974 185.728 524.766 186.002 523.62 186.465C523.352 186.578 523.041 186.493 522.855 186.251L521.176 184.078C520.952 183.787 520.555 183.725 520.261 183.93L517.839 185.636C517.549 185.839 517.454 186.251 517.621 186.572L517.683 186.698L518.953 189.209C519.089 189.479 519.055 189.803 518.869 190.036C518.422 190.595 518.015 191.202 517.655 191.857C517.462 192.207 517.29 192.562 517.13 192.922C517.022 193.175 516.789 193.338 516.529 193.34L513.899 193.368C513.538 193.37 513.242 193.67 513.216 194.051L513.002 197.141C512.996 197.229 513.008 197.314 513.026 197.394C513.096 197.651 513.298 197.856 513.552 197.908L515.497 198.289C515.736 198.338 515.932 198.52 516.01 198.758C516.03 198.82 516.044 198.889 516.048 198.958C516.136 200.637 516.539 202.278 517.23 203.791C517.35 204.046 517.306 204.352 517.138 204.566C517.114 204.596 517.086 204.626 517.056 204.652L515.229 206.265C514.965 206.499 514.907 206.908 515.095 207.219L515.131 207.279L516.689 209.813C516.89 210.13 517.276 210.233 517.591 210.051H517.595ZM532.47 193.595C532.796 193.959 533.103 194.368 533.385 194.829C533.918 195.707 534.307 197.289 534.234 198.334C534.226 198.445 534.216 198.557 534.206 198.666C533.517 205.372 525.833 207.425 522.286 201.73C521.823 200.984 521.473 199.759 521.401 198.737C521.387 198.499 521.385 198.272 521.401 198.071C521.473 197.119 521.681 196.26 522 195.493C523.824 191.133 529.193 189.978 532.47 193.595Z" fill="#C3DAB1"/>
<path d="M48.3464 210.601L51.5038 208.889C51.7682 208.749 52.088 208.77 52.3332 208.94C52.6444 209.16 52.9685 209.369 53.3011 209.565C53.9215 209.929 54.5568 210.245 55.2028 210.496C55.5055 210.616 55.7059 210.901 55.7059 211.225L55.7486 214.977C55.7486 215.378 56.0619 215.71 56.467 215.74L59.8888 215.998C60.2768 216.026 60.6201 215.759 60.6925 215.38L61.3236 211.984C61.3769 211.652 61.6498 211.398 61.993 211.356C63.4427 211.172 64.8605 210.757 66.1908 210.126C66.5128 209.974 66.905 210.064 67.1289 210.337L68.4656 211.959C68.7214 212.264 69.1713 212.336 69.5081 212.119L72.35 210.241C72.4097 210.202 72.4609 210.16 72.5056 210.109C72.721 209.872 72.77 209.514 72.608 209.224L71.3331 206.864L71.0218 206.291C71.4184 205.792 71.7893 205.257 72.1219 204.692C72.5696 203.933 72.9363 203.145 73.2241 202.35C73.335 202.047 73.6164 201.838 73.9383 201.838L76.9614 201.808C77.375 201.802 77.7161 201.484 77.7438 201.073L77.9421 198.457L77.9975 197.707C78.0295 197.298 77.746 196.927 77.3452 196.855L74.5075 196.326C74.1771 196.268 73.9213 196.008 73.8765 195.682C73.7273 194.708 73.4757 193.751 73.1239 192.837C73.1005 192.753 73.0685 192.681 73.0386 192.604C73.0258 192.579 73.0194 192.551 73.0131 192.525C72.9235 192.223 73.028 191.899 73.2732 191.696L75.904 189.522C75.936 189.499 75.9615 189.471 75.9871 189.443C76.2216 189.181 76.2579 188.784 76.0617 188.482L74.1942 185.647C73.9682 185.306 73.5205 185.193 73.1559 185.387L69.8642 187.173C69.587 187.329 69.2459 187.29 69.0007 187.088C68.4592 186.647 67.8772 186.239 67.2525 185.873C66.9221 185.679 66.5852 185.5 66.2463 185.336C65.9712 185.201 65.7943 184.924 65.7922 184.617L65.7495 181.011C65.7474 180.614 65.4382 180.282 65.0374 180.252L61.654 180.002C61.2447 179.971 60.8759 180.25 60.7991 180.659L60.3003 183.347C60.2342 183.707 59.9336 183.971 59.569 183.995C58.1406 184.067 56.7314 184.366 55.3946 184.871C55.0813 184.995 54.7188 184.901 54.5014 184.636L52.5421 182.266C52.2799 181.949 51.8194 181.883 51.474 182.106L48.647 183.965C48.3081 184.189 48.1972 184.636 48.3912 184.986L48.4637 185.125L49.9475 187.864C50.1074 188.158 50.0669 188.512 49.8495 188.765V188.77C49.3271 189.377 48.8517 190.038 48.4296 190.754C48.2057 191.136 48.0053 191.521 47.8177 191.916C47.6919 192.191 47.419 192.368 47.1184 192.372L44.0506 192.404C43.6306 192.406 43.2831 192.734 43.2532 193.148L43.0017 196.518C42.9953 196.614 43.008 196.707 43.0294 196.793C43.1104 197.072 43.347 197.298 43.6434 197.355L45.9118 197.771C46.1889 197.824 46.417 198.023 46.5108 198.283C46.5343 198.351 46.5513 198.423 46.5556 198.5C46.6579 200.333 47.1291 202.124 47.935 203.774C48.0757 204.053 48.0245 204.385 47.8284 204.62C47.8007 204.654 47.7687 204.684 47.7324 204.714L45.6026 206.472C45.2935 206.726 45.2253 207.173 45.4449 207.512L45.4875 207.578L47.3061 210.343C47.5384 210.688 47.9904 210.801 48.3571 210.603L48.3464 210.601ZM65.7047 192.649C66.0842 193.045 66.4445 193.493 66.7729 193.994C67.3954 194.951 67.8495 196.675 67.7642 197.818C67.7557 197.94 67.745 198.061 67.7322 198.18C66.9263 205.496 57.9615 207.734 53.8213 201.523C53.2819 200.711 52.8726 199.374 52.7894 198.257C52.7745 197.997 52.7702 197.75 52.7894 197.53C52.8726 196.492 53.1156 195.554 53.4887 194.719C55.6185 189.963 61.8822 188.703 65.7069 192.649H65.7047Z" fill="#C3DAB1"/>
<path d="M329.725 158.831L337.682 153.128C338.349 152.659 339.222 152.605 339.941 152.986C340.859 153.476 341.802 153.93 342.773 154.349C344.578 155.127 346.397 155.762 348.231 156.228C349.091 156.448 349.729 157.154 349.839 158.029L351.224 168.174C351.362 169.258 352.32 170.056 353.426 169.997L362.766 169.536C363.824 169.482 364.663 168.645 364.732 167.592L365.288 158.182C365.322 157.265 365.972 156.486 366.888 156.254C370.745 155.265 374.438 153.658 377.822 151.499C378.64 150.98 379.731 151.089 380.434 151.755L384.598 155.695C385.395 156.436 386.633 156.48 387.471 155.772L394.521 149.724C394.668 149.601 394.793 149.469 394.896 149.316C395.402 148.602 395.408 147.616 394.873 146.885L390.625 140.93L389.588 139.481C390.493 137.999 391.313 136.42 392.02 134.781C392.972 132.573 393.701 130.316 394.206 128.065C394.402 127.207 395.09 126.55 395.964 126.439L404.129 125.331C405.244 125.172 406.059 124.197 405.997 123.077L405.647 115.93L405.541 113.882C405.488 112.764 404.6 111.858 403.487 111.795L395.63 111.324C394.718 111.28 393.938 110.663 393.708 109.796C392.974 107.208 391.972 104.705 390.711 102.343C390.617 102.128 390.51 101.943 390.399 101.742C390.357 101.678 390.33 101.609 390.301 101.537C389.956 100.748 390.127 99.8333 390.726 99.2052L397.102 92.4246C397.179 92.3534 397.242 92.2634 397.299 92.1839C397.847 91.3967 397.805 90.3081 397.175 89.5566L391.163 82.5122C390.435 81.6622 389.188 81.5073 388.268 82.1584L379.97 88.1079C379.271 88.6208 378.334 88.6355 377.606 88.1686C375.994 87.1575 374.279 86.2552 372.466 85.4702C371.506 85.0557 370.538 84.6831 369.561 84.3565C368.77 84.0843 368.195 83.3935 368.087 82.5666L366.752 72.8175C366.61 71.7435 365.663 70.9501 364.569 71.0024L355.329 71.4714C354.212 71.5237 353.311 72.405 353.24 73.5376L352.799 80.984C352.74 81.9825 352.017 82.799 351.042 82.9832C347.2 83.6636 343.494 84.951 340.048 86.7681C339.24 87.2119 338.228 87.0759 337.551 86.4353L331.448 80.6804C330.63 79.9079 329.361 79.8828 328.501 80.6071L321.487 86.6007C320.642 87.3187 320.498 88.5727 321.14 89.454L321.384 89.8036L326.322 96.7203C326.851 97.4614 326.864 98.4328 326.362 99.1927L326.358 99.2032C325.155 101.024 324.093 102.976 323.195 105.056C322.717 106.166 322.307 107.28 321.934 108.412C321.688 109.201 321.012 109.771 320.194 109.884L311.906 111.008C310.771 111.159 309.942 112.164 310.003 113.294L310.465 122.503C310.48 122.765 310.547 123.016 310.637 123.24C310.951 123.969 311.664 124.498 312.49 124.553L318.766 124.911C319.533 124.963 320.219 125.421 320.558 126.093C320.644 126.271 320.713 126.464 320.753 126.667C321.652 131.595 323.528 136.282 326.266 140.479C326.74 141.185 326.715 142.106 326.263 142.807C326.197 142.906 326.121 143.002 326.036 143.092L320.868 148.579C320.119 149.372 320.088 150.605 320.795 151.447L320.933 151.612L326.786 158.483C327.533 159.341 328.794 159.49 329.718 158.831H329.725ZM370.598 104.34C371.761 105.285 372.884 106.375 373.94 107.623C375.95 110.003 377.759 114.523 377.914 117.64C377.933 117.975 377.941 118.304 377.951 118.634C378.251 138.717 354.756 147.815 341.457 132.397C339.721 130.379 338.163 126.899 337.559 123.904C337.429 123.207 337.333 122.537 337.314 121.936C337.189 119.099 337.528 116.476 338.255 114.088C342.407 100.491 358.922 94.9556 370.6 104.343L370.598 104.34Z" fill="#C3DAB1"/>
<path d="M84.5833 141.545C87.0445 128.745 107.989 131.186 107.989 131.186C107.989 131.186 123.53 152.165 127.65 152.394C131.771 152.625 117.78 131.798 117.78 131.798C125.64 130.444 146.485 138.945 146.485 138.945C146.485 138.945 146.958 164.687 151.009 163.869C155.057 163.053 149.455 141.098 149.455 141.098C157.272 142.903 165.047 151.552 165.047 151.552C174.999 165.829 156.605 178.197 156.605 178.197C156.605 178.197 156.956 187.113 163.013 196.936C163.013 196.936 164.352 198.735 165.801 201.85L163.714 202C163.505 201.439 163.278 200.896 163.034 200.379C163.034 200.375 163.034 200.373 163.03 200.371C163.026 200.362 163.022 200.356 163.02 200.347C162.854 200.027 162.617 199.572 162.321 199.017C162.321 199.017 162.321 199.017 162.321 199.015C161.596 197.779 161.1 196.866 160.781 196.203C160.781 196.203 160.781 196.199 160.779 196.196C158.593 192.315 155.483 187.276 153.571 186.31C153.571 186.31 153.78 185.96 153.951 185.295C153.83 185.619 153.703 185.956 153.571 186.31C150.533 194.419 132.755 197.008 122.655 195.629C112.556 194.249 116.7 191.058 121.742 186.001C126.784 180.943 138.099 181.369 141.294 179.299C144.487 177.229 139.512 175.745 132.912 176.743C126.311 177.743 123.457 184.787 112.806 186.602C102.157 188.418 92.5767 168.327 92.5767 168.327C100.14 170.152 113.129 165.011 113.461 162.359C113.794 159.704 94.1556 161.377 91.0392 160.812C87.9228 160.246 82.1323 154.349 84.5936 141.549L84.5833 141.545Z" fill="#C3DAB1"/>
<path d="M254.14 189.264L243.092 322.875C243.092 322.875 241.933 330.975 247.856 330.99C257.594 331.013 296.327 330.99 296.327 330.99C296.327 330.99 288.998 329.304 289.087 325.51C289.192 321.039 302 188 302 188L254.14 189.264Z" fill="#497624"/>
<path d="M299.256 327.944C297.342 327.95 260.369 328.067 250.891 327.944C246.759 327.892 246.036 324.234 246.001 321.866C245.985 320.73 246.127 319.891 246.127 319.891L246.413 316.443L247.144 307.657L247.791 299.896L248.621 289.92L249.321 281.501L257.167 187.255L305 186C305 186 299.61 241.269 295.795 281.501C295.369 285.983 294.965 290.282 294.591 294.294C294.469 295.576 294.354 296.826 294.238 298.046C293.884 301.852 293.561 305.348 293.281 308.434C293.132 310.061 292.996 311.572 292.873 312.957C292.387 318.382 292.1 321.847 292.096 322.507C292.096 322.892 292.127 323.247 292.189 323.58C292.974 327.807 298.537 327.946 299.256 327.946V327.944Z" fill="#87B75E"/>
<path d="M136 118L163.301 227.19L167.04 242.144L179.756 293H416L369.13 118H136Z" fill="#87B75E"/>
<path d="M136.741 118L133 119.25L175.027 296L180 292.22L136.741 118Z" fill="#497624"/>
<path d="M175 296H409.525L416 293H180.025L175 296Z" fill="#497624"/>
<path d="M257 331H308V328H257V331Z" fill="#AEC3FF"/>
<path opacity="0.7" d="M295 296L294.739 297.926L247 308L247.656 299.865L247.967 296H295Z" fill="#73A648"/>
<path d="M299 327.944C297.096 327.95 260.3 328.067 250.866 327.944C246.754 327.892 246.035 324.245 246 321.884L292.648 313C292.164 318.409 291.879 321.863 291.875 322.521C291.875 322.905 291.906 323.259 291.967 323.591C292.748 327.805 298.285 327.944 299 327.944Z" fill="#73A648"/>
<path d="M283 257.473L179.663 293L167 242L283 257.473Z" fill="#73A648"/>
<path d="M136 118H368.553L406 258H171.092L136 118Z" fill="#E1ECD8"/>
<path opacity="0.5" d="M146 123L179.224 250H394L360.413 124.463L146 123Z" fill="#87B75E"/>
<path d="M305 200H224V250H305V200Z" fill="#65943E"/>
<path d="M347 200H265V250H347V200Z" fill="#73A648"/>
<path d="M265 207.358L247.696 224H224V200H265V207.358Z" fill="#547E31"/>
<path d="M223.611 200L205 217H246.415L265 200H223.611Z" fill="#87B75E"/>
<path d="M347 201.808L265 200V206.463V207.52L280.247 224H346.998V207.594L346.577 207.105H347V201.808Z" fill="#547E31"/>
<path d="M265 200L281.034 217H361L346.038 200H265Z" fill="#87B75E"/>
<path d="M121.989 192.295C121.989 192.295 122.552 186 115.692 186C115.692 186 117.772 186.579 118.846 187.735C118.846 187.735 114.469 185.101 109.707 189.147C104.946 193.194 107.905 203.341 106.456 205.269C105.008 207.195 99.369 207.581 100.058 213.812C100.747 220.041 117.958 227.844 116.853 233C116.853 233 123.597 222.839 118.775 218.202C118.775 218.202 121.126 220.472 121.366 223.169C121.366 223.169 122.003 217.903 118.734 216.219C115.841 214.728 113.469 209.277 113.72 208.302C113.97 207.328 121.991 192.299 121.991 192.299L121.989 192.295Z" fill="#2C3A64"/>
<path d="M116.16 223C116.16 223 121.208 244.088 126.165 248.302C129.144 250.835 138 256.65 138 256.65L134.315 258C134.315 258 122.03 253.81 119.28 250.547C116.531 247.281 109 230.922 109 230.922L116.16 223Z" fill="#FFB27D"/>
<path d="M145.344 264.26L144.131 261.257C142.831 258.037 139.706 255.93 136.232 255.93H113.856V330.701H206.415V270.12H154.037C150.216 270.12 146.776 267.8 145.344 264.258V264.26Z" fill="#73A648"/>
<path d="M127.819 301.398V296.009L146.734 287.729V293.237L133.526 298.666L146.734 304.095V309.68L127.819 301.4V301.398Z" fill="white"/>
<path d="M166.388 281.284H171.429L154.116 317.452H149.076L166.388 281.284Z" fill="white"/>
<path d="M192.455 296.009V301.398L173.54 309.678V304.172L186.748 298.743L173.54 293.314V287.729L192.455 296.009Z" fill="white"/>
<path d="M66.2918 260.027C66.3386 260.107 66.3876 260.192 66.4366 260.275C67.5914 262.222 70.2417 266.995 73.1583 272.217C74.5389 274.695 75.9833 277.273 77.3554 279.7C79.7181 283.888 81.8656 287.619 83.1205 289.589C84.3966 291.594 85.334 293.002 85.7133 293.564H85.7154C85.8304 293.742 85.8539 293.945 85.839 294.149C85.7069 295.917 85.7431 297.672 85.922 299.402C87.6818 316.392 99.489 325.498 99.489 325.498L103 326C103 326 98.0317 308.142 96.5681 298.044C96.3209 296.332 96.2123 294.945 96.2996 294.042C96.5595 291.41 96.0781 287.549 95.1662 283.115C93.5449 275.235 90.5708 265.565 87.9865 257.823C87.8224 257.329 82.8861 240 82.8861 240C78.7423 243.514 63.6287 244.965 63.6287 244.965C63.6287 244.965 61.0657 251.012 66.2896 260.027H66.2918Z" fill="#263238"/>
<path d="M110 331H96.0766C96.0766 331 95.7426 328.535 96.4693 326.666C97.1657 324.871 98.1597 324.815 96.5969 322C97.4815 323.058 100.326 323.496 102.338 323.181C102.585 323.644 103.927 326.762 104.751 327.449C105.66 328.209 109.719 327.938 109.998 331H110Z" fill="#73A648"/>
<path d="M67 259.385C67.0493 259.465 67.1008 259.55 67.1523 259.633C68.3663 261.58 74.9336 272.777 78 278C74.4453 264.5 76.9181 251 76.9181 251L67 259.385Z" fill="#171F23"/>
<path d="M121.154 192.096C121.247 191.735 112.985 195.683 112.565 196.129C108.691 200.257 109.795 205.643 112.012 205.695C113.435 205.729 113.158 208 113.158 208L129 201.563C129 201.563 127.093 190.88 121.152 192.096H121.154Z" fill="#2C3A64"/>
<path d="M114.96 219C114.96 219 117.261 223.991 116.975 228.041C116.975 228.041 114.199 232.797 107 234C107 234 113.19 218.996 114.962 219H114.96Z" fill="#F99746"/>
<path d="M78.9508 246.019L79 243.352C73.5144 244.022 60.0863 237 60.0863 237C60.0863 237 54.3481 240.697 53.5627 251.259C53.1795 256.414 50.7546 278.213 50.4849 284.722C50.3865 287.082 50.3544 288.766 50.3437 289.438C50.3437 289.442 50.3437 289.442 50.3437 289.444C50.3394 289.65 50.2409 289.83 50.1104 289.994C48.976 291.392 47.9915 292.872 47.1375 294.409C38.7668 309.497 43.1437 330 43.1437 330L45.0871 329.521C45.0871 329.521 52.165 308.267 56.7902 299.073C57.5757 297.513 58.2884 296.3 58.8856 295.599C60.6256 293.552 62.4577 290.077 64.2662 285.894C67.6821 277.985 78.9486 246.019 78.9486 246.019H78.9508Z" fill="#263238"/>
<path d="M55 330.998H40.0821C40.0821 330.998 39.7242 328.565 40.5029 326.719C41.249 324.948 42.418 324.143 42.1382 322C43.0861 323.045 44.6303 324.215 46.7884 323.904C47.053 324.361 48.4932 326.815 49.376 327.495C50.3498 328.244 54.6985 327.978 54.9978 331L55 330.998Z" fill="#73A648"/>
<path d="M105.811 236.901C103.913 237.232 106.121 238.774 103.51 239.064C99.7961 239.477 95.9586 239.763 93.9495 240.582C93.2161 240.88 92.7272 241.249 92.5731 241.722C91.7021 244.399 86.1863 249 86.1863 249C61.5839 247.856 60 236.647 60 236.647C75.9681 220.795 89.5512 212.156 100.778 211.085C103.51 210.825 107.194 211.173 108.921 211.961C112.847 213.748 115 219.184 115 219.184C115 219.184 113.022 235.643 105.811 236.901Z" fill="#73A648"/>
<path d="M104 239.48C100.147 239.894 96.1668 240.18 94.0828 241C93.2305 228.443 99.2375 219 99.2375 219C99.2375 219 103.156 234.731 104 239.482V239.48Z" fill="#547E31"/>
<path d="M106.449 217.011C106.449 217.011 97.0246 216.493 95.3503 222.464C93.676 228.436 98.4917 252.275 99.5299 254.735C101.42 259.216 110.618 272 110.618 272L114 270.96C114 270.96 107.866 251.43 106.497 249.498C104.348 246.465 109.267 219.611 106.447 217.013L106.449 217.011Z" fill="#FFB27D"/>
<path d="M114.191 270.406C114.191 270.406 114.391 271.89 115.118 272.656C115.846 273.423 117.962 275.275 118 276.361C118 276.361 117.893 276.843 117.439 276.755C116.985 276.667 115.408 275.322 114.6 275.419C114.6 275.419 115.03 277.593 115.458 278.206C115.886 278.819 115.546 281.415 115.289 281.944C115.033 282.473 111.877 279.108 110.582 277.603C109.286 276.099 110.56 270 110.56 270L114.191 270.408V270.406Z" fill="#FFB27D"/>
<path d="M94 229.499C94.0248 229.633 102.884 231.074 108.425 228.357C108.425 228.357 113.055 214.354 106.439 215.023C99.8232 215.693 95.9073 217.706 95.7401 220.764C95.5729 223.822 94 229.499 94 229.499Z" fill="#73A648"/>
<path d="M109.05 212.986C109.755 215.325 112.103 221.986 115.36 219.422C115.248 218.925 115.933 217.479 116.741 216.012C117.771 214.137 119 212.218 119 212.218L113.694 207.295L113.377 207C111.989 209.565 110.625 210.801 109.429 211.746C109.067 212.034 108.912 212.53 109.05 212.986Z" fill="#FFB27D"/>
<path d="M118.998 212.085C118.998 212.085 117.636 214.059 116.492 216C112.83 213.778 112.826 209.313 113.11 207L119 212.085H118.998Z" fill="#ED985F"/>
<path d="M119.003 214.904C119.003 214.904 110.671 210.328 113.639 205.252C116.605 200.176 117.53 196.164 122.973 198.872C128.419 201.579 128.309 204.098 127.737 206.03C127.164 207.963 121.247 215.962 119.001 214.904H119.003Z" fill="#FFB27D"/>
<path d="M128.945 203.183C128.565 201.153 127.41 200.958 126.605 201.095C123.541 196.574 118.538 198.339 118.538 198.339C115.865 201.334 112 201.845 112 201.845C112 201.845 112.963 203.444 116.928 204.433C118.139 204.736 119.514 204.553 120.84 204.155C118.087 205.523 115.211 206.049 115.211 206.049C120.438 206.476 125.409 202.211 125.926 201.755C126.167 202.416 126.59 203.8 126.336 204.812C125.992 206.187 124.626 208.678 125.46 209C125.46 209 129.515 206.232 128.945 203.188V203.183Z" fill="#2C3A64"/>
<path d="M139.326 256.152C139.326 256.152 136.812 257.833 138.707 258.932C140.602 260.032 143.985 260.328 143.999 259.606C144.045 257.188 142.691 255.466 139.328 256.152H139.326Z" fill="#FFB27D"/>
<path d="M560.423 331H22.5773C22.2585 331 22 331.203 22 331.452V331.548C22 331.797 22.2585 332 22.5773 332H560.423C560.742 332 561 331.797 561 331.548V331.452C561 331.203 560.742 331 560.423 331Z" fill="#2E3552"/>
<path d="M172.081 163.003C171.782 161.881 172.324 161.002 173.47 161C174.612 161 175.614 161.864 175.918 162.997C176.218 164.119 175.683 164.998 174.529 165C173.375 165 172.386 164.136 172.081 163.003ZM174.943 162.999C174.755 162.297 174.232 161.767 173.663 161.769C173.095 161.769 172.864 162.284 173.054 163.003C173.242 163.71 173.761 164.235 174.334 164.233C174.907 164.233 175.133 163.712 174.943 162.999Z" fill="#73A648"/>
<path d="M157.769 134.887L157.27 135.058L157 134.343L157.811 134H158.266L159 138H158.34L157.769 134.887Z" fill="#94B0ED"/>
<path d="M160.081 136.003C159.782 134.881 160.324 134.002 161.47 134C162.612 134 163.614 134.864 163.918 135.997C164.218 137.119 163.683 137.998 162.529 138C161.375 138 160.386 137.136 160.081 136.003ZM162.943 135.999C162.755 135.297 162.232 134.767 161.663 134.769C161.097 134.769 160.864 135.284 161.054 136.003C161.242 136.71 161.761 137.235 162.334 137.233C162.907 137.233 163.133 136.712 162.943 135.999Z" fill="#263238"/>
<path d="M226.769 134.887L226.27 135.058L226 134.343L226.811 134H227.266L228 138H227.34L226.769 134.887Z" fill="#263238"/>
<path d="M229.081 136.003C228.782 134.881 229.324 134.002 230.47 134C231.612 134 232.614 134.864 232.918 135.997C233.218 137.119 232.683 137.998 231.529 138C230.375 138 229.386 137.136 229.081 136.003ZM231.943 135.999C231.755 135.297 231.232 134.767 230.663 134.769C230.095 134.769 229.864 135.284 230.054 136.003C230.242 136.71 230.761 137.235 231.334 137.233C231.907 137.233 232.133 136.712 231.943 135.999Z" fill="#263238"/>
<path d="M234.081 136.003C233.782 134.881 234.324 134.002 235.47 134C236.612 134 237.614 134.864 237.918 135.997C238.218 137.119 237.683 137.998 236.529 138C235.375 138 234.386 137.136 234.081 136.003ZM236.943 135.999C236.755 135.297 236.232 134.767 235.663 134.769C235.095 134.769 234.864 135.284 235.054 136.003C235.242 136.71 235.761 137.235 236.334 137.233C236.907 137.233 237.133 136.712 236.943 135.999Z" fill="#263238"/>
<path d="M260.081 136.003C259.782 134.881 260.324 134.002 261.47 134C262.612 134 263.614 134.864 263.918 135.997C264.218 137.119 263.683 137.998 262.529 138C261.375 138 260.386 137.136 260.081 136.003ZM262.943 135.999C262.755 135.297 262.232 134.767 261.663 134.769C261.095 134.769 260.864 135.284 261.054 136.003C261.242 136.71 261.761 137.235 262.334 137.233C262.907 137.233 263.133 136.712 262.943 135.999Z" fill="#263238"/>
<path d="M265.081 136.003C264.782 134.881 265.324 134.002 266.47 134C267.612 134 268.614 134.864 268.918 135.997C269.218 137.119 268.683 137.998 267.529 138C266.375 138 265.386 137.136 265.081 136.003ZM267.943 135.999C267.755 135.297 267.232 134.767 266.663 134.769C266.097 134.769 265.864 135.284 266.054 136.003C266.242 136.71 266.761 137.235 267.334 137.233C267.907 137.233 268.133 136.712 267.943 135.999Z" fill="#263238"/>
<path d="M271.061 136.003C270.836 134.881 271.243 134.002 272.103 134C272.959 134 273.71 134.864 273.939 135.997C274.163 137.119 273.762 137.998 272.897 138C272.031 138 271.289 137.136 271.061 136.003ZM273.207 135.999C273.066 135.297 272.674 134.767 272.247 134.769C271.821 134.769 271.648 135.284 271.791 136.003C271.932 136.71 272.32 137.235 272.75 137.233C273.18 137.233 273.35 136.712 273.207 135.999Z" fill="#263238"/>
<path d="M305.081 136.003C304.782 134.881 305.324 134.002 306.47 134C307.612 134 308.614 134.864 308.918 135.997C309.218 137.119 308.683 137.998 307.529 138C306.375 138.002 305.386 137.136 305.081 136.003ZM307.943 135.999C307.755 135.297 307.232 134.767 306.663 134.769C306.095 134.771 305.864 135.284 306.054 136.003C306.242 136.71 306.761 137.235 307.334 137.233C307.907 137.233 308.133 136.712 307.943 135.999Z" fill="#263238"/>
<path d="M310.081 136.003C309.782 134.881 310.324 134.002 311.47 134C312.612 134 313.614 134.864 313.918 135.997C314.218 137.119 313.683 137.998 312.529 138C311.375 138 310.386 137.136 310.081 136.003ZM312.943 135.999C312.755 135.297 312.232 134.767 311.663 134.769C311.095 134.769 310.864 135.284 311.054 136.003C311.242 136.71 311.761 137.235 312.334 137.233C312.907 137.231 313.133 136.712 312.943 135.999Z" fill="#263238"/>
<path d="M316.061 136.003C315.836 134.881 316.243 134.002 317.103 134C317.959 134 318.71 134.864 318.939 135.997C319.163 137.119 318.762 137.998 317.897 138C317.032 138.002 316.289 137.136 316.061 136.003ZM318.207 135.999C318.066 135.297 317.674 134.767 317.247 134.769C316.821 134.769 316.648 135.284 316.791 136.003C316.933 136.71 317.32 137.235 317.75 137.233C318.18 137.233 318.35 136.712 318.207 135.999Z" fill="#263238"/>
<path d="M323.081 136.003C322.782 134.881 323.324 134.002 324.47 134C325.612 134 326.614 134.864 326.918 135.997C327.218 137.119 326.683 137.998 325.529 138C324.375 138 323.386 137.136 323.081 136.003ZM325.943 135.999C325.755 135.297 325.232 134.767 324.663 134.769C324.095 134.769 323.864 135.284 324.054 136.003C324.245 136.71 324.761 137.235 325.334 137.233C325.907 137.233 326.133 136.712 325.943 135.999Z" fill="#263238"/>
<path d="M329.153 134.887L328.405 135.058L328 134.343L329.216 134H329.899L331 138H330.01L329.153 134.887Z" fill="#263238"/>
<path d="M332.081 136.003C331.782 134.881 332.324 134.002 333.47 134C334.612 134 335.614 134.864 335.918 135.997C336.218 137.119 335.683 137.998 334.529 138C333.375 138 332.386 137.136 332.081 136.003ZM334.943 135.999C334.755 135.297 334.232 134.767 333.663 134.769C333.095 134.769 332.864 135.284 333.054 136.003C333.242 136.71 333.761 137.235 334.334 137.233C334.907 137.233 335.133 136.712 334.943 135.999Z" fill="#263238"/>
<path d="M341.081 136.003C340.782 134.881 341.324 134.002 342.47 134C343.612 134 344.614 134.864 344.918 135.997C345.218 137.119 344.683 137.998 343.529 138C342.375 138 341.386 137.136 341.081 136.003ZM343.943 135.999C343.755 135.297 343.232 134.767 342.663 134.769C342.095 134.769 341.864 135.284 342.054 136.003C342.245 136.71 342.761 137.235 343.334 137.233C343.907 137.233 344.133 136.712 343.943 135.999Z" fill="#263238"/>
<path d="M196.081 145.003C195.782 143.881 196.324 143.002 197.47 143C198.612 143 199.614 143.864 199.918 144.997C200.218 146.119 199.683 146.998 198.529 147C197.375 147 196.386 146.136 196.081 145.003ZM198.943 144.999C198.755 144.297 198.232 143.767 197.663 143.769C197.095 143.769 196.864 144.284 197.054 145.003C197.242 145.71 197.761 146.235 198.334 146.233C198.907 146.233 199.133 145.712 198.943 144.999Z" fill="#263238"/>
<path d="M201.061 145.003C200.836 143.881 201.243 143.002 202.103 143C202.959 143 203.71 143.864 203.939 144.997C204.163 146.119 203.762 146.998 202.897 147C202.032 147 201.289 146.136 201.061 145.003ZM203.207 144.999C203.066 144.297 202.674 143.767 202.247 143.769C201.821 143.769 201.648 144.284 201.791 145.003C201.932 145.71 202.32 146.235 202.75 146.233C203.18 146.233 203.35 145.712 203.207 144.999Z" fill="#263238"/>
<path d="M326.061 144.003C325.836 142.881 326.243 142.002 327.103 142C327.959 142 328.71 142.864 328.939 143.997C329.163 145.119 328.762 145.998 327.897 146C327.032 146.002 326.289 145.136 326.061 144.003ZM328.207 143.999C328.066 143.297 327.674 142.767 327.247 142.769C326.821 142.769 326.648 143.284 326.791 144.003C326.933 144.71 327.321 145.235 327.75 145.233C328.18 145.233 328.35 144.712 328.207 143.999Z" fill="#263238"/>
<path d="M331.153 142.887L330.405 143.058L330 142.343L331.216 142H331.9L333 146H332.01L331.153 142.887Z" fill="#263238"/>
<path d="M334.081 144.003C333.782 142.881 334.324 142.002 335.47 142C336.612 142 337.614 142.864 337.918 143.997C338.218 145.119 337.683 145.998 336.529 146C335.375 146 334.386 145.136 334.081 144.003ZM336.943 143.999C336.755 143.297 336.232 142.767 335.663 142.769C335.097 142.769 334.864 143.284 335.054 144.003C335.242 144.71 335.761 145.235 336.334 145.233C336.907 145.233 337.133 144.712 336.943 143.999Z" fill="#263238"/>
<path d="M352.081 144.003C351.782 142.881 352.324 142.002 353.47 142C354.612 142 355.614 142.864 355.918 143.997C356.218 145.119 355.683 145.998 354.529 146C353.375 146 352.386 145.136 352.081 144.003ZM354.943 143.999C354.755 143.297 354.232 142.767 353.663 142.769C353.095 142.769 352.864 143.284 353.054 144.003C353.242 144.71 353.761 145.235 354.334 145.233C354.907 145.231 355.133 144.712 354.943 143.999Z" fill="#263238"/>
<path d="M358.153 142.887L357.405 143.058L357 142.343L358.216 142H358.9L360 146H359.01L358.153 142.887Z" fill="#263238"/>
<path d="M191.081 188.003C190.782 186.881 191.324 186.002 192.47 186C193.612 186 194.614 186.864 194.918 187.997C195.218 189.119 194.683 189.998 193.529 190C192.375 190 191.386 189.136 191.081 188.003ZM193.943 187.999C193.755 187.297 193.232 186.767 192.663 186.769C192.095 186.769 191.864 187.284 192.054 188.003C192.242 188.71 192.761 189.235 193.334 189.233C193.907 189.231 194.133 188.712 193.943 187.999Z" fill="#263238"/>
<path d="M197.061 188.003C196.836 186.881 197.243 186.002 198.103 186C198.959 186 199.71 186.864 199.939 187.997C200.163 189.119 199.762 189.998 198.897 190C198.031 190 197.289 189.136 197.061 188.003ZM199.207 187.999C199.066 187.297 198.674 186.767 198.247 186.769C197.821 186.769 197.648 187.284 197.791 188.003C197.933 188.71 198.32 189.235 198.75 189.233C199.18 189.233 199.35 188.712 199.207 187.999Z" fill="#263238"/>
<path d="M202.153 186.887L201.405 187.058L201 186.343L202.216 186H202.9L204 190H203.01L202.153 186.887Z" fill="#263238"/>
<path d="M210.061 188.003C209.836 186.881 210.243 186.002 211.103 186C211.959 186 212.71 186.864 212.939 187.997C213.163 189.119 212.762 189.998 211.897 190C211.031 190 210.289 189.136 210.061 188.003ZM212.207 187.999C212.066 187.297 211.674 186.767 211.247 186.769C210.821 186.769 210.648 187.284 210.791 188.003C210.932 188.71 211.32 189.235 211.75 189.233C212.18 189.233 212.35 188.712 212.207 187.999Z" fill="#263238"/>
<path d="M215.081 188.003C214.782 186.881 215.324 186.002 216.47 186C217.612 186 218.614 186.864 218.918 187.997C219.218 189.119 218.683 189.998 217.529 190C216.375 190 215.386 189.136 215.081 188.003ZM217.943 187.999C217.755 187.297 217.232 186.767 216.663 186.769C216.095 186.769 215.864 187.284 216.054 188.003C216.242 188.71 216.761 189.235 217.334 189.233C217.907 189.233 218.133 188.712 217.943 187.999Z" fill="#263238"/>
<path d="M220.081 188.003C219.782 186.881 220.324 186.002 221.47 186C222.612 186 223.614 186.864 223.918 187.997C224.218 189.119 223.683 189.998 222.529 190C221.375 190 220.386 189.136 220.081 188.003ZM222.943 187.999C222.755 187.297 222.232 186.767 221.663 186.769C221.095 186.769 220.864 187.284 221.054 188.003C221.245 188.71 221.761 189.235 222.334 189.233C222.907 189.233 223.133 188.712 222.943 187.999Z" fill="#263238"/>
<path d="M283.061 188.003C282.836 186.881 283.243 186.002 284.103 186C284.959 186 285.71 186.864 285.939 187.997C286.163 189.119 285.762 189.998 284.897 190C284.032 190 283.289 189.136 283.061 188.003ZM285.207 187.999C285.066 187.297 284.674 186.767 284.247 186.769C283.821 186.769 283.648 187.284 283.791 188.003C283.933 188.71 284.321 189.235 284.75 189.233C285.18 189.233 285.35 188.712 285.207 187.999Z" fill="#263238"/>
<path d="M288.061 188.003C287.836 186.881 288.243 186.002 289.103 186C289.959 186 290.71 186.864 290.939 187.997C291.163 189.119 290.762 189.998 289.897 190C289.032 190 288.289 189.136 288.061 188.003ZM290.207 187.999C290.066 187.297 289.674 186.767 289.247 186.769C288.823 186.769 288.648 187.284 288.791 188.003C288.932 188.71 289.321 189.235 289.75 189.233C290.18 189.233 290.35 188.712 290.207 187.999Z" fill="#263238"/>
<path d="M293.153 186.887L292.405 187.058L292 186.343L293.216 186H293.9L295 190H294.01L293.153 186.887Z" fill="#263238"/>
<path d="M317.061 188.003C316.836 186.881 317.243 186.002 318.103 186C318.959 186 319.71 186.864 319.939 187.997C320.163 189.119 319.762 189.998 318.897 190C318.032 190.002 317.289 189.136 317.061 188.003ZM319.207 187.999C319.066 187.297 318.674 186.767 318.247 186.769C317.821 186.769 317.648 187.284 317.791 188.003C317.933 188.71 318.32 189.235 318.75 189.233C319.18 189.233 319.35 188.712 319.207 187.999Z" fill="#263238"/>
<path d="M322.061 188.003C321.836 186.881 322.243 186.002 323.103 186C323.959 186 324.71 186.864 324.939 187.997C325.163 189.119 324.762 189.998 323.897 190C323.032 190 322.289 189.136 322.061 188.003ZM324.207 187.999C324.066 187.297 323.674 186.767 323.247 186.769C322.823 186.769 322.648 187.284 322.791 188.003C322.932 188.71 323.32 189.235 323.75 189.233C324.18 189.233 324.35 188.712 324.207 187.999Z" fill="#263238"/>
<path d="M326.769 186.887L326.27 187.058L326 186.343L326.811 186H327.266L328 190H327.34L326.769 186.887Z" fill="#263238"/>
<path d="M301.061 188.003C300.836 186.881 301.243 186.002 302.103 186C302.959 186 303.71 186.864 303.939 187.997C304.163 189.119 303.762 189.998 302.897 190C302.031 190 301.289 189.136 301.061 188.003ZM303.207 187.999C303.066 187.297 302.674 186.767 302.247 186.769C301.821 186.769 301.648 187.284 301.791 188.003C301.932 188.71 302.32 189.235 302.75 189.233C303.18 189.233 303.35 188.712 303.207 187.999Z" fill="#263238"/>
<path d="M306.081 188.003C305.782 186.881 306.324 186.002 307.47 186C308.612 186 309.614 186.864 309.918 187.997C310.218 189.119 309.683 189.998 308.529 190C307.375 190 306.386 189.136 306.081 188.003ZM308.943 187.999C308.755 187.297 308.232 186.767 307.663 186.769C307.097 186.769 306.864 187.284 307.054 188.003C307.242 188.71 307.761 189.235 308.334 189.233C308.907 189.233 309.133 188.712 308.943 187.999Z" fill="#263238"/>
<path d="M311.081 188.003C310.782 186.881 311.324 186.002 312.47 186C313.612 186 314.614 186.864 314.918 187.997C315.218 189.119 314.683 189.998 313.529 190C312.375 190 311.386 189.136 311.081 188.003ZM313.943 187.999C313.755 187.297 313.232 186.767 312.663 186.769C312.095 186.769 311.864 187.284 312.054 188.003C312.242 188.71 312.761 189.235 313.334 189.233C313.907 189.233 314.133 188.712 313.943 187.999Z" fill="#263238"/>
<path d="M237.081 188.003C236.782 186.881 237.324 186.002 238.47 186C239.612 186 240.614 186.864 240.918 187.997C241.218 189.119 240.683 189.998 239.529 190C238.375 190 237.386 189.136 237.081 188.003ZM239.943 187.999C239.755 187.297 239.232 186.767 238.663 186.769C238.095 186.769 237.864 187.284 238.054 188.003C238.242 188.71 238.761 189.235 239.334 189.233C239.907 189.231 240.133 188.712 239.943 187.999Z" fill="#263238"/>
<path d="M242.769 186.887L242.27 187.058L242 186.343L242.811 186H243.266L244 190H243.34L242.769 186.887Z" fill="#263238"/>
<path d="M246.061 188.003C245.836 186.881 246.243 186.002 247.103 186C247.959 186 248.71 186.864 248.939 187.997C249.163 189.119 248.762 189.998 247.897 190C247.032 190 246.289 189.136 246.061 188.003ZM248.207 187.999C248.066 187.297 247.674 186.767 247.247 186.769C246.821 186.769 246.648 187.284 246.791 188.003C246.932 188.71 247.32 189.235 247.75 189.233C248.18 189.233 248.35 188.712 248.207 187.999Z" fill="#263238"/>
<path d="M345.061 188.003C344.836 186.881 345.243 186.002 346.103 186C346.959 186 347.71 186.864 347.939 187.997C348.163 189.119 347.762 189.998 346.897 190C346.032 190 345.289 189.136 345.061 188.003ZM347.207 187.999C347.066 187.297 346.674 186.767 346.247 186.769C345.821 186.769 345.648 187.284 345.791 188.003C345.932 188.71 346.321 189.235 346.75 189.233C347.18 189.233 347.35 188.712 347.207 187.999Z" fill="#263238"/>
<path d="M350.153 186.885L349.405 187.058L349 186.343L350.216 186H350.9L352 190H351.01L350.153 186.887V186.885Z" fill="#263238"/>
<path d="M353.081 188.003C352.782 186.881 353.324 186.002 354.47 186C355.612 186 356.614 186.864 356.918 187.997C357.218 189.119 356.683 189.998 355.529 190C354.375 190 353.386 189.136 353.081 188.003ZM355.943 187.999C355.755 187.297 355.232 186.767 354.663 186.769C354.095 186.771 353.864 187.284 354.054 188.003C354.242 188.71 354.761 189.235 355.334 189.233C355.907 189.233 356.133 188.712 355.943 187.999Z" fill="#263238"/>
<path d="M161.769 153.665L161.27 153.793L161 153.257L161.811 153H162.266L163 156H162.34L161.769 153.665Z" fill="#263238"/>
<path d="M165.061 154.502C164.836 153.661 165.243 153.002 166.103 153C166.959 153 167.71 153.648 167.939 154.498C168.163 155.339 167.762 155.998 166.897 156C166.031 156 165.289 155.352 165.061 154.502ZM167.207 154.499C167.066 153.973 166.674 153.575 166.247 153.577C165.821 153.577 165.648 153.963 165.791 154.502C165.932 155.032 166.32 155.426 166.75 155.425C167.18 155.425 167.35 155.034 167.207 154.499Z" fill="#263238"/>
<path d="M193.081 154.502C192.782 153.661 193.324 153.002 194.47 153C195.612 153 196.614 153.648 196.918 154.498C197.218 155.339 196.683 155.998 195.529 156C194.375 156 193.386 155.352 193.081 154.502ZM195.943 154.499C195.755 153.973 195.232 153.575 194.663 153.577C194.095 153.577 193.864 153.963 194.054 154.502C194.245 155.032 194.761 155.426 195.334 155.425C195.907 155.425 196.133 155.034 195.943 154.499Z" fill="#263238"/>
<path d="M198.081 154.502C197.782 153.661 198.324 153.002 199.47 153C200.612 153 201.614 153.648 201.918 154.498C202.218 155.339 201.683 155.998 200.529 156C199.375 156 198.386 155.352 198.081 154.502ZM200.943 154.499C200.755 153.973 200.232 153.575 199.663 153.577C199.095 153.577 198.864 153.963 199.054 154.502C199.242 155.032 199.761 155.426 200.334 155.425C200.907 155.425 201.133 155.034 200.943 154.499Z" fill="#263238"/>
<path d="M204.041 154.502C203.891 153.661 204.162 153.002 204.735 153C205.306 153 205.807 153.648 205.959 154.498C206.109 155.339 205.841 155.998 205.264 156C204.688 156 204.193 155.352 204.041 154.502ZM205.471 154.499C205.377 153.973 205.116 153.575 204.832 153.577C204.547 153.577 204.432 153.963 204.527 154.502C204.621 155.032 204.88 155.426 205.167 155.425C205.454 155.425 205.567 155.034 205.471 154.499Z" fill="#263238"/>
<path d="M208.153 153.444L207.405 153.529L207 153.171L208.216 153H208.899L210 155H209.01L208.153 153.444Z" fill="#263238"/>
<path d="M212.153 153.442L211.405 153.529L211 153.171L212.216 153H212.899L214 155H213.01L212.153 153.444V153.442Z" fill="#263238"/>
<path d="M215.081 154.003C214.782 152.881 215.324 152.002 216.47 152C217.612 152 218.614 152.864 218.918 153.997C219.218 155.119 218.683 155.998 217.529 156C216.375 156 215.386 155.136 215.081 154.003ZM217.943 153.999C217.755 153.297 217.232 152.767 216.663 152.769C216.095 152.769 215.864 153.284 216.054 154.003C216.242 154.71 216.761 155.235 217.334 155.233C217.907 155.233 218.133 154.712 217.943 153.999Z" fill="#263238"/>
<path d="M345.061 153.502C344.836 152.661 345.243 152.002 346.103 152C346.959 152 347.71 152.648 347.939 153.498C348.163 154.339 347.762 154.998 346.897 155C346.032 155 345.289 154.352 345.061 153.502ZM347.207 153.499C347.066 152.973 346.674 152.575 346.247 152.577C345.821 152.577 345.648 152.963 345.791 153.502C345.932 154.032 346.32 154.426 346.75 154.425C347.18 154.425 347.35 154.034 347.207 153.499Z" fill="#73A648"/>
<path d="M350.061 153.502C349.836 152.661 350.243 152.002 351.103 152C351.959 152 352.71 152.648 352.939 153.498C353.163 154.339 352.762 154.998 351.897 155C351.032 155 350.289 154.352 350.061 153.502ZM352.207 153.499C352.066 152.973 351.674 152.575 351.247 152.577C350.821 152.577 350.648 152.963 350.791 153.502C350.933 154.032 351.32 154.426 351.75 154.425C352.18 154.425 352.35 154.034 352.207 153.499Z" fill="#73A648"/>
<path d="M355.061 153.502C354.836 152.661 355.243 152.002 356.103 152C356.959 152 357.71 152.648 357.939 153.498C358.163 154.339 357.762 154.998 356.897 155C356.032 155 355.289 154.352 355.061 153.502ZM357.207 153.499C357.066 152.973 356.674 152.575 356.247 152.577C355.821 152.577 355.648 152.963 355.791 153.502C355.932 154.032 356.32 154.426 356.75 154.425C357.18 154.425 357.35 154.034 357.207 153.499Z" fill="#263238"/>
<path d="M360.769 152.665L360.27 152.793L360 152.257L360.811 152H361.266L362 155H361.34L360.769 152.665Z" fill="#263238"/>
<path d="M164.153 161.887L163.405 162.058L163 161.343L164.216 161H164.899L166 165H165.01L164.153 161.887Z" fill="#263238"/>
<path d="M167.081 163.003C166.782 161.881 167.324 161.002 168.47 161C169.612 161 170.614 161.864 170.918 162.997C171.218 164.119 170.683 164.998 169.529 165C168.375 165 167.386 164.136 167.081 163.003ZM169.943 162.999C169.755 162.297 169.232 161.767 168.663 161.769C168.095 161.769 167.864 162.284 168.054 163.003C168.242 163.71 168.761 164.235 169.334 164.233C169.907 164.233 170.133 163.712 169.943 162.999Z" fill="#263238"/>
<path d="M190.081 163.003C189.782 161.881 190.324 161.002 191.47 161C192.612 161 193.614 161.864 193.918 162.997C194.218 164.119 193.683 164.998 192.529 165C191.375 165 190.386 164.136 190.081 163.003ZM192.943 162.999C192.755 162.297 192.232 161.767 191.663 161.769C191.095 161.769 190.864 162.284 191.054 163.003C191.242 163.71 191.761 164.235 192.334 164.233C192.907 164.233 193.133 163.712 192.943 162.999Z" fill="#263238"/>
<path d="M196.061 163.003C195.836 161.881 196.243 161.002 197.103 161C197.959 161 198.71 161.864 198.939 162.997C199.163 164.119 198.762 164.998 197.897 165C197.032 165 196.289 164.136 196.061 163.003ZM198.207 162.999C198.066 162.297 197.674 161.767 197.247 161.769C196.821 161.769 196.648 162.284 196.791 163.003C196.932 163.71 197.32 164.235 197.75 164.233C198.18 164.233 198.35 163.712 198.207 162.999Z" fill="#263238"/>
<path d="M177.061 181.003C176.836 179.881 177.243 179.002 178.103 179C178.959 179 179.71 179.864 179.939 180.997C180.163 182.119 179.762 182.998 178.897 183C178.031 183 177.289 182.136 177.061 181.003ZM179.207 180.999C179.066 180.297 178.674 179.767 178.247 179.769C177.821 179.769 177.648 180.284 177.791 181.003C177.932 181.71 178.321 182.235 178.75 182.233C179.18 182.233 179.35 181.712 179.207 180.999Z" fill="#73A648"/>
<path d="M181.769 179.887L181.27 180.058L181 179.343L181.811 179H182.266L183 183H182.34L181.769 179.887Z" fill="#73A648"/>
<path d="M166.153 171.887L165.405 172.058L165 171.343L166.216 171H166.899L168 175H167.01L166.153 171.887Z" fill="#263238"/>
<path d="M169.081 173.003C168.782 171.881 169.324 171.002 170.47 171C171.612 171 172.614 171.864 172.918 172.997C173.218 174.119 172.683 174.998 171.529 175C170.375 175 169.386 174.136 169.081 173.003ZM171.943 172.999C171.755 172.297 171.232 171.767 170.663 171.769C170.095 171.769 169.864 172.284 170.054 173.003C170.242 173.71 170.761 174.235 171.334 174.233C171.907 174.233 172.133 173.712 171.943 172.999Z" fill="#263238"/>
<path d="M174.081 173.003C173.782 171.881 174.324 171.002 175.47 171C176.612 171 177.614 171.864 177.918 172.997C178.218 174.119 177.683 174.998 176.529 175C175.375 175 174.386 174.136 174.081 173.003ZM176.943 172.999C176.755 172.297 176.232 171.767 175.663 171.769C175.095 171.769 174.864 172.284 175.054 173.003C175.242 173.71 175.761 174.235 176.334 174.233C176.907 174.233 177.133 173.712 176.943 172.999Z" fill="#263238"/>
<path d="M179.769 171.885L179.27 172.058L179 171.343L179.811 171H180.266L181 175H180.34L179.769 171.887V171.885Z" fill="#263238"/>
<path d="M182.081 173.003C181.782 171.881 182.324 171.002 183.47 171C184.612 171 185.614 171.864 185.918 172.997C186.218 174.119 185.683 174.998 184.529 175C183.375 175 182.386 174.136 182.081 173.003ZM184.943 172.999C184.755 172.297 184.232 171.767 183.663 171.769C183.095 171.769 182.864 172.284 183.054 173.003C183.242 173.71 183.761 174.235 184.334 174.233C184.907 174.233 185.133 173.712 184.943 172.999Z" fill="#263238"/>
<path d="M187.081 173.003C186.782 171.881 187.324 171.002 188.47 171C189.612 171 190.614 171.864 190.918 172.997C191.218 174.119 190.683 174.998 189.529 175C188.375 175 187.386 174.136 187.081 173.003ZM189.943 172.999C189.755 172.297 189.232 171.767 188.663 171.769C188.095 171.769 187.864 172.284 188.054 173.003C188.245 173.71 188.761 174.235 189.334 174.233C189.907 174.233 190.133 173.712 189.943 172.999Z" fill="#263238"/>
<path d="M193.061 173.003C192.836 171.881 193.243 171.002 194.103 171C194.959 171 195.71 171.864 195.939 172.997C196.163 174.119 195.762 174.998 194.897 175C194.031 175 193.289 174.136 193.061 173.003ZM195.207 172.999C195.066 172.297 194.674 171.767 194.247 171.769C193.821 171.769 193.648 172.284 193.791 173.003C193.932 173.71 194.32 174.235 194.75 174.233C195.18 174.233 195.35 173.712 195.207 172.999Z" fill="#263238"/>
<path d="M198.061 173.003C197.836 171.881 198.243 171.002 199.103 171C199.959 171 200.71 171.864 200.939 172.997C201.163 174.119 200.762 174.998 199.897 175C199.032 175 198.289 174.136 198.061 173.003ZM200.207 172.999C200.066 172.297 199.674 171.767 199.247 171.769C198.821 171.769 198.648 172.284 198.791 173.003C198.932 173.71 199.32 174.235 199.75 174.233C200.18 174.233 200.35 173.712 200.207 172.999Z" fill="#263238"/>
<path d="M203.061 173.003C202.836 171.881 203.243 171.002 204.103 171C204.959 171 205.71 171.864 205.939 172.997C206.163 174.119 205.762 174.998 204.897 175C204.032 175 203.289 174.136 203.061 173.003ZM205.207 172.999C205.066 172.297 204.674 171.767 204.247 171.769C203.821 171.769 203.648 172.284 203.791 173.003C203.932 173.71 204.32 174.235 204.75 174.233C205.18 174.233 205.35 173.712 205.207 172.999Z" fill="#263238"/>
<path d="M207.081 173.003C206.782 171.881 207.324 171.002 208.47 171C209.612 171 210.614 171.864 210.918 172.997C211.218 174.119 210.683 174.998 209.529 175C208.375 175 207.386 174.136 207.081 173.003ZM209.943 172.999C209.755 172.297 209.232 171.767 208.663 171.769C208.095 171.769 207.864 172.284 208.054 173.003C208.242 173.71 208.761 174.235 209.334 174.233C209.907 174.233 210.133 173.712 209.943 172.999Z" fill="#263238"/>
<path d="M213.153 171.665L212.405 171.793L212 171.257L213.216 171H213.899L215 174H214.01L213.153 171.665Z" fill="#263238"/>
<path d="M216.153 171.665L215.405 171.793L215 171.257L216.216 171H216.899L218 174H217.01L216.153 171.665Z" fill="#263238"/>
<path d="M219.081 173.003C218.782 171.881 219.324 171.002 220.47 171C221.612 171 222.614 171.864 222.918 172.997C223.218 174.119 222.683 174.998 221.529 175C220.375 175 219.386 174.136 219.081 173.003ZM221.943 172.999C221.755 172.297 221.232 171.767 220.663 171.769C220.095 171.769 219.864 172.284 220.054 173.003C220.242 173.71 220.761 174.235 221.334 174.233C221.907 174.233 222.133 173.712 221.943 172.999Z" fill="#263238"/>
<path d="M168.769 179.887L168.27 180.058L168 179.343L168.811 179H169.266L170 183H169.34L168.769 179.887Z" fill="#263238"/>
<path d="M172.061 181.003C171.836 179.881 172.243 179.002 173.103 179C173.959 179 174.71 179.864 174.939 180.997C175.163 182.119 174.762 182.998 173.897 183C173.031 183 172.289 182.136 172.061 181.003ZM174.207 180.999C174.066 180.297 173.674 179.767 173.247 179.769C172.821 179.769 172.648 180.284 172.791 181.003C172.932 181.71 173.32 182.235 173.75 182.233C174.18 182.233 174.35 181.712 174.207 180.999Z" fill="#263238"/>
<path d="M184.081 181.003C183.782 179.881 184.324 179.002 185.47 179C186.612 179 187.614 179.864 187.918 180.997C188.218 182.119 187.683 182.998 186.529 183C185.375 183 184.386 182.136 184.081 181.003ZM186.943 180.999C186.755 180.297 186.232 179.767 185.663 179.769C185.095 179.769 184.864 180.284 185.054 181.003C185.242 181.71 185.761 182.235 186.334 182.233C186.907 182.233 187.133 181.712 186.943 180.999Z" fill="#263238"/>
<path d="M190.061 181.003C189.836 179.881 190.243 179.002 191.103 179C191.959 179 192.71 179.864 192.939 180.997C193.163 182.119 192.762 182.998 191.897 183C191.032 183 190.289 182.136 190.061 181.003ZM192.207 180.999C192.066 180.297 191.674 179.767 191.247 179.769C190.821 179.769 190.648 180.284 190.791 181.003C190.932 181.71 191.321 182.235 191.75 182.233C192.18 182.233 192.35 181.712 192.207 180.999Z" fill="#263238"/>
<path d="M181.061 202.502C180.836 201.661 181.243 201.002 182.103 201C182.959 201 183.71 201.648 183.939 202.498C184.163 203.339 183.762 203.998 182.897 204C182.031 204 181.289 203.352 181.061 202.502ZM183.207 202.499C183.066 201.973 182.674 201.575 182.247 201.577C181.821 201.577 181.648 201.963 181.791 202.502C181.932 203.032 182.32 203.426 182.75 203.425C183.18 203.425 183.35 203.034 183.207 202.499Z" fill="#263238"/>
<path d="M186.153 201.665L185.405 201.793L185 201.257L186.216 201H186.899L188 204H187.01L186.153 201.665Z" fill="#263238"/>
<path d="M173.153 201.664L172.405 201.793L172 201.257L173.216 201H173.9L175 204H174.01L173.153 201.665V201.664Z" fill="#263238"/>
<path d="M176.081 202.502C175.782 201.661 176.324 201.002 177.47 201C178.612 201 179.614 201.648 179.918 202.498C180.218 203.339 179.683 203.998 178.529 204C177.375 204 176.386 203.352 176.081 202.502ZM178.943 202.499C178.755 201.973 178.232 201.575 177.663 201.577C177.097 201.577 176.864 201.963 177.054 202.502C177.242 203.032 177.761 203.426 178.334 203.425C178.907 203.425 179.133 203.034 178.943 202.499Z" fill="#263238"/>
<path d="M189.081 202.502C188.782 201.661 189.324 201.002 190.47 201C191.612 201 192.614 201.648 192.918 202.498C193.218 203.339 192.683 203.998 191.529 204C190.375 204 189.386 203.352 189.081 202.502ZM191.943 202.499C191.755 201.973 191.232 201.575 190.663 201.577C190.095 201.577 189.864 201.963 190.054 202.502C190.242 203.032 190.761 203.426 191.334 203.425C191.907 203.425 192.133 203.034 191.943 202.499Z" fill="#73A648"/>
<path d="M194.081 202.502C193.782 201.661 194.324 201.002 195.47 201C196.612 201 197.614 201.648 197.918 202.498C198.218 203.339 197.683 203.998 196.529 204C195.375 204 194.386 203.352 194.081 202.502ZM196.943 202.499C196.755 201.973 196.232 201.575 195.663 201.577C195.095 201.577 194.864 201.963 195.054 202.502C195.242 203.032 195.761 203.426 196.334 203.425C196.907 203.425 197.133 203.034 196.943 202.499Z" fill="#73A648"/>
<path d="M175.081 209.003C174.782 207.881 175.324 207.002 176.47 207C177.612 207 178.614 207.864 178.918 208.997C179.218 210.119 178.683 210.998 177.529 211C176.375 211 175.386 210.136 175.081 209.003ZM177.943 208.999C177.755 208.297 177.232 207.767 176.663 207.769C176.095 207.769 175.864 208.284 176.054 209.003C176.245 209.71 176.761 210.235 177.334 210.233C177.907 210.233 178.133 209.712 177.943 208.999Z" fill="#263238"/>
<path d="M180.384 207.885L180.135 208.058L180 207.343L180.405 207H180.633L181 211H180.67L180.384 207.887V207.885Z" fill="#263238"/>
<path d="M183.061 209.003C182.836 207.881 183.243 207.002 184.103 207C184.959 207 185.71 207.864 185.939 208.997C186.163 210.119 185.762 210.998 184.897 211C184.031 211 183.289 210.136 183.061 209.003ZM185.207 208.999C185.066 208.297 184.674 207.767 184.247 207.769C183.821 207.769 183.648 208.284 183.791 209.003C183.932 209.71 184.32 210.235 184.75 210.233C185.18 210.233 185.35 209.712 185.207 208.999Z" fill="#263238"/>
<path d="M188.081 209.003C187.782 207.881 188.324 207.002 189.47 207C190.612 207 191.614 207.864 191.918 208.997C192.218 210.119 191.683 210.998 190.529 211C189.375 211 188.386 210.136 188.081 209.003ZM190.943 208.999C190.755 208.297 190.232 207.767 189.663 207.769C189.095 207.769 188.864 208.284 189.054 209.003C189.242 209.71 189.761 210.235 190.334 210.233C190.907 210.233 191.133 209.712 190.943 208.999Z" fill="#263238"/>
<path d="M195.081 181.003C194.782 179.881 195.324 179.002 196.47 179C197.612 179 198.614 179.864 198.918 180.997C199.218 182.119 198.683 182.998 197.529 183C196.375 183 195.386 182.136 195.081 181.003ZM197.943 180.999C197.755 180.297 197.232 179.767 196.663 179.769C196.095 179.769 195.864 180.284 196.054 181.003C196.242 181.71 196.761 182.235 197.334 182.233C197.907 182.233 198.133 181.712 197.943 180.999Z" fill="#263238"/>
<path d="M200.081 181.003C199.782 179.881 200.324 179.002 201.47 179C202.612 179 203.614 179.864 203.918 180.997C204.218 182.119 203.683 182.998 202.529 183C201.375 183 200.386 182.136 200.081 181.003ZM202.943 180.999C202.755 180.297 202.232 179.767 201.663 179.769C201.095 179.769 200.864 180.284 201.054 181.003C201.245 181.71 201.761 182.235 202.334 182.233C202.907 182.233 203.133 181.712 202.943 180.999Z" fill="#263238"/>
<path d="M187.081 227.003C186.782 225.881 187.324 225.002 188.47 225C189.612 225 190.614 225.864 190.918 226.997C191.218 228.119 190.683 228.998 189.529 229C188.375 229 187.386 228.136 187.081 227.003ZM189.943 226.999C189.755 226.297 189.232 225.767 188.663 225.769C188.095 225.769 187.864 226.284 188.054 227.003C188.242 227.71 188.761 228.235 189.334 228.233C189.907 228.231 190.133 227.712 189.943 226.999Z" fill="#73A648"/>
<path d="M192.769 225.887L192.27 226.058L192 225.343L192.811 225H193.266L194 229H193.34L192.769 225.887Z" fill="#73A648"/>
<path d="M177.153 216.885L176.405 217.058L176 216.343L177.216 216H177.899L179 220H178.01L177.153 216.887V216.885Z" fill="#263238"/>
<path d="M180.061 218.003C179.836 216.881 180.243 216.002 181.103 216C181.959 216 182.71 216.864 182.939 217.997C183.163 219.119 182.762 219.998 181.897 220C181.031 220 180.289 219.136 180.061 218.003ZM182.207 217.999C182.066 217.297 181.674 216.767 181.247 216.769C180.823 216.769 180.648 217.284 180.791 218.003C180.932 218.71 181.32 219.235 181.75 219.233C182.18 219.233 182.35 218.712 182.207 217.999Z" fill="#263238"/>
<path d="M185.061 218.003C184.836 216.881 185.243 216.002 186.103 216C186.959 216 187.71 216.864 187.939 217.997C188.163 219.119 187.762 219.998 186.897 220C186.031 220 185.289 219.136 185.061 218.003ZM187.207 217.999C187.066 217.297 186.674 216.767 186.247 216.769C185.821 216.769 185.648 217.284 185.791 218.003C185.932 218.71 186.32 219.235 186.75 219.233C187.18 219.233 187.35 218.712 187.207 217.999Z" fill="#263238"/>
<path d="M190.153 216.885L189.405 217.058L189 216.343L190.216 216H190.899L192 220H191.01L190.153 216.887V216.885Z" fill="#263238"/>
<path d="M179.769 225.885L179.27 226.058L179 225.343L179.811 225H180.266L181 229H180.34L179.769 225.887V225.885Z" fill="#263238"/>
<path d="M182.061 227.003C181.836 225.881 182.243 225.002 183.103 225C183.959 225 184.71 225.864 184.939 226.997C185.163 228.119 184.762 228.998 183.897 229C183.031 229 182.289 228.136 182.061 227.003ZM184.207 226.999C184.066 226.297 183.674 225.767 183.247 225.769C182.821 225.769 182.648 226.284 182.791 227.003C182.933 227.71 183.32 228.235 183.75 228.233C184.18 228.233 184.35 227.712 184.207 226.999Z" fill="#263238"/>
<path d="M196.061 227.003C195.836 225.881 196.243 225.002 197.103 225C197.959 225 198.71 225.864 198.939 226.997C199.163 228.119 198.762 228.998 197.897 229C197.032 229 196.289 228.136 196.061 227.003ZM198.207 226.999C198.066 226.297 197.674 225.767 197.247 225.769C196.821 225.769 196.648 226.284 196.791 227.003C196.932 227.71 197.32 228.235 197.75 228.233C198.18 228.233 198.35 227.712 198.207 226.999Z" fill="#263238"/>
<path d="M201.061 227.003C200.836 225.881 201.243 225.002 202.103 225C202.959 225 203.71 225.864 203.939 226.997C204.163 228.119 203.762 228.998 202.897 229C202.032 229 201.289 228.136 201.061 227.003ZM203.207 226.999C203.066 226.297 202.674 225.767 202.247 225.769C201.821 225.769 201.648 226.284 201.791 227.003C201.933 227.71 202.32 228.235 202.75 228.233C203.18 228.233 203.35 227.712 203.207 226.999Z" fill="#263238"/>
<path d="M189.081 234.003C188.782 232.881 189.324 232.002 190.47 232C191.612 232 192.614 232.864 192.918 233.997C193.218 235.119 192.683 235.998 191.529 236C190.375 236 189.386 235.136 189.081 234.003ZM191.943 233.999C191.755 233.297 191.232 232.767 190.663 232.769C190.095 232.769 189.864 233.284 190.054 234.003C190.242 234.71 190.761 235.235 191.334 235.233C191.907 235.233 192.133 234.712 191.943 233.999Z" fill="#73A648"/>
<path d="M194.769 232.885L194.27 233.058L194 232.343L194.811 232H195.266L196 236H195.34L194.769 232.887V232.885Z" fill="#73A648"/>
<path d="M184.061 234.003C183.836 232.881 184.243 232.002 185.103 232C185.959 232 186.71 232.864 186.939 233.997C187.163 235.119 186.762 235.998 185.897 236C185.031 236 184.289 235.136 184.061 234.003ZM186.207 233.999C186.066 233.297 185.674 232.767 185.247 232.769C184.821 232.769 184.648 233.284 184.791 234.003C184.932 234.71 185.32 235.235 185.75 235.233C186.18 235.231 186.35 234.712 186.207 233.999Z" fill="#263238"/>
<path d="M198.061 234.003C197.836 232.881 198.243 232.002 199.103 232C199.959 232 200.71 232.864 200.939 233.997C201.163 235.119 200.762 235.998 199.897 236C199.031 236 198.289 235.136 198.061 234.003ZM200.207 233.999C200.066 233.297 199.674 232.767 199.247 232.769C198.821 232.769 198.648 233.284 198.791 234.003C198.933 234.71 199.32 235.235 199.75 235.233C200.18 235.233 200.35 234.712 200.207 233.999Z" fill="#263238"/>
<path d="M203.061 234.003C202.836 232.881 203.243 232.002 204.103 232C204.959 232 205.71 232.864 205.939 233.997C206.163 235.119 205.762 235.998 204.897 236C204.031 236 203.289 235.136 203.061 234.003ZM205.207 233.999C205.066 233.297 204.674 232.767 204.247 232.769C203.821 232.769 203.648 233.284 203.791 234.003C203.932 234.71 204.32 235.235 204.75 235.233C205.18 235.231 205.35 234.712 205.207 233.999Z" fill="#263238"/>
<path d="M205.081 227.003C204.782 225.881 205.324 225.002 206.47 225C207.612 225 208.614 225.864 208.918 226.997C209.218 228.119 208.683 228.998 207.529 229C206.375 229 205.386 228.136 205.081 227.003ZM207.943 226.999C207.755 226.297 207.232 225.767 206.663 225.769C206.095 225.769 205.864 226.284 206.054 227.003C206.242 227.71 206.761 228.235 207.334 228.233C207.907 228.233 208.133 227.712 207.943 226.999Z" fill="#263238"/>
<path d="M210.081 227.003C209.782 225.881 210.324 225.002 211.47 225C212.612 225 213.614 225.864 213.918 226.997C214.218 228.119 213.683 228.998 212.529 229C211.375 229 210.386 228.136 210.081 227.003ZM212.943 226.999C212.755 226.297 212.232 225.767 211.663 225.769C211.095 225.769 210.864 226.284 211.054 227.003C211.242 227.71 211.761 228.235 212.334 228.233C212.907 228.233 213.133 227.712 212.943 226.999Z" fill="#263238"/>
<path d="M344.769 161.887L344.27 162.058L344 161.343L344.811 161H345.266L346 165H345.34L344.769 161.887Z" fill="#263238"/>
<path d="M347.061 163.003C346.836 161.881 347.243 161.002 348.103 161C348.959 161 349.71 161.864 349.939 162.997C350.163 164.119 349.762 164.998 348.897 165C348.032 165 347.289 164.136 347.061 163.003ZM349.207 162.999C349.066 162.297 348.674 161.767 348.247 161.769C347.821 161.769 347.648 162.284 347.791 163.003C347.932 163.71 348.32 164.235 348.75 164.233C349.18 164.233 349.35 163.712 349.207 162.999Z" fill="#263238"/>
<path d="M352.081 163.003C351.782 161.881 352.324 161.002 353.47 161C354.612 161 355.614 161.864 355.918 162.997C356.218 164.119 355.683 164.998 354.529 165C353.375 165 352.386 164.136 352.081 163.003ZM354.943 162.999C354.755 162.297 354.232 161.767 353.663 161.769C353.097 161.769 352.864 162.284 353.054 163.003C353.242 163.71 353.761 164.235 354.334 164.233C354.907 164.233 355.133 163.712 354.943 162.999Z" fill="#263238"/>
<path d="M357.081 163.003C356.782 161.881 357.324 161.002 358.47 161C359.612 161 360.614 161.864 360.918 162.997C361.218 164.119 360.683 164.998 359.529 165C358.375 165 357.386 164.136 357.081 163.003ZM359.943 162.999C359.755 162.297 359.232 161.767 358.663 161.769C358.095 161.769 357.864 162.284 358.054 163.003C358.245 163.71 358.761 164.235 359.334 164.233C359.907 164.233 360.133 163.712 359.943 162.999Z" fill="#263238"/>
<path d="M363.153 161.887L362.405 162.058L362 161.343L363.216 161H363.9L365 165H364.01L363.153 161.887Z" fill="#263238"/>
<path d="M339.081 173.003C338.782 171.881 339.324 171.002 340.47 171C341.612 171 342.614 171.864 342.918 172.997C343.218 174.119 342.683 174.998 341.529 175C340.375 175 339.386 174.136 339.081 173.003ZM341.943 172.999C341.755 172.297 341.232 171.767 340.663 171.769C340.095 171.769 339.864 172.284 340.054 173.003C340.245 173.71 340.761 174.235 341.334 174.233C341.907 174.233 342.133 173.712 341.943 172.999Z" fill="#263238"/>
<path d="M344.769 171.664L344.27 171.793L344 171.257L344.811 171H345.266L346 174H345.34L344.769 171.665V171.664Z" fill="#263238"/>
<path d="M347.061 173.003C346.836 171.881 347.243 171.002 348.103 171C348.959 171 349.71 171.864 349.939 172.997C350.163 174.119 349.762 174.998 348.897 175C348.032 175 347.289 174.136 347.061 173.003ZM349.207 172.999C349.066 172.297 348.674 171.767 348.247 171.769C347.821 171.769 347.648 172.284 347.791 173.003C347.932 173.71 348.32 174.235 348.75 174.233C349.18 174.233 349.35 173.712 349.207 172.999Z" fill="#73A648"/>
<path d="M352.081 173.003C351.782 171.881 352.324 171.002 353.47 171C354.612 171 355.614 171.864 355.918 172.997C356.218 174.119 355.683 174.998 354.529 175C353.375 175 352.386 174.136 352.081 173.003ZM354.943 172.999C354.755 172.297 354.232 171.767 353.663 171.769C353.097 171.769 352.864 172.284 353.054 173.003C353.242 173.71 353.761 174.235 354.334 174.233C354.907 174.233 355.133 173.712 354.943 172.999Z" fill="#73A648"/>
<path d="M357.081 172.504C356.782 171.101 357.324 170.003 358.47 170C359.612 170 360.614 171.08 360.918 172.496C361.218 173.899 360.683 174.997 359.529 175C358.375 175 357.386 173.92 357.081 172.504ZM359.943 172.499C359.755 171.621 359.232 170.959 358.663 170.961C358.095 170.961 357.864 171.605 358.054 172.504C358.245 173.387 358.761 174.044 359.334 174.041C359.907 174.041 360.133 173.39 359.943 172.499Z" fill="#73A648"/>
<path d="M363.153 171.665L362.405 171.793L362 171.257L363.216 171H363.9L365 174H364.01L363.153 171.665Z" fill="#73A648"/>
<path d="M361.769 223.664L361.27 223.793L361 223.257L361.811 223H362.266L363 226H362.34L361.769 223.665V223.664Z" fill="#263238"/>
<path d="M365.081 224.502C364.782 223.661 365.324 223.002 366.47 223C367.612 223 368.614 223.648 368.918 224.498C369.218 225.339 368.683 225.998 367.529 226C366.375 226 365.386 225.352 365.081 224.502ZM367.943 224.499C367.755 223.973 367.232 223.575 366.663 223.577C366.097 223.577 365.864 223.963 366.054 224.502C366.242 225.032 366.761 225.426 367.334 225.425C367.907 225.423 368.133 225.034 367.943 224.499Z" fill="#263238"/>
<path d="M370.061 224.502C369.836 223.661 370.243 223.002 371.103 223C371.959 223 372.71 223.648 372.939 224.498C373.163 225.339 372.762 225.998 371.897 226C371.032 226 370.289 225.352 370.061 224.502ZM372.207 224.499C372.066 223.973 371.674 223.575 371.247 223.577C370.821 223.577 370.648 223.963 370.791 224.502C370.932 225.032 371.321 225.427 371.75 225.425C372.18 225.425 372.35 225.034 372.207 224.499Z" fill="#263238"/>
<path d="M356.769 228.885L356.27 229.058L356 228.343L356.811 228H357.266L358 232H357.34L356.769 228.887V228.885Z" fill="#263238"/>
<path d="M360.061 230.003C359.836 228.881 360.243 228.002 361.103 228C361.959 228 362.71 228.864 362.939 229.997C363.163 231.119 362.762 231.998 361.897 232C361.032 232 360.289 231.136 360.061 230.003ZM362.207 229.999C362.066 229.297 361.674 228.767 361.247 228.769C360.823 228.769 360.648 229.284 360.791 230.003C360.932 230.71 361.32 231.235 361.75 231.233C362.18 231.233 362.35 230.712 362.207 229.999Z" fill="#263238"/>
<path d="M365.081 230.003C364.782 228.881 365.324 228.002 366.47 228C367.612 228 368.614 228.864 368.918 229.997C369.218 231.119 368.683 231.998 367.529 232C366.375 232 365.386 231.136 365.081 230.003ZM367.943 229.999C367.755 229.297 367.232 228.767 366.663 228.769C366.095 228.769 365.864 229.284 366.054 230.003C366.242 230.71 366.761 231.235 367.334 231.233C367.907 231.233 368.133 230.712 367.943 229.999Z" fill="#263238"/>
<path d="M374.081 224.502C373.782 223.661 374.324 223.002 375.47 223C376.612 223 377.614 223.648 377.918 224.498C378.218 225.339 377.683 225.998 376.529 226C375.375 226 374.386 225.352 374.081 224.502ZM376.943 224.499C376.755 223.973 376.232 223.575 375.663 223.577C375.095 223.577 374.864 223.963 375.054 224.502C375.242 225.032 375.761 225.427 376.334 225.425C376.907 225.425 377.133 225.034 376.943 224.499Z" fill="#263238"/>
<path d="M380.153 223.665L379.405 223.793L379 223.257L380.216 223H380.899L382 226H381.01L380.153 223.665Z" fill="#263238"/>
<path d="M447.883 180.836C449.748 180.659 454.04 181.161 456.845 184.985C459.648 188.808 457.708 193.317 464.715 196.79C471.722 200.264 470.716 204.645 469.313 210.141C467.911 215.636 462.035 222.279 455.028 221.957C448.021 221.634 436.038 207.215 436.469 202.379C436.901 197.544 438.982 196.967 437.332 193.771C434.744 188.762 439.543 181.628 447.883 180.836Z" fill="#163560"/>
<path d="M450.617 203.771C450.652 203.721 450.669 203.691 450.667 203.689C449.892 203.412 449.825 202.28 450.544 197.565L450.171 197.581L443.916 197.881C443.916 197.881 443.77 199.814 443.505 201.615C443.453 201.973 443.395 202.327 443.334 202.659C438.625 207.342 448.76 209.462 450.617 203.771Z" fill="#FFB27D"/>
<path d="M437.832 330.623H451.346C451.346 330.623 451.669 328.564 450.965 327.004C450.287 325.505 449.235 324.58 449.139 323.433C448.281 324.316 447.224 324.884 445.27 324.622C445.03 325.009 443.724 327.085 442.926 327.66C442.043 328.295 438.104 328.068 437.832 330.626V330.623Z" fill="#73A648"/>
<path d="M453.694 275.411C452.436 278.516 451.467 281.34 451.771 283.829C451.771 283.835 451.773 283.839 451.773 283.841C451.806 284.118 451.856 284.387 451.923 284.653C456.357 302.377 450.071 325.455 450.071 325.455C450.071 325.455 448.41 325.838 447.208 325.946C445.078 326.136 444.768 325.503 444.768 325.503C444.768 325.503 442.653 306.684 435.806 270.707C434.819 265.511 434.429 262.635 434.073 258.016C433.964 256.634 433.862 255.095 433.748 253.291C433.437 248.443 434.173 240.282 437.813 238.139C439.469 237.161 441.724 237.431 444.755 239.816C444.995 240.005 445.222 240.23 445.489 240.422C464.11 253.818 457.542 265.938 453.694 275.413V275.411Z" fill="#263238"/>
<path d="M451.771 283.826C451.563 283.096 444.864 259.707 444.752 257.933C444.508 254.112 453.361 264.664 453.694 275.411C452.436 278.516 451.467 281.34 451.771 283.829V283.826Z" fill="#171F23"/>
<path d="M499.161 302.198L493.535 289.916C493.535 289.916 491.527 290.478 490.402 291.769C489.32 293.008 488.537 292.787 486.072 291.078C486.999 292.51 487.124 293.354 487.699 295.238C488.151 295.295 490.729 297.787 493.369 298.472C494.421 298.745 496.723 303.012 499.161 302.196V302.198Z" fill="#73A648"/>
<path d="M440.189 243.527C440.189 243.527 452.299 285.603 456.737 288.312C461.173 291.021 483.113 296.407 489.591 297.7C489.591 297.7 489.822 295.948 489.485 294.18C489.41 293.789 488.741 292.375 488.741 292.375C488.741 292.375 477.221 280.857 465.963 279.243C463.604 278.906 466.909 242.113 450.917 240.67C436.309 239.351 440.189 243.527 440.189 243.527Z" fill="#263238"/>
<path d="M422.236 177.311C422.236 177.311 422.507 175.961 422.811 174.933C422.946 174.477 422.006 171.486 421.354 171.118C420.704 170.749 419.01 172.765 419.489 174.31C419.735 175.106 420.14 177.69 420.14 177.69L422.234 177.309L422.236 177.311Z" fill="#FFB27D"/>
<path d="M478.154 179.812C478.237 179.983 478.352 180.289 478.454 180.576C478.454 180.497 478.456 180.42 478.458 180.345C478.465 179.772 480.6 176.661 481.477 176.467C482.357 176.272 483.594 179.187 482.498 180.799C481.936 181.626 480.234 184.577 480.234 184.577L478.348 183.44C478.348 183.44 478.335 182.646 477.827 182.003C477.571 181.678 477.56 180.151 477.471 179.487C477.471 179.487 477.848 179.185 478.154 179.816V179.812Z" fill="#FFB27D"/>
<path d="M443.916 197.881C443.916 197.881 443.77 199.814 443.505 201.615C446.92 202.025 449.179 199.191 450.171 197.584L443.916 197.883V197.881Z" fill="#ED975D"/>
<path d="M451.344 196.792C451.344 196.792 453.734 194.023 454.588 191.478C455.197 189.66 455.276 182.602 448.173 182.565C448.173 182.565 446.123 182.463 444.033 183.462C442.37 184.258 439.863 186.134 441.403 192.534L441.732 194.666L451.344 196.792Z" fill="#163560"/>
<path d="M442.251 199.404C442.251 199.404 450.969 200.847 451.786 195.407C452.602 189.968 454.276 186.488 448.744 185.337C443.212 184.185 441.816 186.099 441.101 187.848C440.386 189.597 440.003 198.887 442.249 199.404H442.251Z" fill="#FFB27D"/>
<path d="M443.907 184.574C443.907 184.574 446.224 191.349 449.756 192.84C453.288 194.329 455.027 193.583 455.027 193.583C455.027 193.583 452.544 190.928 452.54 186.936C452.54 186.936 446.164 181.805 443.907 184.574Z" fill="#163560"/>
<path d="M445.3 185.218C445.3 185.218 443.693 185.641 442.266 187.365C441.328 188.496 440.999 190.068 440.578 191.621C440.578 191.621 439.422 187.015 441.812 184.862C444.347 182.579 445.297 185.218 445.297 185.218H445.3Z" fill="#163560"/>
<path d="M480.583 184.599C480.583 184.599 478.668 200.228 474.63 203.964C471.828 206.557 461.91 210.741 459.539 214.595C459.257 215.055 458.912 216.359 458.639 218.296C457.836 223.962 457.639 235.024 461.331 246.136C461.502 246.65 461.681 247.165 461.87 247.679C462.372 249.052 461.695 250.572 460.318 251.061C458.582 251.677 456.03 252.452 453.015 252.971C452.442 253.071 451.848 253.16 451.244 253.235C442.924 254.291 437.296 252.34 434.435 250.897C433.085 250.216 432.268 248.797 432.352 247.288C432.523 244.204 434.069 241.153 434.765 233.737C435.292 228.11 431.45 220.176 431.656 217.182C431.737 215.999 432.323 210.743 431.727 209.928C427.77 204.497 421.115 199.295 420.094 194.337C418.915 188.621 419.677 177.211 419.677 177.211C420.002 177.098 420.894 176.744 421.523 176.744C422.646 176.742 423.436 177.775 423.436 177.775C423.436 177.775 426.405 188.887 426.555 189.635C427.345 193.623 434.931 199.397 437.227 200.557C439.742 201.83 441.753 202.511 443.337 202.656C443.337 202.656 441.465 205.886 444.235 206.334C447.566 206.873 450.14 203.046 450.14 203.046C450.14 203.046 452.163 203.614 455.809 203.077C458.832 202.634 469.592 198.998 471.147 196.238C472.28 194.231 478.254 183.102 478.254 183.102C478.254 183.102 478.808 182.781 479.7 183.244C480.579 183.702 480.585 184.599 480.585 184.599H480.583Z" fill="#73A648"/>
<path d="M444.783 196.449C444.783 196.449 444.41 197.2 443.908 197.215C443.406 197.23 442.133 197.109 442.045 196.978C441.958 196.848 441.747 196.061 441.747 196.061C441.747 196.061 443.854 195.978 444.783 196.449Z" fill="white"/>
<path d="M461.331 246.136C461.331 246.136 453.846 244.853 453.35 239.531C452.821 233.858 458.635 218.285 458.635 218.285L458.639 218.298C457.837 223.964 457.639 235.026 461.331 246.138V246.136Z" fill="#547E31"/>
<path d="M443.093 115.143L442.314 112.284C441.478 109.219 438.863 106.968 435.704 106.595L415.366 104.194L413.841 117.092L407.334 172.159L491.47 182.092L497.978 127.026L450.367 121.405C446.891 120.995 444.014 118.517 443.095 115.143H443.093Z" fill="#73A648"/>
<path d="M423.171 147.022L423.751 142.121L441.834 136.624L441.243 141.63L428.653 145.147L440.078 151.499L439.478 156.576L423.173 147.019L423.171 147.022Z" fill="white"/>
<path d="M460.393 132.877L464.975 133.419L445.353 164.437L440.771 163.896L460.393 132.877Z" fill="white"/>
<path d="M482.505 149.058L481.926 153.958L463.842 159.456L464.434 154.45L477.023 150.932L465.598 144.581L466.198 139.504L482.503 149.06L482.505 149.058Z" fill="white"/>
<path d="M477.683 181.584C477.683 181.584 477.435 179.418 477.221 179.014C477.004 178.61 477.544 178.494 478.002 179.418C478.461 180.343 479.377 180.064 479.834 180.98C480.292 181.896 479.888 182.138 479.321 182.084C478.754 182.03 477.683 181.582 477.683 181.582V181.584Z" fill="#FFB27D"/>
<path d="M422.388 176.607C422.388 176.607 423.622 175.274 423.616 174.677C423.609 174.079 424.478 172.602 424.234 172.334C423.993 172.065 423.561 172.496 423.332 172.9C423.103 173.304 422.159 173.279 421.945 174.383C421.728 175.487 422.388 176.607 422.388 176.607Z" fill="#FFB27D"/>
<path d="M227.051 169.762L259.001 183.748V171.303L242.355 164.462L259.001 157.619V145.291L227.051 159.279V169.762Z" fill="#2C3A64"/>
<path d="M288.374 136.674L260.766 194.347H272.434L300.042 136.674H288.374Z" fill="#2C3A64"/>
<path d="M302.18 145.291V157.736L318.824 164.579L302.18 171.42V183.748L334.128 169.762V159.279L302.18 145.291Z" fill="#2C3A64"/>
<path d="M272.434 191.053H260.766V194.345H272.434V191.053Z" fill="#2C3A64"/>
<path d="M300.042 133.379H294.591V136.672H300.042V133.379Z" fill="#2C3A64"/>
<path d="M227.051 166.47L259.001 180.455V168.011L242.355 161.168L259.001 154.327V141.999L227.051 155.984V166.47Z" fill="#263238"/>
<path d="M288.374 133.379L260.766 191.053H272.434L300.042 133.379H288.374Z" fill="#263238"/>
<path d="M302.18 141.999V154.443L318.824 161.284L302.18 168.127V180.455L334.128 166.47V155.984L302.18 141.999Z" fill="#263238"/>
<path d="M406 257.973H404.053L388.119 197.206L367.637 119.088H138.892L173.542 257.973L171.067 258L136 117.202L369.246 117L369.45 117.777L389.927 196.314L406 257.973Z" fill="#73A648"/>
<path d="M407 259.749L405.146 260L389 197.888L390.784 197L407 259.749Z" fill="#73A648"/>
<path d="M172.361 151.907C171.966 152.409 171.916 152.967 172.111 153.565C172.111 153.567 172.111 153.571 172.114 153.573C172.477 154.678 173.67 155.913 175.059 157.145C175.236 157.303 175.394 157.448 175.531 157.581C175.568 157.615 175.602 157.651 175.637 157.685C175.666 157.713 175.691 157.741 175.718 157.766C177.012 159.086 176.524 159.387 178.849 162.066C181.5 165.115 183.324 165.171 183.843 164.894C184.283 164.657 183.39 163.038 182.401 161.221C182.353 161.134 182.306 161.044 182.256 160.957C182.125 160.716 181.994 160.47 181.863 160.227C180.704 158.039 181.001 157.011 181.277 153.754C181.5 151.108 185 138.968 185 138.968L179.921 138C179.921 138 178.392 147.666 176.707 149.154C175.807 149.948 174.796 149.958 173.931 150.545C173.869 150.585 173.809 150.628 173.751 150.671C173.26 151.031 172.758 151.404 172.361 151.905V151.907Z" fill="#FFB27D"/>
<path d="M172.362 152.32C171.966 152.805 171.915 153.346 172.111 153.925C172.111 153.927 172.111 153.931 172.115 153.933C172.56 155.003 173.729 156.191 175.074 157.38C175.25 157.535 175.405 157.68 175.542 157.814C175.579 157.847 175.614 157.882 175.648 157.915C175.677 157.942 175.703 157.969 175.73 157.994C177.028 159.273 176.539 159.564 178.872 162.158C181.533 165.112 183.364 165.166 183.884 164.897C184.326 164.668 183.43 163.1 182.437 161.34C181.918 161.138 179.513 160.095 177.696 157.61C176.093 155.429 175.025 152.626 173.936 151C173.874 151.039 173.814 151.081 173.756 151.122C173.262 151.471 172.759 151.832 172.361 152.318L172.362 152.32Z" fill="#73A648"/>
<path d="M216.208 148.741C216.534 150.423 218.848 150.144 221.435 149.488C224.021 148.834 223.406 149.612 227.087 149.19C230.768 148.768 231.882 147.347 231.996 146.78C232.096 146.277 230.278 146.1 228.327 145.868C228.082 145.839 227.836 145.808 227.588 145.777C225.385 145.491 223.774 144.019 221.772 142.811C219.877 141.665 217.049 137 217.049 137L212 137.414C212 137.414 214.648 141.582 215.673 143.392C216.276 144.457 216.244 145.866 216.168 146.954C216.128 147.545 216.092 148.149 216.206 148.743L216.208 148.741Z" fill="#FFB27D"/>
<path d="M221.346 149.502C223.954 148.87 223.334 149.623 227.046 149.214C230.757 148.806 231.881 147.431 231.996 146.883C232.097 146.396 230.264 146.224 228.296 146L228.278 146.038C228.278 146.038 226.053 147.607 222.963 147.679C220.446 147.739 217.777 147.023 216.039 147.051C215.999 147.623 215.962 148.208 216.077 148.782C216.406 150.409 218.74 150.139 221.348 149.504L221.346 149.502Z" fill="#73A648"/>
<path d="M196 115.439L191.095 128.681L184.692 145.971C184.692 145.971 182.955 146.14 181.29 145.659C179.758 145.215 178 144.053 178 144.053C178 144.053 179.779 125.488 183.094 114.831C183.943 112.096 184.895 109.882 185.948 108.636C191.089 102.54 195.998 115.439 195.998 115.439H196Z" fill="#171F23"/>
<path d="M190.79 93.6438C187.553 92.605 178.321 93.9394 169.048 95.7464L167.106 92.5572L147.074 91C147.074 91 140.465 105.593 144.082 114.892C144.613 116.258 145.671 117.136 147.472 117.164H147.764C147.764 117.164 159.687 117.157 163.557 117.157C173.518 117.157 184.638 110.34 186.077 110.054C188.431 109.586 189.374 114.274 191.728 119.197C194.083 124.121 213.861 141 213.861 141C213.861 141 216.901 141.029 218.156 140.56C219.507 140.057 220 139.401 220 139.401C220 139.401 198.085 95.99 190.785 93.6459L190.79 93.6438Z" fill="#263238"/>
<path d="M160.918 32.3191C158.073 31.5972 154.176 32.317 153.531 32.3798C145.803 33.131 143.205 41.6389 144.376 48.2386C145.455 54.3298 142.323 56.0163 138.695 60.8269C131.421 70.4752 136.174 78.6087 141.916 80.7053C145.362 81.9629 150.143 78.7886 150.143 78.7886C150.23 78.8221 165.169 69.1298 171.295 63.6643C181.494 59.7262 168.172 34.1584 160.918 32.317V32.3191Z" fill="#2B478B"/>
<path d="M161.992 59.5174C162.187 60.1587 158.944 61.3404 156.47 60.9065C154.143 60.4993 151.534 57.9494 152.071 57.7096C152.961 57.3138 153.561 56.3281 153.073 51L153.516 51.0476L160.963 51.843C160.963 51.843 160.985 54.0142 161.158 56.0484C161.302 57.7572 161.672 58.4708 161.99 59.5174H161.992Z" fill="#FFB27D"/>
<path d="M160.821 51.9526C160.821 51.9526 160.842 54.5528 161 56.9889C157.236 57.2373 154.97 53.2424 154 51L160.819 51.9526H160.821Z" fill="#ED975D"/>
<path d="M162.617 53.9421C162.617 53.9421 153.048 54.9452 152.552 48.6001C152.056 42.255 150.486 38.1125 156.576 37.2033C162.665 36.2941 164.043 38.6097 164.693 40.6842C165.344 42.7587 165.095 53.5153 162.617 53.94V53.9421Z" fill="#FFB27D"/>
<path d="M161 36.8865C161 36.8865 159.837 43.7236 154.576 45.3443C150.738 46.5284 149 45.7472 149 45.7472C149 45.7472 150.847 43.3678 151.504 40.0603C151.698 39.0852 152.411 38.2833 153.382 37.9727C156.109 37.1011 159.413 34.718 160.998 36.8865H161Z" fill="#2B478B"/>
<path d="M159 37.7855C159 37.7855 160.907 38.2145 162.597 40.7004C163.52 42.0582 164.59 45.4836 164.408 47C164.408 47 166.178 39.791 163.597 37.1099C160.858 34.2658 159 37.7855 159 37.7855Z" fill="#2B478B"/>
<path d="M143.93 80.3082C144.11 81.0417 144.265 81.7162 144.39 82.3379C144.596 83.3415 144.738 84.2091 144.837 84.973C145.147 87.3541 145.054 88.7661 145.261 90.3102C145.378 91.1737 145.59 92.0798 146.016 93.2156C146.433 94.3208 157.412 95.3082 163.657 94.91C165.64 94.786 167.152 94.5179 167.688 94.075C169.915 92.22 169.693 96.2996 169.998 76.7792C170.146 67.2587 161.569 58.7784 161.569 58.7784C161.569 58.7784 160.884 62.8459 152.379 58.0044C152.076 57.8357 148.727 62.5899 145.503 68.4432C141.951 74.91 142.926 76.2794 143.928 80.3062L143.93 80.3082Z" fill="#73A648"/>
<path d="M191 128.219L184.643 145.971C184.643 145.971 182.919 146.144 181.266 145.65C179.745 145.194 178 144.001 178 144.001C178 144.001 179.766 124.941 183.057 114L190.998 128.219H191Z" fill="#263238"/>
<path d="M161 59C161 59 169.797 60.3934 170.83 63.9325C171.863 67.4717 179 87.2635 179 87.2635C179 87.2635 173.469 89.0271 171.405 87.0963C169.338 85.1655 164.217 69.1875 164.217 69.1875L161.002 59H161Z" fill="#73A648"/>
<path d="M197 83.7625L198.848 83.114C198.848 83.114 199.96 82.8967 200.561 83.0622C201.162 83.2293 202.664 83.2126 202.672 83.4299C202.68 83.6472 200.96 84.3258 200.96 84.3258L200.905 84.3074C201.559 85.6162 204.827 86.3633 204.984 86.8447C205.174 87.4264 203.655 87.7273 202.825 87.9094C201.997 88.0916 199.967 88.0732 198.968 87.1406C198.236 86.4586 197 85.5209 197 85.5209V83.7642V83.7625Z" fill="#FFB27D"/>
<path d="M160.002 50.1669C160.002 50.1669 160.355 51 161.287 51C162.219 51 162.471 50.8654 162.648 50.6746C162.825 50.4838 163 50.1175 163 50.1175C163 50.1175 161.453 49.8228 160 50.1669H160.002Z" fill="white"/>
<path d="M176.413 80.9562L197.93 82.5096C197.93 82.5096 198.38 84.4824 196.994 86.722C196.994 86.722 177.581 90.3113 172.514 88.479C167.447 86.6466 168.019 78 168.019 78L176.413 80.9562Z" fill="#F99746"/>
<path d="M145 84.5554C145.293 86.9844 145.205 88.4248 145.402 89.9999C152.931 90.0248 163 84 163 84L145 84.5554Z" fill="#547E31"/>
<path d="M162.998 80.0328C162.998 80.0328 151.468 79.6329 149.526 72.0024C147.39 63.6202 145 75.4499 145 75.4499L146.273 83H158.922L163 80.0328H162.998Z" fill="#547E31"/>
<path d="M184.81 60.6578L184.152 59.0293C183.447 57.2842 181.751 56.141 179.868 56.141H167.737V96.6802H217.921V63.8336H189.521C187.448 63.8336 185.583 62.5758 184.808 60.6557L184.81 60.6578Z" fill="#73A648"/>
<path d="M175.309 80.7952V77.8735L185.564 73.3837V76.37L178.403 79.3145L185.564 82.2571V85.285L175.309 80.7952Z" fill="white"/>
<path d="M196.22 69.8873H198.953L189.567 89.4978H186.833L196.22 69.8873Z" fill="white"/>
<path d="M210.353 77.8714V80.7931L200.097 85.2829V82.2966L207.259 79.352L200.097 76.4074V73.3795L210.353 77.8693V77.8714Z" fill="white"/>
<path d="M163 80.6096L163.921 79.4258C163.921 79.4258 164.65 79.2312 165.671 78.6438C166.885 77.9439 166.724 76.8959 167.331 77.0084L167.338 79.3116L167.273 79.3187C169.878 79.89 172.925 79.2687 172.986 79.8008C173.154 81.2648 171.774 81.9236 170.618 82.3825C169.732 82.7342 168.727 83.2591 167.129 82.8521C165.96 82.5539 164.121 82.2504 164.121 82.2504L163.004 80.6131L163 80.6096Z" fill="#FFB27D"/>
<path d="M152.225 58C152.225 58 144.494 58.5022 142.561 61.497C140.628 64.4919 138.232 79.6929 139.237 84.9132C140.243 90.1334 165 83.9149 165 83.9149L164.211 79.3851C164.211 79.3851 149.922 79.4682 149.109 77.6194C148.026 75.1632 152.227 58 152.227 58H152.225Z" fill="#73A648"/>
<path d="M190.003 63.7431C189.931 63.9786 191.246 66.3673 193.123 65.9515C194.294 65.692 195.817 62.9164 194.478 62.3036C192.247 61.2823 190.193 63.1134 190.003 63.7431Z" fill="#FFB27D"/>
</svg>
