<svg width="1321" height="624" viewBox="0 0 1321 624" fill="none" xmlns="http://www.w3.org/2000/svg">
<path d="M0 575.124C0 591.926 0 600.326 3.2698 606.744C6.14601 612.389 10.7354 616.978 16.3803 619.854C22.7976 623.124 31.1984 623.124 48 623.124H1258.72C1286.61 623.124 1300.56 623.124 1308.49 617.278C1315.41 612.182 1319.81 604.362 1320.58 595.803C1321.46 585.986 1314.23 574.064 1299.76 550.221L1040.53 123.084C1035.99 115.605 1033.72 111.865 1030.66 109.022C1027.95 106.503 1024.8 104.508 1021.36 103.137C1017.48 101.589 1013.13 101.14 1004.43 100.241L52.9298 1.99829C34.5952 0.105225 25.4279 -0.841309 18.339 2.14935C12.1125 4.77612 6.95526 9.42828 3.70285 15.3521C0 22.0964 0 31.3124 0 49.7445V575.124Z" fill="#73A648"/>
</svg>
