<svg width="79" height="79" viewBox="0 0 79 79" fill="none" xmlns="http://www.w3.org/2000/svg">
<g clip-path="url(#clip0_89_5383)">
<path d="M49.1301 13.54L48.8101 13.87L13.6001 49.52L14.9701 54.51L52.0001 17.02L52.3201 16.69L54.6901 14.29L49.6801 12.98L49.1301 13.54Z" fill="#AAC990"/>
<path d="M57.1098 21.41L56.7798 21.75L17.0298 62L18.3998 66.99L59.9698 24.9L60.2998 24.56L67.2198 17.56L62.2098 16.25L57.1098 21.41Z" fill="#AAC990"/>
<path d="M64.76 29.62L20.46 74.48L21.43 78.02L49.86 49.24L78.28 20.45L74.73 19.52L65.09 29.29L64.76 29.62Z" fill="#AAC990"/>
<path d="M29.6402 7.73994L24.6302 6.43994L6.74023 24.5499L8.11023 29.5399L29.6402 7.73994Z" fill="#AAC990"/>
<path d="M4.59 1.2L0 0L1.26 4.58L4.59 1.2Z" fill="#AAC990"/>
<path d="M17.1201 4.47003L12.1101 3.16003L3.31006 12.07L4.69006 17.06L17.1201 4.47003Z" fill="#AAC990"/>
<path d="M42.1699 11.02L39.1399 10.23L37.1599 9.70996L10.1699 37.03L10.7099 39.01L11.5399 42.03L42.1699 11.02Z" fill="#AAC990"/>
</g>
<defs>
<clipPath id="clip0_89_5383">
<rect width="78.28" height="78.02" fill="white"/>
</clipPath>
</defs>
</svg>
