<svg width="516" height="526" viewBox="0 0 516 526" fill="none" xmlns="http://www.w3.org/2000/svg">
<path d="M258.344 525.037C293.104 525.037 324.206 520.25 352.259 511.875C371.774 505.892 390.069 497.516 405.925 487.944C427.269 474.782 445.564 458.629 460.201 440.083C474.227 423.331 485.204 404.187 493.742 383.845C508.378 349.146 515.696 310.857 515.696 270.773L515.696 41.0383L406.535 41.0383L406.535 219.322C406.535 302.481 390.069 363.504 317.498 383.247C312.01 385.042 305.301 386.239 299.203 387.435C287.006 389.23 273.59 390.426 258.344 390.426C133.326 390.426 111.982 321.626 111.982 219.92L111.982 41.0383L295.544 41.0383L295.544 -93.5718L0.991211 -93.5718L0.991215 270.773C0.991217 405.981 83.3196 525.037 258.344 525.037Z" fill="white"/>
</svg>
