<svg width="167" height="167" viewBox="0 0 167 167" fill="none" xmlns="http://www.w3.org/2000/svg">
<circle cx="83.5" cy="83.5" r="82" stroke="#73A649" stroke-width="3" stroke-dasharray="6 6"/>
<g clip-path="url(#clip0_107_6743)">
<path d="M116.793 43.1602H49.207C45.2331 43.1602 42 46.3932 42 50.3672V117.633C42 121.607 45.2331 124.84 49.207 124.84H116.793C120.767 124.84 124 121.607 124 117.633V50.3672C124 46.3932 120.767 43.1602 116.793 43.1602ZM49.207 47.9648H116.793C118.118 47.9648 119.195 49.0425 119.195 50.3672V62.3789H46.8047V50.3672C46.8047 49.0425 47.8824 47.9648 49.207 47.9648ZM116.793 120.035H49.207C47.8824 120.035 46.8047 118.957 46.8047 117.633V67.1836H119.195V117.633C119.195 118.957 118.118 120.035 116.793 120.035Z" fill="#73A649"/>
<path d="M91.1534 74.5849C89.934 74.0623 88.5215 74.6272 87.9989 75.8466L73.5849 109.479C73.0621 110.699 73.6272 112.111 74.8466 112.634C76.0665 113.157 77.4786 112.591 78.001 111.372L92.4151 77.7393C92.9378 76.5197 92.3728 75.1075 91.1534 74.5849ZM70.4618 82.4992C69.6329 81.4631 68.1208 81.2953 67.0853 82.1241L55.0735 91.7334C53.8725 92.6939 53.8717 94.524 55.0735 95.4853L67.0853 105.095C68.1213 105.924 69.6333 105.755 70.4618 104.72C71.2906 103.684 71.1228 102.172 70.0866 101.343L60.4199 93.6094L70.0866 85.8759C71.1228 85.0471 71.2906 83.5354 70.4618 82.4992ZM110.926 91.7334L98.9147 82.1241C97.8787 81.2951 96.3668 81.4631 95.5381 82.4992C94.7093 83.5352 94.8772 85.0471 95.9134 85.8757L105.58 93.6094L95.9134 101.343C94.8772 102.172 94.7093 103.683 95.5381 104.719C96.3681 105.757 97.8801 105.922 98.9147 105.094L110.926 95.4851C112.127 94.5247 112.128 92.6947 110.926 91.7334Z" fill="#73A649"/>
<path d="M54.1719 57.5742C55.4987 57.5742 56.5742 56.4987 56.5742 55.1719C56.5742 53.8451 55.4987 52.7695 54.1719 52.7695C52.8451 52.7695 51.7695 53.8451 51.7695 55.1719C51.7695 56.4987 52.8451 57.5742 54.1719 57.5742Z" fill="#73A649"/>
<path d="M63.7812 57.5742C65.108 57.5742 66.1836 56.4987 66.1836 55.1719C66.1836 53.8451 65.108 52.7695 63.7812 52.7695C62.4545 52.7695 61.3789 53.8451 61.3789 55.1719C61.3789 56.4987 62.4545 57.5742 63.7812 57.5742Z" fill="#73A649"/>
<path d="M73.3906 57.5742C74.7174 57.5742 75.793 56.4987 75.793 55.1719C75.793 53.8451 74.7174 52.7695 73.3906 52.7695C72.0638 52.7695 70.9883 53.8451 70.9883 55.1719C70.9883 56.4987 72.0638 57.5742 73.3906 57.5742Z" fill="#73A649"/>
<path d="M97.4141 57.5742H111.828C113.155 57.5742 114.23 56.4986 114.23 55.1719C114.23 53.8451 113.155 52.7695 111.828 52.7695H97.4141C96.0873 52.7695 95.0117 53.8451 95.0117 55.1719C95.0117 56.4986 96.0873 57.5742 97.4141 57.5742Z" fill="#73A649"/>
</g>
<defs>
<clipPath id="clip0_107_6743">
<rect width="82" height="82" fill="white" transform="translate(42 43)"/>
</clipPath>
</defs>
</svg>
